<!-- Generated by readme-aura https://github.com/collectioneur/readme-aura -->
<svg width="130" height="44" viewBox="0 0 130 44" xmlns="http://www.w3.org/2000/svg"><mask id="satori_om-id"><rect x="0" y="0" width="130" height="44" fill="#fff"/></mask><path x="0" y="0" width="130" height="44" fill="#000000" d="M22,0 h86 a22,22 0 0 1 22,22 v0 a22,22 0 0 1 -22,22 h-86 a22,22 0 0 1 -22,-22 v0 a22,22 0 0 1 22,-22"/><clipPath id="satori_cp-id-0"><rect x="0" y="0" width="130" height="44"/></clipPath><mask id="satori_om-id-0"><rect x="0" y="0" width="130" height="44" fill="#fff"/></mask><svg x="0" y="0" width="130" height="44" preserveAspectRatio="none" clip-path="url(#satori_cp-id-0)" mask="url(#satori_om-id-0)"><defs><linearGradient id="smb-grad-Instagram" gradientUnits="objectBoundingBox" x1="0" y1="0" x2="1" y2="1"><stop offset="0%" stop-color="#f472b6"></stop><stop offset="30%" stop-color="#000000"></stop><stop offset="60%" stop-color="#fb7eb8"></stop><stop offset="80%" stop-color="#000000"></stop><stop offset="100%" stop-color="#f06aae"></stop><animateTransform attributeName="gradientTransform" type="rotate" from="0 0.5 0.5" to="360 0.5 0.5" dur="8s" repeatCount="indefinite"></animateTransform></linearGradient></defs><rect x="1.25" y="1.25" width="127.5" height="41.5" rx="20.75" ry="20.75" fill="none" stroke="url(#smb-grad-Instagram)" stroke-width="2" stroke-linecap="round" stroke-linejoin="round"></rect><rect x="0.25" y="0.25" width="129.5" height="43.5" rx="21.75" ry="21.75" fill="none" stroke="#AAAAAA" stroke-width="0.5" stroke-linecap="round" stroke-linejoin="round"></rect></svg><mask id="satori_om-id-0-0"><rect x="0" y="0" width="0" height="44" fill="#fff"/></mask><mask id="satori_om-id-0-0-0"><rect x="0" y="0" width="0" height="44" fill="#fff"/></mask><mask id="satori_om-id-0-0-0-0"><rect x="0" y="0" width="0" height="44" fill="#fff"/></mask><mask id="satori_om-id-0-0-0-1"><rect x="0" y="0" width="0" height="44" fill="#fff"/></mask><mask id="satori_om-id-0-0-0-2"><rect x="0" y="0" width="0" height="44" fill="#fff"/></mask><mask id="satori_om-id-0-0-0-3"><rect x="0" y="0" width="0" height="44" fill="#fff"/></mask><mask id="satori_om-id-0-0-0-4"><rect x="0" y="0" width="0" height="44" fill="#fff"/></mask><mask id="satori_om-id-0-0-0-5"><rect x="0" y="0" width="0" height="44" fill="#fff"/></mask><mask id="satori_om-id-0-1"><rect x="0" y="0" width="0" height="44" fill="#fff"/></mask><mask id="satori_om-id-0-2"><rect x="0" y="0" width="0" height="44" fill="#fff"/></mask><mask id="satori_om-id-1"><rect x="0" y="0" width="130" height="44" fill="#fff"/></mask><mask id="satori_om-id-1-0"><rect x="22" y="13" width="18" height="18" fill="#fff"/></mask><mask id="satori_om-id-1-1"><rect x="45" y="14" width="63" height="16" fill="#fff"/></mask><g  ><path fill="#f5f5f5" d="M45.9 17.5L47.8 17.5L47.8 27L45.9 27L45.9 17.5ZM51.2 22.9L51.2 22.9L51.2 27L49.3 27L49.3 19.9L51.1 19.9L51.1 21.4Q51.4 20.7 51.8 20.3L51.8 20.3Q52.4 19.8 53.3 19.8L53.3 19.8Q54.0 19.8 54.6 20.1Q55.1 20.5 55.4 21.1Q55.7 21.7 55.7 22.5L55.7 22.5L55.7 27L53.8 27L53.8 22.8Q53.8 22.2 53.5 21.8Q53.1 21.4 52.5 21.4L52.5 21.4Q52.1 21.4 51.8 21.6Q51.5 21.8 51.3 22.1Q51.2 22.4 51.2 22.9ZM60.0 27.1L60.0 27.1Q59.1 27.1 58.5 26.9Q57.8 26.7 57.4 26.2Q57.0 25.7 56.8 25.1L56.8 25.1L58.6 24.8Q58.7 25.2 59.1 25.5Q59.4 25.7 60.0 25.7L60.0 25.7Q60.6 25.7 60.9 25.5Q61.2 25.3 61.2 25.0L61.2 25.0Q61.2 24.7 61.0 24.6Q60.8 24.4 60.3 24.3L60.3 24.3L59.1 24.0Q58.0 23.8 57.5 23.3Q57.0 22.8 57.0 22.0L57.0 22.0Q57.0 21.3 57.4 20.8Q57.8 20.3 58.4 20.1Q59.1 19.8 60.0 19.8L60.0 19.8Q60.8 19.8 61.5 20.0Q62.1 20.3 62.5 20.7Q62.8 21.1 63.0 21.7L63.0 21.7L61.3 22.0Q61.2 21.6 60.9 21.4Q60.6 21.2 60.0 21.2L60.0 21.2Q59.6 21.2 59.2 21.4Q58.9 21.6 58.9 21.9L58.9 21.9Q58.9 22.2 59.1 22.4Q59.3 22.5 59.8 22.6L59.8 22.6L61.1 22.9Q62.1 23.1 62.6 23.6Q63.1 24.0 63.1 24.8L63.1 24.8Q63.1 25.5 62.7 26.0Q62.3 26.6 61.6 26.8Q60.9 27.1 60.0 27.1ZM66.4 19.9L67.8 19.9L67.8 21.4L66.4 21.4L66.4 24.9Q66.4 25.3 66.6 25.4Q66.7 25.6 67.1 25.6L67.1 25.6Q67.2 25.6 67.4 25.6Q67.6 25.5 67.7 25.5L67.7 25.5L68.0 26.9Q67.6 27.0 67.3 27.1Q67.0 27.1 66.7 27.1L66.7 27.1Q65.7 27.1 65.1 26.6Q64.5 26.1 64.5 25.1L64.5 25.1L64.5 21.4L63.6 21.4L63.6 19.9L64.5 19.9L64.5 18.2L66.4 18.2L66.4 19.9ZM70.8 27.1L70.8 27.1Q70.1 27.1 69.6 26.9Q69.0 26.7 68.7 26.2Q68.4 25.7 68.4 25.0L68.4 25.0Q68.4 24.4 68.6 24.0Q68.9 23.6 69.2 23.4Q69.6 23.1 70.1 23.0Q70.6 22.9 71.1 22.8L71.1 22.8Q71.7 22.8 72.1 22.7Q72.5 22.7 72.6 22.5Q72.8 22.4 72.8 22.2L72.8 22.2L72.8 22.2Q72.8 21.9 72.7 21.7Q72.6 21.4 72.3 21.3Q72.1 21.2 71.7 21.2L71.7 21.2Q71.3 21.2 71.1 21.3Q70.8 21.4 70.6 21.6Q70.4 21.8 70.4 22.0L70.4 22.0L68.6 21.8Q68.8 21.1 69.2 20.7Q69.7 20.3 70.3 20.0Q70.9 19.8 71.7 19.8L71.7 19.8Q72.3 19.8 72.8 20.0Q73.4 20.1 73.8 20.4Q74.2 20.7 74.5 21.1Q74.7 21.6 74.7 22.2L74.7 22.2L74.7 27L72.9 27L72.9 26.0L72.9 26.0Q72.7 26.3 72.4 26.6Q72.1 26.8 71.7 27.0Q71.3 27.1 70.8 27.1ZM71.3 25.8L71.3 25.8Q71.8 25.8 72.1 25.6Q72.4 25.4 72.6 25.1Q72.8 24.8 72.8 24.5L72.8 24.5L72.8 23.7Q72.7 23.8 72.6 23.8Q72.4 23.9 72.2 23.9Q72.0 23.9 71.8 24.0Q71.6 24.0 71.4 24.0L71.4 24.0Q71.1 24.1 70.8 24.2Q70.5 24.3 70.4 24.5Q70.2 24.7 70.2 25.0L70.2 25.0Q70.2 25.2 70.4 25.4Q70.5 25.6 70.8 25.7Q71.0 25.8 71.3 25.8ZM79.3 29.8L79.3 29.8Q78.4 29.8 77.8 29.6Q77.1 29.4 76.7 29.0Q76.3 28.6 76.1 28.1L76.1 28.1L77.7 27.6Q77.8 27.8 78.0 28.0Q78.2 28.2 78.5 28.3Q78.8 28.4 79.3 28.4L79.3 28.4Q80.0 28.4 80.4 28.1Q80.8 27.8 80.8 27.1L80.8 27.1L80.8 25.7L80.7 25.7Q80.6 26.0 80.3 26.3Q80.1 26.6 79.7 26.7Q79.3 26.9 78.7 26.9L78.7 26.9Q77.9 26.9 77.3 26.5Q76.6 26.1 76.2 25.4Q75.8 24.6 75.8 23.4L75.8 23.4Q75.8 22.2 76.2 21.4Q76.6 20.6 77.3 20.2Q78.0 19.8 78.7 19.8L78.7 19.8Q79.3 19.8 79.7 20.0Q80.1 20.2 80.4 20.5Q80.7 20.8 80.8 21.1L80.8 21.1L80.9 21.1L80.9 19.9L82.7 19.9L82.7 26.9Q82.7 27.9 82.3 28.5Q81.9 29.2 81.1 29.5Q80.3 29.8 79.3 29.8ZM79.3 25.5L79.3 25.5Q79.8 25.5 80.2 25.2Q80.5 25.0 80.7 24.5Q80.9 24.1 80.9 23.4L80.9 23.4Q80.9 22.8 80.7 22.3Q80.5 21.9 80.2 21.6Q79.8 21.3 79.3 21.3L79.3 21.3Q78.8 21.3 78.5 21.6Q78.2 21.9 78.0 22.3Q77.8 22.8 77.8 23.4L77.8 23.4Q77.8 24.0 78.0 24.5Q78.2 25.0 78.5 25.2Q78.8 25.5 79.3 25.5ZM86.1 27L84.2 27L84.2 19.9L86.0 19.9L86.0 21.1L86.1 21.1Q86.3 20.5 86.7 20.1Q87.2 19.8 87.8 19.8L87.8 19.8Q87.9 19.8 88.1 19.8Q88.3 19.8 88.4 19.9L88.4 19.9L88.4 21.6Q88.3 21.5 88.0 21.5Q87.8 21.5 87.6 21.5L87.6 21.5Q87.1 21.5 86.8 21.7Q86.4 21.9 86.3 22.2Q86.1 22.5 86.1 23.0L86.1 23.0L86.1 27ZM91.2 27.1L91.2 27.1Q90.6 27.1 90.0 26.9Q89.5 26.7 89.2 26.2Q88.9 25.7 88.9 25.0L88.9 25.0Q88.9 24.4 89.1 24.0Q89.3 23.6 89.7 23.4Q90.1 23.1 90.5 23.0Q91.0 22.9 91.6 22.8L91.6 22.8Q92.2 22.8 92.5 22.7Q92.9 22.7 93.1 22.5Q93.3 22.4 93.3 22.2L93.3 22.2L93.3 22.2Q93.3 21.9 93.1 21.7Q93.0 21.4 92.8 21.3Q92.5 21.2 92.2 21.2L92.2 21.2Q91.8 21.2 91.5 21.3Q91.2 21.4 91.1 21.6Q90.9 21.8 90.8 22.0L90.8 22.0L89.1 21.8Q89.3 21.1 89.7 20.7Q90.1 20.3 90.7 20.0Q91.4 19.8 92.2 19.8L92.2 19.8Q92.7 19.8 93.3 20.0Q93.8 20.1 94.2 20.4Q94.7 20.7 94.9 21.1Q95.2 21.6 95.2 22.2L95.2 22.2L95.2 27L93.4 27L93.4 26.0L93.3 26.0Q93.1 26.3 92.9 26.6Q92.6 26.8 92.2 27.0Q91.8 27.1 91.2 27.1ZM91.8 25.8L91.8 25.8Q92.2 25.8 92.6 25.6Q92.9 25.4 93.1 25.1Q93.3 24.8 93.3 24.5L93.3 24.5L93.3 23.7Q93.2 23.8 93.0 23.8Q92.9 23.9 92.6 23.9Q92.4 23.9 92.2 24.0Q92.0 24.0 91.9 24.0L91.9 24.0Q91.5 24.1 91.3 24.2Q91.0 24.3 90.8 24.5Q90.7 24.7 90.7 25.0L90.7 25.0Q90.7 25.2 90.8 25.4Q91.0 25.6 91.2 25.7Q91.5 25.8 91.8 25.8ZM98.5 27L96.6 27L96.6 19.9L98.4 19.9L98.4 21.3Q98.6 20.9 98.8 20.6L98.8 20.6Q99.1 20.2 99.6 20.0Q100.0 19.8 100.5 19.8L100.5 19.8Q101.2 19.8 101.7 20.3L101.7 20.3Q102.1 20.7 102.3 21.4L102.3 21.4Q102.4 21.0 102.7 20.7L102.7 20.7Q103.0 20.2 103.5 20.0Q104.0 19.8 104.6 19.8L104.6 19.8Q105.2 19.8 105.7 20.1Q106.2 20.4 106.5 20.9Q106.8 21.4 106.8 22.2L106.8 22.2L106.8 27L104.9 27L104.9 22.6Q104.9 22.0 104.6 21.7Q104.3 21.4 103.8 21.4L103.8 21.4Q103.4 21.4 103.2 21.5Q102.9 21.7 102.8 22.0Q102.6 22.3 102.6 22.6L102.6 22.6L102.6 27L100.8 27L100.8 22.5Q100.8 22.0 100.5 21.7Q100.2 21.4 99.7 21.4L99.7 21.4Q99.4 21.4 99.1 21.5Q98.8 21.7 98.7 22.0Q98.5 22.3 98.5 22.7L98.5 22.7L98.5 27Z "/></g></svg>