<!-- Generated by readme-aura https://github.com/collectioneur/readme-aura -->
<svg width="860" height="140" viewBox="0 0 860 140" xmlns="http://www.w3.org/2000/svg"><defs><clipPath id="satori_bc-id"><path x="0" y="0" width="860" height="140" d="M16,0 h828 a16,16 0 0 1 16,16 v108 a16,16 0 0 1 -16,16 h-828 a16,16 0 0 1 -16,-16 v-108 a16,16 0 0 1 16,-16"/></clipPath></defs><clipPath id="satori_cp-id"><path x="0" y="0" width="860" height="140" d="M16,0 h828 a16,16 0 0 1 16,16 v108 a16,16 0 0 1 -16,16 h-828 a16,16 0 0 1 -16,-16 v-108 a16,16 0 0 1 16,-16"/></clipPath><mask id="satori_om-id"><rect x="1" y="1" width="858" height="138" fill="#fff"/><path width="860" height="140" fill="none" stroke="#000" stroke-width="2" d="M4.686,4.686 A16,16 0 0 1 16,0 h828 a16,16 0 0 1 16,16 v108 a16,16 0 0 1 -16,16 h-828 a16,16 0 0 1 -16,-16 v-108 A16,16 0 0 1 4.686,4.686"/></mask><path x="0" y="0" width="860" height="140" fill="#08080c" d="M16,0 h828 a16,16 0 0 1 16,16 v108 a16,16 0 0 1 -16,16 h-828 a16,16 0 0 1 -16,-16 v-108 a16,16 0 0 1 16,-16"/><path width="860" height="140" clip-path="url(#satori_bc-id)" fill="none" stroke="rgba(110,80,220,0.18)" stroke-width="2" d="M4.686,4.686 A16,16 0 0 1 16,0 h828 a16,16 0 0 1 16,16 v108 a16,16 0 0 1 -16,16 h-828 a16,16 0 0 1 -16,-16 v-108 A16,16 0 0 1 4.686,4.686"/><clipPath id="satori_cp-id-0" clip-path="url(#satori_cp-id)"><rect x="1" y="1" width="860" height="140"/></clipPath><mask id="satori_om-id-0"><rect x="1" y="1" width="860" height="140" fill="#fff" mask="url(#satori_om-id)"/></mask><svg x="1" y="1" width="860" height="140" preserveAspectRatio="none" clip-path="url(#satori_cp-id-0)" mask="url(#satori_om-id-0)"><defs><radialGradient id="g1" cx="50%" cy="50%" r="50%"><stop offset="0%" stop-color="rgba(110,20,210,0.65)"></stop><stop offset="45%" stop-color="rgba(80,15,170,0.28)"></stop><stop offset="70%" stop-color="rgba(80,15,170,0)"></stop></radialGradient><radialGradient id="g2" cx="50%" cy="50%" r="50%"><stop offset="0%" stop-color="rgba(40,70,255,0.55)"></stop><stop offset="45%" stop-color="rgba(20,50,200,0.22)"></stop><stop offset="70%" stop-color="rgba(20,50,200,0)"></stop></radialGradient><radialGradient id="g3" cx="50%" cy="50%" r="50%"><stop offset="0%" stop-color="rgba(0,140,255,0.42)"></stop><stop offset="70%" stop-color="rgba(0,140,255,0)"></stop></radialGradient><radialGradient id="g4" cx="50%" cy="50%" r="50%"><stop offset="0%" stop-color="rgba(0,195,235,0.30)"></stop><stop offset="70%" stop-color="rgba(0,195,235,0)"></stop></radialGradient><radialGradient id="g5" cx="50%" cy="50%" r="50%"><stop offset="0%" stop-color="rgba(100,30,210,0.40)"></stop><stop offset="70%" stop-color="rgba(100,30,210,0)"></stop></radialGradient></defs><ellipse id="glow-1" cx="710" cy="150" rx="210" ry="150" fill="url(#g1)"></ellipse><ellipse id="glow-2" cx="550" cy="140" rx="190" ry="140" fill="url(#g2)"></ellipse><ellipse id="glow-3" cx="400" cy="130" rx="170" ry="130" fill="url(#g3)"></ellipse><ellipse id="glow-4" cx="250" cy="140" rx="150" ry="120" fill="url(#g4)"></ellipse><ellipse id="glow-5" cx="100" cy="150" rx="130" ry="110" fill="url(#g5)"></ellipse><style>

         @keyframes float-slow {
           0%, 100% { transform: translateX(0px); opacity: 0.8; }
           50% { transform: translateX(350px); opacity: 1.2; }
         }
         @keyframes float-medium {
           0%, 100% { transform: translateX(0px); opacity: 0.7; }
           50% { transform: translateX(-250px); opacity: 1.1; }
         }
         @keyframes float-fast {
           0%, 100% { transform: translateX(0px); opacity: 0.9; }
           50% { transform: translateX(200px); opacity: 0.6; }
         }
         @keyframes float-diagonal {
           0%, 100% { transform: translate(0px, 0px); opacity: 0.75; }
           50% { transform: translate(120px, 30px); opacity: 1.0; }
         }
         @keyframes float-wave {
           0%, 100% { transform: translateX(0px); opacity: 0.65; }
           33% { transform: translateX(-160px); opacity: 0.9; }
           66% { transform: translateX(80px); opacity: 1.0; }
         }
         @keyframes float-pulse {
           0%, 100% { transform: scale(1); opacity: 0.8; }
           50% { transform: scale(1.3); opacity: 0.4; }
         }
         #glow-1 { animation: float-slow 8s ease-in-out infinite; }
         #glow-2 { animation: float-medium 12s ease-in-out infinite; }
         #glow-3 { animation: float-fast 9s ease-in-out infinite; }
         #glow-4 { animation: float-diagonal 10s ease-in-out infinite; }
         #glow-5 { animation: float-wave 14s ease-in-out infinite; }
       
</style>
</svg><mask id="satori_om-id-0-0"><rect x="1" y="1" width="0" height="140" fill="#fff" mask="url(#satori_om-id)"/></mask><mask id="satori_om-id-0-0-0"><rect x="1" y="1" width="0" height="140" fill="#fff" mask="url(#satori_om-id)"/></mask><mask id="satori_om-id-0-0-0-0"><rect x="1" y="1" width="0" height="140" fill="#fff" mask="url(#satori_om-id)"/></mask><mask id="satori_om-id-0-0-0-1"><rect x="1" y="1" width="0" height="140" fill="#fff" mask="url(#satori_om-id)"/></mask><mask id="satori_om-id-0-0-0-2"><rect x="1" y="1" width="0" height="140" fill="#fff" mask="url(#satori_om-id)"/></mask><mask id="satori_om-id-0-0-1"><rect x="1" y="1" width="0" height="140" fill="#fff" mask="url(#satori_om-id)"/></mask><mask id="satori_om-id-0-0-1-0"><rect x="1" y="1" width="0" height="140" fill="#fff" mask="url(#satori_om-id)"/></mask><mask id="satori_om-id-0-0-1-1"><rect x="1" y="1" width="0" height="140" fill="#fff" mask="url(#satori_om-id)"/></mask><mask id="satori_om-id-0-0-1-2"><rect x="1" y="1" width="0" height="140" fill="#fff" mask="url(#satori_om-id)"/></mask><mask id="satori_om-id-0-0-2"><rect x="1" y="1" width="0" height="140" fill="#fff" mask="url(#satori_om-id)"/></mask><mask id="satori_om-id-0-0-2-0"><rect x="1" y="1" width="0" height="140" fill="#fff" mask="url(#satori_om-id)"/></mask><mask id="satori_om-id-0-0-2-1"><rect x="1" y="1" width="0" height="140" fill="#fff" mask="url(#satori_om-id)"/></mask><mask id="satori_om-id-0-0-3"><rect x="1" y="1" width="0" height="140" fill="#fff" mask="url(#satori_om-id)"/></mask><mask id="satori_om-id-0-0-3-0"><rect x="1" y="1" width="0" height="140" fill="#fff" mask="url(#satori_om-id)"/></mask><mask id="satori_om-id-0-0-3-1"><rect x="1" y="1" width="0" height="140" fill="#fff" mask="url(#satori_om-id)"/></mask><mask id="satori_om-id-0-0-4"><rect x="1" y="1" width="0" height="140" fill="#fff" mask="url(#satori_om-id)"/></mask><mask id="satori_om-id-0-0-4-0"><rect x="1" y="1" width="0" height="140" fill="#fff" mask="url(#satori_om-id)"/></mask><mask id="satori_om-id-0-0-4-1"><rect x="1" y="1" width="0" height="140" fill="#fff" mask="url(#satori_om-id)"/></mask><mask id="satori_om-id-0-1"><rect x="1" y="1" width="0" height="140" fill="#fff" mask="url(#satori_om-id)"/></mask><mask id="satori_om-id-0-2"><rect x="1" y="1" width="0" height="140" fill="#fff" mask="url(#satori_om-id)"/></mask><mask id="satori_om-id-0-3"><rect x="1" y="1" width="0" height="140" fill="#fff" mask="url(#satori_om-id)"/></mask><mask id="satori_om-id-0-4"><rect x="1" y="1" width="0" height="140" fill="#fff" mask="url(#satori_om-id)"/></mask><mask id="satori_om-id-0-5"><rect x="1" y="1" width="0" height="140" fill="#fff" mask="url(#satori_om-id)"/></mask><defs><clipPath id="satori_bc-id-1" clip-path="url(#satori_cp-id)"><rect x="1" y="24" width="278" height="93"/></clipPath></defs><mask id="satori_om-id-1"><rect x="1" y="24" width="277" height="93" fill="#fff" mask="url(#satori_om-id)"/><path width="278" height="93" fill="none" stroke="#000" stroke-width="2" d="M279,24 A0,0 0 0 1 279,24 v93 A0,0 0 0 1 279,117"/></mask><path width="278" height="93" clip-path="url(#satori_bc-id-1)" fill="none" stroke="rgba(255,255,255,0.06)" stroke-width="2" d="M279,24 A0,0 0 0 1 279,24 v93 A0,0 0 0 1 279,117"/><mask id="satori_om-id-1-0"><rect x="123" y="44" width="34" height="32" fill="#fff" mask="url(#satori_om-id)"/></mask><g mask="url(#satori_om-id)" clip-path="url(#satori_cp-id)"><path fill="#a78bfa" d="M129.6 48.7L134.7 48.7L134.7 72L129.9 72L129.9 52.9L129.8 52.9L124.5 56.7L124.5 52.3L129.6 48.7ZM155.2 72L138.7 72L138.7 68.6L147.0 60.8Q148.0 59.8 148.8 59.0Q149.5 58.1 149.9 57.3Q150.3 56.5 150.3 55.6L150.3 55.6Q150.3 54.5 149.8 53.8Q149.3 53.0 148.5 52.6Q147.7 52.2 146.7 52.2L146.7 52.2Q145.6 52.2 144.8 52.7Q144.0 53.1 143.5 53.9Q143.1 54.7 143.1 55.9L143.1 55.9L138.5 55.9Q138.5 53.6 139.6 51.9Q140.6 50.2 142.4 49.3Q144.3 48.4 146.7 48.4L146.7 48.4Q149.2 48.4 151 49.3Q152.8 50.2 153.9 51.7Q154.9 53.3 154.9 55.3L154.9 55.3Q154.9 56.6 154.4 57.8Q153.9 59.1 152.6 60.7Q151.3 62.3 148.9 64.4L148.9 64.4L145.4 67.9L145.4 68.1L155.2 68.1L155.2 72Z "/></g><mask id="satori_om-id-1-1"><rect x="116" y="82" width="48" height="15" fill="#fff" mask="url(#satori_om-id)"/></mask><g mask="url(#satori_om-id)" clip-path="url(#satori_cp-id)"><path fill="rgba(200,195,225,0.45)" d="M118.6 94L116.8 94L116.8 85.3L120.2 85.3Q121.2 85.3 121.9 85.6Q122.6 86.0 123.0 86.6Q123.3 87.3 123.3 88.1Q123.3 89.0 122.9 89.6Q122.6 90.2 121.9 90.5L121.9 90.5Q121.8 90.6 121.8 90.6L121.8 90.6L123.6 94L121.6 94L120.0 90.9L118.6 90.9L118.6 94ZM118.6 86.7L118.6 89.4L119.9 89.4Q120.4 89.4 120.8 89.3Q121.1 89.1 121.3 88.8Q121.5 88.5 121.5 88.1L121.5 88.1Q121.5 87.7 121.3 87.4Q121.1 87.1 120.8 86.9Q120.4 86.7 119.9 86.7L119.9 86.7L118.6 86.7ZM132.0 94L126.2 94L126.2 85.3L132.0 85.3L132.0 86.8L128.0 86.8L128.0 88.9L131.7 88.9L131.7 90.3L128.0 90.3L128.0 92.5L132.0 92.5L132.0 94ZM136.7 94L135.0 94L135.0 85.3L138.4 85.3Q139.4 85.3 140.1 85.6Q140.8 86.0 141.1 86.7Q141.5 87.4 141.5 88.2L141.5 88.2Q141.5 89.1 141.1 89.7Q140.7 90.4 140.0 90.8Q139.3 91.1 138.3 91.1L138.3 91.1L136.7 91.1L136.7 94ZM136.7 86.7L136.7 89.7L138.0 89.7Q138.6 89.7 138.9 89.5Q139.3 89.3 139.5 89.0Q139.6 88.7 139.6 88.2Q139.6 87.8 139.5 87.4Q139.3 87.1 138.9 86.9Q138.6 86.7 138.0 86.7L138.0 86.7L136.7 86.7ZM148.1 94.1L148.1 94.1Q146.9 94.1 146.0 93.6Q145.1 93.1 144.5 92.1Q144.0 91.1 144.0 89.6L144.0 89.6Q144.0 88.2 144.5 87.2Q145.1 86.2 146.0 85.7Q146.9 85.2 148.1 85.2L148.1 85.2Q149.2 85.2 150.1 85.7Q151.1 86.2 151.6 87.2Q152.1 88.2 152.1 89.6L152.1 89.6Q152.1 91.1 151.6 92.1Q151.1 93.1 150.1 93.6Q149.2 94.1 148.1 94.1ZM148.1 92.5L148.1 92.5Q148.7 92.5 149.3 92.2Q149.8 91.9 150.0 91.2Q150.3 90.6 150.3 89.6L150.3 89.6Q150.3 88.7 150.0 88.0Q149.8 87.4 149.3 87.1Q148.7 86.7 148.1 86.7L148.1 86.7Q147.4 86.7 146.9 87.1Q146.4 87.4 146.1 88.1Q145.8 88.7 145.8 89.6L145.8 89.6Q145.8 90.6 146.1 91.2Q146.4 91.9 146.9 92.2Q147.4 92.5 148.1 92.5ZM158.2 94.1L158.2 94.1Q157.1 94.1 156.4 93.8Q155.6 93.5 155.1 92.9Q154.7 92.2 154.7 91.3L154.7 91.3L156.4 91.3Q156.5 91.7 156.7 92.0Q156.9 92.3 157.3 92.5Q157.7 92.6 158.2 92.6L158.2 92.6Q158.6 92.6 159.0 92.5Q159.4 92.3 159.6 92.1Q159.8 91.8 159.8 91.5L159.8 91.5Q159.8 91.2 159.6 91.0Q159.4 90.8 159.1 90.7Q158.7 90.5 158.2 90.4L158.2 90.4L157.3 90.2Q156.2 89.9 155.6 89.3Q154.9 88.7 154.9 87.8L154.9 87.8Q154.9 87.0 155.3 86.4Q155.8 85.8 156.5 85.5Q157.3 85.2 158.2 85.2L158.2 85.2Q159.2 85.2 159.9 85.5Q160.6 85.8 161.0 86.4Q161.4 87.0 161.4 87.8L161.4 87.8L159.7 87.8Q159.7 87.2 159.3 86.9Q158.9 86.7 158.2 86.7L158.2 86.7Q157.7 86.7 157.4 86.8Q157.1 86.9 156.9 87.1Q156.8 87.4 156.8 87.7L156.8 87.7Q156.8 88.0 157.0 88.2Q157.1 88.4 157.5 88.5Q157.8 88.7 158.2 88.8L158.2 88.8L158.9 89.0Q159.5 89.1 160.0 89.3Q160.4 89.5 160.8 89.8Q161.2 90.1 161.4 90.5Q161.6 91.0 161.6 91.5L161.6 91.5Q161.6 92.3 161.2 92.9Q160.8 93.5 160.0 93.8Q159.2 94.1 158.2 94.1Z "/></g><defs><clipPath id="satori_bc-id-2" clip-path="url(#satori_cp-id)"><rect x="279" y="24" width="280" height="93"/></clipPath></defs><mask id="satori_om-id-2"><rect x="279" y="24" width="279" height="93" fill="#fff" mask="url(#satori_om-id)"/><path width="280" height="93" fill="none" stroke="#000" stroke-width="2" d="M559,24 A0,0 0 0 1 559,24 v93 A0,0 0 0 1 559,117"/></mask><path width="280" height="93" clip-path="url(#satori_bc-id-2)" fill="none" stroke="rgba(255,255,255,0.06)" stroke-width="2" d="M559,24 A0,0 0 0 1 559,24 v93 A0,0 0 0 1 559,117"/><mask id="satori_om-id-2-0"><rect x="408" y="44" width="20" height="32" fill="#fff" mask="url(#satori_om-id)"/></mask><g mask="url(#satori_om-id)" clip-path="url(#satori_cp-id)"><path fill="#60a5fa" d="M417.8 72.3L417.8 72.3Q415.4 72.3 413.6 71.4Q411.7 70.5 410.6 69Q409.5 67.5 409.5 65.5L409.5 65.5L414.1 65.5Q414.2 66.4 414.7 67.1Q415.2 67.8 416 68.1Q416.8 68.5 417.8 68.5L417.8 68.5Q419.0 68.5 419.9 68.0Q420.8 67.5 421.3 66.5Q421.8 65.6 421.8 64.4L421.8 64.4Q421.8 63.1 421.3 62.2Q420.8 61.2 419.9 60.7Q418.9 60.2 417.7 60.2L417.7 60.2Q416.7 60.2 415.7 60.6Q414.8 61.0 414.2 61.7L414.2 61.7L410.0 60.9L411.1 48.7L425.2 48.7L425.2 52.7L415.0 52.7L414.4 58.5L414.5 58.5Q415.2 57.7 416.4 57.2Q417.6 56.6 419.1 56.6L419.1 56.6Q420.7 56.6 422.0 57.2Q423.4 57.7 424.4 58.8Q425.3 59.8 425.9 61.2Q426.4 62.6 426.4 64.3L426.4 64.3Q426.4 66.6 425.4 68.4Q424.3 70.2 422.3 71.3Q420.4 72.3 417.8 72.3Z "/></g><mask id="satori_om-id-2-1"><rect x="394" y="82" width="49" height="15" fill="#fff" mask="url(#satori_om-id)"/></mask><g mask="url(#satori_om-id)" clip-path="url(#satori_cp-id)"><path fill="rgba(200,195,225,0.45)" d="M398.0 94.1L398.0 94.1Q396.9 94.1 396.2 93.8Q395.4 93.5 395.0 92.9Q394.5 92.2 394.5 91.3L394.5 91.3L396.2 91.3Q396.3 91.7 396.5 92.0Q396.7 92.3 397.1 92.5Q397.5 92.6 398.0 92.6L398.0 92.6Q398.5 92.6 398.8 92.5Q399.2 92.3 399.4 92.1Q399.6 91.8 399.6 91.5L399.6 91.5Q399.6 91.2 399.4 91.0Q399.2 90.8 398.9 90.7Q398.5 90.5 398.1 90.4L398.1 90.4L397.1 90.2Q396.0 89.9 395.4 89.3Q394.7 88.7 394.7 87.8L394.7 87.8Q394.7 87.0 395.2 86.4Q395.6 85.8 396.3 85.5Q397.1 85.2 398.0 85.2L398.0 85.2Q399.0 85.2 399.7 85.5Q400.4 85.8 400.8 86.4Q401.2 87.0 401.2 87.8L401.2 87.8L399.5 87.8Q399.5 87.2 399.1 86.9Q398.7 86.7 398.0 86.7L398.0 86.7Q397.5 86.7 397.2 86.8Q396.9 86.9 396.7 87.1Q396.6 87.4 396.6 87.7L396.6 87.7Q396.6 88.0 396.8 88.2Q397.0 88.4 397.3 88.5Q397.6 88.7 398.0 88.8L398.0 88.8L398.8 89.0Q399.3 89.1 399.8 89.3Q400.3 89.5 400.6 89.8Q401.0 90.1 401.2 90.5Q401.4 91.0 401.4 91.5L401.4 91.5Q401.4 92.3 401.0 92.9Q400.6 93.5 399.8 93.8Q399.1 94.1 398.0 94.1ZM406.5 86.8L403.8 86.8L403.8 85.3L410.9 85.3L410.9 86.8L408.3 86.8L408.3 94L406.5 94L406.5 86.8ZM415.1 94L413.2 94L416.1 85.3L418.5 85.3L421.5 94L419.6 94L418.9 92.0L415.8 92.0L415.1 94ZM416.2 90.6L418.4 90.6L418.2 89.8Q417.9 89.0 417.6 88L417.6 88Q417.5 87.4 417.3 86.7L417.3 86.7Q417.1 87.4 417.0 88.0L417.0 88.0Q416.7 89.0 416.5 89.8L416.5 89.8L416.2 90.6ZM425.9 94L424.1 94L424.1 85.3L427.5 85.3Q428.5 85.3 429.2 85.6Q429.9 86.0 430.3 86.6Q430.6 87.3 430.6 88.1Q430.6 89.0 430.3 89.6Q429.9 90.2 429.2 90.5L429.2 90.5Q429.1 90.6 429.1 90.6L429.1 90.6L431.0 94L429.0 94L427.3 90.9L425.9 90.9L425.9 94ZM425.9 86.7L425.9 89.4L427.2 89.4Q427.7 89.4 428.1 89.3Q428.4 89.1 428.6 88.8Q428.8 88.5 428.8 88.1L428.8 88.1Q428.8 87.7 428.6 87.4Q428.4 87.1 428.1 86.9Q427.7 86.7 427.2 86.7L427.2 86.7L425.9 86.7ZM436.7 94.1L436.7 94.1Q435.6 94.1 434.9 93.8Q434.1 93.5 433.7 92.9Q433.2 92.2 433.2 91.3L433.2 91.3L434.9 91.3Q435.0 91.7 435.2 92.0Q435.4 92.3 435.8 92.5Q436.2 92.6 436.7 92.6L436.7 92.6Q437.2 92.6 437.5 92.5Q437.9 92.3 438.1 92.1Q438.3 91.8 438.3 91.5L438.3 91.5Q438.3 91.2 438.1 91.0Q437.9 90.8 437.6 90.7Q437.2 90.5 436.8 90.4L436.8 90.4L435.8 90.2Q434.7 89.9 434.1 89.3Q433.4 88.7 433.4 87.8L433.4 87.8Q433.4 87.0 433.9 86.4Q434.3 85.8 435.0 85.5Q435.8 85.2 436.7 85.2L436.7 85.2Q437.7 85.2 438.4 85.5Q439.1 85.8 439.5 86.4Q439.9 87.0 439.9 87.8L439.9 87.8L438.2 87.8Q438.2 87.2 437.8 86.9Q437.4 86.7 436.7 86.7L436.7 86.7Q436.3 86.7 435.9 86.8Q435.6 86.9 435.4 87.1Q435.3 87.4 435.3 87.7L435.3 87.7Q435.3 88.0 435.5 88.2Q435.7 88.4 436.0 88.5Q436.3 88.7 436.7 88.8L436.7 88.8L437.5 89.0Q438.0 89.1 438.5 89.3Q439.0 89.5 439.3 89.8Q439.7 90.1 439.9 90.5Q440.1 91.0 440.1 91.5L440.1 91.5Q440.1 92.3 439.7 92.9Q439.3 93.5 438.5 93.8Q437.8 94.1 436.7 94.1Z "/></g><mask id="satori_om-id-3"><rect x="559" y="24" width="300" height="93" fill="#fff" mask="url(#satori_om-id)"/></mask><mask id="satori_om-id-3-0"><rect x="688" y="44" width="42" height="32" fill="#fff" mask="url(#satori_om-id)"/></mask><g mask="url(#satori_om-id)" clip-path="url(#satori_cp-id)"><path fill="#f59e0b" d="M697.9 72.3L697.9 72.3Q695.6 72.3 693.9 71.4Q692.1 70.5 691.0 69.0Q689.9 67.4 689.7 65.5L689.7 65.5L694.4 65.5Q694.7 66.8 695.6 67.5Q696.5 68.2 697.9 68.2L697.9 68.2Q699.5 68.2 700.5 67.3Q701.6 66.4 702.1 64.7Q702.7 63.0 702.7 60.8L702.7 60.8L702.5 60.8Q702.0 61.8 701.1 62.5Q700.2 63.2 699.1 63.6Q697.9 64.0 696.7 64.0L696.7 64.0Q694.6 64.0 693.0 63.0Q691.3 62.1 690.4 60.4Q689.5 58.7 689.5 56.5L689.5 56.5Q689.5 54.1 690.6 52.3Q691.7 50.5 693.6 49.4Q695.6 48.3 698.1 48.4L698.1 48.4Q699.9 48.4 701.5 49.0Q703.2 49.6 704.5 50.9Q705.8 52.2 706.6 54.4Q707.3 56.6 707.3 59.8L707.3 59.8Q707.3 62.8 706.7 65.1Q706 67.4 704.8 69.0Q703.5 70.6 701.8 71.5Q700.1 72.3 697.9 72.3ZM698.1 60.5L698.1 60.5Q699.0 60.5 699.7 60.2Q700.5 59.8 701 59.3Q701.5 58.7 701.9 58.0Q702.2 57.2 702.2 56.3L702.2 56.3Q702.2 55.2 701.6 54.3Q701.1 53.3 700.2 52.8Q699.3 52.2 698.1 52.2L698.1 52.2Q697 52.2 696.1 52.7Q695.2 53.3 694.6 54.2Q694.1 55.2 694.1 56.4L694.1 56.4Q694.1 57.5 694.6 58.5Q695.2 59.4 696.1 60.0Q697.0 60.5 698.1 60.5ZM718.7 72.3L718.7 72.3Q716.4 72.3 714.6 71.4Q712.9 70.5 711.8 69.0Q710.7 67.4 710.5 65.5L710.5 65.5L715.2 65.5Q715.5 66.8 716.4 67.5Q717.3 68.2 718.7 68.2L718.7 68.2Q720.3 68.2 721.3 67.3Q722.4 66.4 722.9 64.7Q723.4 63.0 723.4 60.8L723.4 60.8L723.3 60.8Q722.8 61.8 721.9 62.5Q721.0 63.2 719.9 63.6Q718.7 64.0 717.4 64.0L717.4 64.0Q715.4 64.0 713.7 63.0Q712.1 62.1 711.2 60.4Q710.3 58.7 710.3 56.5L710.3 56.5Q710.3 54.1 711.3 52.3Q712.4 50.5 714.4 49.4Q716.3 48.3 718.9 48.4L718.9 48.4Q720.7 48.4 722.3 49.0Q724.0 49.6 725.3 50.9Q726.6 52.2 727.3 54.4Q728.1 56.6 728.1 59.8L728.1 59.8Q728.1 62.8 727.4 65.1Q726.8 67.4 725.6 69.0Q724.3 70.6 722.6 71.5Q720.9 72.3 718.7 72.3ZM718.9 60.5L718.9 60.5Q719.8 60.5 720.5 60.2Q721.2 59.8 721.8 59.3Q722.3 58.7 722.6 58.0Q723.0 57.2 723.0 56.3L723.0 56.3Q723.0 55.2 722.4 54.3Q721.9 53.3 721 52.8Q720.1 52.2 718.9 52.2L718.9 52.2Q717.8 52.2 716.9 52.7Q716.0 53.3 715.4 54.2Q714.9 55.2 714.9 56.4L714.9 56.4Q714.9 57.5 715.4 58.5Q715.9 59.4 716.8 60.0Q717.7 60.5 718.9 60.5Z "/></g><mask id="satori_om-id-3-1"><rect x="674" y="82" width="71" height="15" fill="#fff" mask="url(#satori_om-id)"/></mask><g mask="url(#satori_om-id)" clip-path="url(#satori_cp-id)"><path fill="rgba(200,195,225,0.45)" d="M678.6 94.1L678.6 94.1Q677.4 94.1 676.5 93.6Q675.6 93.1 675.1 92.1Q674.6 91.1 674.6 89.6L674.6 89.6Q674.6 88.2 675.1 87.2Q675.6 86.2 676.5 85.7Q677.5 85.2 678.6 85.2L678.6 85.2Q679.3 85.2 680.0 85.4Q680.6 85.6 681.1 86.0Q681.6 86.4 681.9 86.9Q682.3 87.5 682.4 88.3L682.4 88.3L680.6 88.3Q680.5 87.9 680.3 87.6Q680.2 87.3 679.9 87.1Q679.7 86.9 679.3 86.8Q679.0 86.7 678.6 86.7L678.6 86.7Q678.0 86.7 677.4 87.1Q676.9 87.4 676.7 88.1Q676.4 88.7 676.4 89.6L676.4 89.6Q676.4 90.6 676.7 91.2Q676.9 91.9 677.5 92.2Q678.0 92.5 678.6 92.5L678.6 92.5Q679.0 92.5 679.3 92.4Q679.6 92.3 679.9 92.1Q680.2 91.9 680.3 91.7Q680.5 91.4 680.6 91.0L680.6 91.0L682.4 91.0Q682.3 91.6 682.0 92.2Q681.7 92.7 681.2 93.2Q680.8 93.6 680.1 93.9Q679.4 94.1 678.6 94.1ZM689 94.1L689 94.1Q687.8 94.1 686.9 93.6Q686 93.1 685.5 92.1Q684.9 91.1 684.9 89.6L684.9 89.6Q684.9 88.2 685.5 87.2Q686 86.2 686.9 85.7Q687.8 85.2 689 85.2L689 85.2Q690.2 85.2 691.1 85.7Q692 86.2 692.5 87.2Q693.1 88.2 693.1 89.6L693.1 89.6Q693.1 91.1 692.5 92.1Q692 93.1 691.1 93.6Q690.2 94.1 689 94.1ZM689 92.5L689 92.5Q689.7 92.5 690.2 92.2Q690.7 91.9 691.0 91.2Q691.3 90.6 691.3 89.6L691.3 89.6Q691.3 88.7 691.0 88.0Q690.7 87.4 690.2 87.1Q689.7 86.7 689 86.7L689 86.7Q688.3 86.7 687.8 87.1Q687.3 87.4 687.0 88.1Q686.7 88.7 686.7 89.6L686.7 89.6Q686.7 90.6 687.0 91.2Q687.3 91.9 687.8 92.2Q688.3 92.5 689 92.5ZM697.7 94L695.9 94L695.9 85.3L698.7 85.3L700.1 89.3Q700.2 89.6 700.3 90.0Q700.4 90.4 700.5 91.0L700.5 91.0Q700.6 91.5 700.7 91.9L700.7 91.9Q700.8 91.5 700.9 91.0L700.9 91.0Q701.1 90.5 701.2 90.0Q701.3 89.6 701.4 89.3L701.4 89.3L702.8 85.3L705.5 85.3L705.5 94L703.7 94L703.7 89.9Q703.7 89.6 703.7 89.2Q703.7 88.7 703.8 88.2Q703.8 87.8 703.8 87.3L703.8 87.3Q703.8 87.0 703.8 86.8L703.8 86.8Q703.7 87.1 703.7 87.3L703.7 87.3Q703.5 87.8 703.4 88.3Q703.3 88.8 703.1 89.2Q703.0 89.6 702.9 89.9L702.9 89.9L701.5 94L700.0 94L698.5 89.9Q698.4 89.6 698.3 89.2Q698.2 88.8 698.0 88.3Q697.9 87.8 697.7 87.3L697.7 87.3Q697.7 87.1 697.6 86.9L697.6 86.9Q697.6 87.0 697.6 87.2L697.6 87.2Q697.6 87.7 697.7 88.2Q697.7 88.7 697.7 89.2Q697.7 89.6 697.7 89.9L697.7 89.9L697.7 94ZM710.4 94L708.6 94L708.6 85.3L711.3 85.3L712.8 89.3Q712.8 89.6 713.0 90.0Q713.1 90.4 713.2 91.0L713.2 91.0Q713.3 91.5 713.4 91.9L713.4 91.9Q713.5 91.5 713.6 91.0L713.6 91.0Q713.7 90.5 713.8 90.0Q714.0 89.6 714.0 89.3L714.0 89.3L715.4 85.3L718.2 85.3L718.2 94L716.4 94L716.4 89.9Q716.4 89.6 716.4 89.2Q716.4 88.7 716.4 88.2Q716.4 87.8 716.5 87.3L716.5 87.3Q716.5 87.0 716.5 86.8L716.5 86.8Q716.4 87.1 716.3 87.3L716.3 87.3Q716.2 87.8 716.1 88.3Q715.9 88.8 715.8 89.2Q715.7 89.6 715.6 89.9L715.6 89.9L714.1 94L712.6 94L711.2 89.9Q711.1 89.6 711.0 89.2Q710.8 88.8 710.7 88.3Q710.6 87.8 710.4 87.3L710.4 87.3Q710.4 87.1 710.3 86.9L710.3 86.9Q710.3 87.0 710.3 87.2L710.3 87.2Q710.3 87.7 710.3 88.2Q710.4 88.7 710.4 89.2Q710.4 89.6 710.4 89.9L710.4 89.9L710.4 94ZM721.3 85.3L723.1 85.3L723.1 94L721.3 94L721.3 85.3ZM728.5 86.8L725.8 86.8L725.8 85.3L732.9 85.3L732.9 86.8L730.3 86.8L730.3 94L728.5 94L728.5 86.8ZM738.9 94.1L738.9 94.1Q737.8 94.1 737.0 93.8Q736.3 93.5 735.8 92.9Q735.4 92.2 735.4 91.3L735.4 91.3L737.1 91.3Q737.1 91.7 737.4 92.0Q737.6 92.3 738.0 92.5Q738.4 92.6 738.8 92.6L738.8 92.6Q739.3 92.6 739.7 92.5Q740.0 92.3 740.2 92.1Q740.4 91.8 740.4 91.5L740.4 91.5Q740.4 91.2 740.2 91.0Q740.1 90.8 739.7 90.7Q739.4 90.5 738.9 90.4L738.9 90.4L738.0 90.2Q736.8 89.9 736.2 89.3Q735.6 88.7 735.6 87.8L735.6 87.8Q735.6 87.0 736.0 86.4Q736.4 85.8 737.2 85.5Q737.9 85.2 738.9 85.2L738.9 85.2Q739.8 85.2 740.6 85.5Q741.3 85.8 741.7 86.4Q742.1 87.0 742.1 87.8L742.1 87.8L740.4 87.8Q740.3 87.2 739.9 86.9Q739.5 86.7 738.9 86.7L738.9 86.7Q738.4 86.7 738.1 86.8Q737.8 86.9 737.6 87.1Q737.4 87.4 737.4 87.7L737.4 87.7Q737.4 88.0 737.6 88.2Q737.8 88.4 738.1 88.5Q738.5 88.7 738.8 88.8L738.8 88.8L739.6 89.0Q740.2 89.1 740.6 89.3Q741.1 89.5 741.5 89.8Q741.8 90.1 742.0 90.5Q742.2 91.0 742.2 91.5L742.2 91.5Q742.2 92.3 741.8 92.9Q741.4 93.5 740.7 93.8Q739.9 94.1 738.9 94.1Z "/></g></svg>