<!-- Generated by readme-aura https://github.com/collectioneur/readme-aura -->
<svg width="130" height="44" viewBox="0 0 130 44" xmlns="http://www.w3.org/2000/svg"><mask id="satori_om-id"><rect x="0" y="0" width="130" height="44" fill="#fff"/></mask><path x="0" y="0" width="130" height="44" fill="#000000" d="M22,0 h86 a22,22 0 0 1 22,22 v0 a22,22 0 0 1 -22,22 h-86 a22,22 0 0 1 -22,-22 v0 a22,22 0 0 1 22,-22"/><clipPath id="satori_cp-id-0"><rect x="0" y="0" width="130" height="44"/></clipPath><mask id="satori_om-id-0"><rect x="0" y="0" width="130" height="44" fill="#fff"/></mask><svg x="0" y="0" width="130" height="44" preserveAspectRatio="none" clip-path="url(#satori_cp-id-0)" mask="url(#satori_om-id-0)"><defs><linearGradient id="smb-grad-Email" gradientUnits="objectBoundingBox" x1="0" y1="0" x2="1" y2="1"><stop offset="0%" stop-color="#d855f7"></stop><stop offset="30%" stop-color="#000000"></stop><stop offset="60%" stop-color="#b557e8"></stop><stop offset="80%" stop-color="#000000"></stop><stop offset="100%" stop-color="#cc6ef9"></stop><animateTransform attributeName="gradientTransform" type="rotate" from="0 0.5 0.5" to="360 0.5 0.5" dur="8s" repeatCount="indefinite"></animateTransform></linearGradient></defs><rect x="1.25" y="1.25" width="127.5" height="41.5" rx="20.75" ry="20.75" fill="none" stroke="url(#smb-grad-Email)" stroke-width="2" stroke-linecap="round" stroke-linejoin="round"></rect><rect x="0.25" y="0.25" width="129.5" height="43.5" rx="21.75" ry="21.75" fill="none" stroke="#AAAAAA" stroke-width="0.5" stroke-linecap="round" stroke-linejoin="round"></rect></svg><mask id="satori_om-id-0-0"><rect x="0" y="0" width="0" height="44" fill="#fff"/></mask><mask id="satori_om-id-0-0-0"><rect x="0" y="0" width="0" height="44" fill="#fff"/></mask><mask id="satori_om-id-0-0-0-0"><rect x="0" y="0" width="0" height="44" fill="#fff"/></mask><mask id="satori_om-id-0-0-0-1"><rect x="0" y="0" width="0" height="44" fill="#fff"/></mask><mask id="satori_om-id-0-0-0-2"><rect x="0" y="0" width="0" height="44" fill="#fff"/></mask><mask id="satori_om-id-0-0-0-3"><rect x="0" y="0" width="0" height="44" fill="#fff"/></mask><mask id="satori_om-id-0-0-0-4"><rect x="0" y="0" width="0" height="44" fill="#fff"/></mask><mask id="satori_om-id-0-0-0-5"><rect x="0" y="0" width="0" height="44" fill="#fff"/></mask><mask id="satori_om-id-0-1"><rect x="0" y="0" width="0" height="44" fill="#fff"/></mask><mask id="satori_om-id-0-2"><rect x="0" y="0" width="0" height="44" fill="#fff"/></mask><mask id="satori_om-id-1"><rect x="0" y="0" width="130" height="44" fill="#fff"/></mask><mask id="satori_om-id-1-0"><rect x="37" y="13" width="18" height="18" fill="#fff"/></mask><mask id="satori_om-id-1-1"><rect x="60" y="14" width="34" height="16" fill="#fff"/></mask><g  ><path fill="#f5f5f5" d="M67.2 27L60.9 27L60.9 17.5L67.2 17.5L67.2 19.1L62.8 19.1L62.8 21.4L66.9 21.4L66.9 23.0L62.8 23.0L62.8 25.4L67.2 25.4L67.2 27ZM70.4 27L68.5 27L68.5 19.9L70.3 19.9L70.3 21.3Q70.5 20.9 70.7 20.6L70.7 20.6Q71.0 20.2 71.5 20.0Q71.9 19.8 72.4 19.8L72.4 19.8Q73.1 19.8 73.6 20.3L73.6 20.3Q74.0 20.7 74.2 21.4L74.2 21.4Q74.4 21.0 74.6 20.7L74.6 20.7Q75.0 20.2 75.5 20.0Q75.9 19.8 76.5 19.8L76.5 19.8Q77.1 19.8 77.6 20.1Q78.2 20.4 78.5 20.9Q78.7 21.4 78.7 22.2L78.7 22.2L78.7 27L76.8 27L76.8 22.6Q76.8 22.0 76.5 21.7Q76.2 21.4 75.7 21.4L75.7 21.4Q75.4 21.4 75.1 21.5Q74.8 21.7 74.7 22.0Q74.5 22.3 74.5 22.6L74.5 22.6L74.5 27L72.7 27L72.7 22.5Q72.7 22.0 72.4 21.7Q72.1 21.4 71.6 21.4L71.6 21.4Q71.3 21.4 71.0 21.5Q70.7 21.7 70.6 22.0Q70.4 22.3 70.4 22.7L70.4 22.7L70.4 27ZM82.2 27.1L82.2 27.1Q81.5 27.1 80.9 26.9Q80.4 26.7 80.1 26.2Q79.8 25.7 79.8 25.0L79.8 25.0Q79.8 24.4 80.0 24.0Q80.2 23.6 80.6 23.4Q81.0 23.1 81.5 23.0Q81.9 22.9 82.5 22.8L82.5 22.8Q83.1 22.8 83.5 22.7Q83.8 22.7 84.0 22.5Q84.2 22.4 84.2 22.2L84.2 22.2L84.2 22.2Q84.2 21.9 84.1 21.7Q83.9 21.4 83.7 21.3Q83.4 21.2 83.1 21.2L83.1 21.2Q82.7 21.2 82.4 21.3Q82.2 21.4 82.0 21.6Q81.8 21.8 81.7 22.0L81.7 22.0L80.0 21.8Q80.2 21.1 80.6 20.7Q81.0 20.3 81.7 20.0Q82.3 19.8 83.1 19.8L83.1 19.8Q83.7 19.8 84.2 20.0Q84.7 20.1 85.2 20.4Q85.6 20.7 85.8 21.1Q86.1 21.6 86.1 22.2L86.1 22.2L86.1 27L84.3 27L84.3 26.0L84.2 26.0Q84.1 26.3 83.8 26.6Q83.5 26.8 83.1 27.0Q82.7 27.1 82.2 27.1ZM82.7 25.8L82.7 25.8Q83.1 25.8 83.5 25.6Q83.8 25.4 84.0 25.1Q84.2 24.8 84.2 24.5L84.2 24.5L84.2 23.7Q84.1 23.8 83.9 23.8Q83.8 23.9 83.6 23.9Q83.4 23.9 83.2 24.0Q83.0 24.0 82.8 24.0L82.8 24.0Q82.4 24.1 82.2 24.2Q81.9 24.3 81.8 24.5Q81.6 24.7 81.6 25.0L81.6 25.0Q81.6 25.2 81.8 25.4Q81.9 25.6 82.1 25.7Q82.4 25.8 82.7 25.8ZM89.4 27L87.5 27L87.5 19.9L89.4 19.9L89.4 27ZM88.5 19.0L88.5 19.0Q88.0 19.0 87.7 18.7Q87.4 18.4 87.4 18.0L87.4 18.0Q87.4 17.6 87.7 17.3Q88.0 17.0 88.5 17.0L88.5 17.0Q88.9 17.0 89.2 17.3Q89.5 17.6 89.5 18.0L89.5 18.0Q89.5 18.4 89.2 18.7Q88.9 19.0 88.5 19.0ZM90.8 17.5L92.7 17.5L92.7 27L90.8 27L90.8 17.5Z "/></g></svg>