<!-- Generated by readme-aura https://github.com/collectioneur/readme-aura -->
<svg width="860" height="140" viewBox="0 0 860 140" xmlns="http://www.w3.org/2000/svg"><defs><clipPath id="satori_bc-id"><path x="0" y="0" width="860" height="140" d="M16,0 h828 a16,16 0 0 1 16,16 v108 a16,16 0 0 1 -16,16 h-828 a16,16 0 0 1 -16,-16 v-108 a16,16 0 0 1 16,-16"/></clipPath></defs><clipPath id="satori_cp-id"><path x="0" y="0" width="860" height="140" d="M16,0 h828 a16,16 0 0 1 16,16 v108 a16,16 0 0 1 -16,16 h-828 a16,16 0 0 1 -16,-16 v-108 a16,16 0 0 1 16,-16"/></clipPath><mask id="satori_om-id"><rect x="1" y="1" width="858" height="138" fill="#fff"/><path width="860" height="140" fill="none" stroke="#000" stroke-width="2" d="M4.686,4.686 A16,16 0 0 1 16,0 h828 a16,16 0 0 1 16,16 v108 a16,16 0 0 1 -16,16 h-828 a16,16 0 0 1 -16,-16 v-108 A16,16 0 0 1 4.686,4.686"/></mask><path x="0" y="0" width="860" height="140" fill="#08080c" d="M16,0 h828 a16,16 0 0 1 16,16 v108 a16,16 0 0 1 -16,16 h-828 a16,16 0 0 1 -16,-16 v-108 a16,16 0 0 1 16,-16"/><path width="860" height="140" clip-path="url(#satori_bc-id)" fill="none" stroke="rgba(110,80,220,0.18)" stroke-width="2" d="M4.686,4.686 A16,16 0 0 1 16,0 h828 a16,16 0 0 1 16,16 v108 a16,16 0 0 1 -16,16 h-828 a16,16 0 0 1 -16,-16 v-108 A16,16 0 0 1 4.686,4.686"/><clipPath id="satori_cp-id-0" clip-path="url(#satori_cp-id)"><rect x="1" y="1" width="860" height="140"/></clipPath><mask id="satori_om-id-0"><rect x="1" y="1" width="860" height="140" fill="#fff" mask="url(#satori_om-id)"/></mask><svg x="1" y="1" width="860" height="140" preserveAspectRatio="none" clip-path="url(#satori_cp-id-0)" mask="url(#satori_om-id-0)"><defs><radialGradient id="g1" cx="50%" cy="50%" r="50%"><stop offset="0%" stop-color="rgba(110,20,210,0.65)"></stop><stop offset="45%" stop-color="rgba(80,15,170,0.28)"></stop><stop offset="70%" stop-color="rgba(80,15,170,0)"></stop></radialGradient><radialGradient id="g2" cx="50%" cy="50%" r="50%"><stop offset="0%" stop-color="rgba(40,70,255,0.55)"></stop><stop offset="45%" stop-color="rgba(20,50,200,0.22)"></stop><stop offset="70%" stop-color="rgba(20,50,200,0)"></stop></radialGradient><radialGradient id="g3" cx="50%" cy="50%" r="50%"><stop offset="0%" stop-color="rgba(0,140,255,0.42)"></stop><stop offset="70%" stop-color="rgba(0,140,255,0)"></stop></radialGradient><radialGradient id="g4" cx="50%" cy="50%" r="50%"><stop offset="0%" stop-color="rgba(0,195,235,0.30)"></stop><stop offset="70%" stop-color="rgba(0,195,235,0)"></stop></radialGradient><radialGradient id="g5" cx="50%" cy="50%" r="50%"><stop offset="0%" stop-color="rgba(100,30,210,0.40)"></stop><stop offset="70%" stop-color="rgba(100,30,210,0)"></stop></radialGradient></defs><ellipse id="glow-1" cx="710" cy="150" rx="210" ry="150" fill="url(#g1)"></ellipse><ellipse id="glow-2" cx="550" cy="140" rx="190" ry="140" fill="url(#g2)"></ellipse><ellipse id="glow-3" cx="400" cy="130" rx="170" ry="130" fill="url(#g3)"></ellipse><ellipse id="glow-4" cx="250" cy="140" rx="150" ry="120" fill="url(#g4)"></ellipse><ellipse id="glow-5" cx="100" cy="150" rx="130" ry="110" fill="url(#g5)"></ellipse><style>

         @keyframes float-slow {
           0%, 100% { transform: translateX(0px); opacity: 0.8; }
           50% { transform: translateX(350px); opacity: 1.2; }
         }
         @keyframes float-medium {
           0%, 100% { transform: translateX(0px); opacity: 0.7; }
           50% { transform: translateX(-250px); opacity: 1.1; }
         }
         @keyframes float-fast {
           0%, 100% { transform: translateX(0px); opacity: 0.9; }
           50% { transform: translateX(200px); opacity: 0.6; }
         }
         @keyframes float-diagonal {
           0%, 100% { transform: translate(0px, 0px); opacity: 0.75; }
           50% { transform: translate(120px, 30px); opacity: 1.0; }
         }
         @keyframes float-wave {
           0%, 100% { transform: translateX(0px); opacity: 0.65; }
           33% { transform: translateX(-160px); opacity: 0.9; }
           66% { transform: translateX(80px); opacity: 1.0; }
         }
         @keyframes float-pulse {
           0%, 100% { transform: scale(1); opacity: 0.8; }
           50% { transform: scale(1.3); opacity: 0.4; }
         }
         #glow-1 { animation: float-slow 8s ease-in-out infinite; }
         #glow-2 { animation: float-medium 12s ease-in-out infinite; }
         #glow-3 { animation: float-fast 9s ease-in-out infinite; }
         #glow-4 { animation: float-diagonal 10s ease-in-out infinite; }
         #glow-5 { animation: float-wave 14s ease-in-out infinite; }
       
</style>
</svg><mask id="satori_om-id-0-0"><rect x="1" y="1" width="0" height="140" fill="#fff" mask="url(#satori_om-id)"/></mask><mask id="satori_om-id-0-0-0"><rect x="1" y="1" width="0" height="140" fill="#fff" mask="url(#satori_om-id)"/></mask><mask id="satori_om-id-0-0-0-0"><rect x="1" y="1" width="0" height="140" fill="#fff" mask="url(#satori_om-id)"/></mask><mask id="satori_om-id-0-0-0-1"><rect x="1" y="1" width="0" height="140" fill="#fff" mask="url(#satori_om-id)"/></mask><mask id="satori_om-id-0-0-0-2"><rect x="1" y="1" width="0" height="140" fill="#fff" mask="url(#satori_om-id)"/></mask><mask id="satori_om-id-0-0-1"><rect x="1" y="1" width="0" height="140" fill="#fff" mask="url(#satori_om-id)"/></mask><mask id="satori_om-id-0-0-1-0"><rect x="1" y="1" width="0" height="140" fill="#fff" mask="url(#satori_om-id)"/></mask><mask id="satori_om-id-0-0-1-1"><rect x="1" y="1" width="0" height="140" fill="#fff" mask="url(#satori_om-id)"/></mask><mask id="satori_om-id-0-0-1-2"><rect x="1" y="1" width="0" height="140" fill="#fff" mask="url(#satori_om-id)"/></mask><mask id="satori_om-id-0-0-2"><rect x="1" y="1" width="0" height="140" fill="#fff" mask="url(#satori_om-id)"/></mask><mask id="satori_om-id-0-0-2-0"><rect x="1" y="1" width="0" height="140" fill="#fff" mask="url(#satori_om-id)"/></mask><mask id="satori_om-id-0-0-2-1"><rect x="1" y="1" width="0" height="140" fill="#fff" mask="url(#satori_om-id)"/></mask><mask id="satori_om-id-0-0-3"><rect x="1" y="1" width="0" height="140" fill="#fff" mask="url(#satori_om-id)"/></mask><mask id="satori_om-id-0-0-3-0"><rect x="1" y="1" width="0" height="140" fill="#fff" mask="url(#satori_om-id)"/></mask><mask id="satori_om-id-0-0-3-1"><rect x="1" y="1" width="0" height="140" fill="#fff" mask="url(#satori_om-id)"/></mask><mask id="satori_om-id-0-0-4"><rect x="1" y="1" width="0" height="140" fill="#fff" mask="url(#satori_om-id)"/></mask><mask id="satori_om-id-0-0-4-0"><rect x="1" y="1" width="0" height="140" fill="#fff" mask="url(#satori_om-id)"/></mask><mask id="satori_om-id-0-0-4-1"><rect x="1" y="1" width="0" height="140" fill="#fff" mask="url(#satori_om-id)"/></mask><mask id="satori_om-id-0-1"><rect x="1" y="1" width="0" height="140" fill="#fff" mask="url(#satori_om-id)"/></mask><mask id="satori_om-id-0-2"><rect x="1" y="1" width="0" height="140" fill="#fff" mask="url(#satori_om-id)"/></mask><mask id="satori_om-id-0-3"><rect x="1" y="1" width="0" height="140" fill="#fff" mask="url(#satori_om-id)"/></mask><mask id="satori_om-id-0-4"><rect x="1" y="1" width="0" height="140" fill="#fff" mask="url(#satori_om-id)"/></mask><mask id="satori_om-id-0-5"><rect x="1" y="1" width="0" height="140" fill="#fff" mask="url(#satori_om-id)"/></mask><defs><clipPath id="satori_bc-id-1" clip-path="url(#satori_cp-id)"><rect x="1" y="24" width="275" height="93"/></clipPath></defs><mask id="satori_om-id-1"><rect x="1" y="24" width="274" height="93" fill="#fff" mask="url(#satori_om-id)"/><path width="275" height="93" fill="none" stroke="#000" stroke-width="2" d="M276,24 A0,0 0 0 1 276,24 v93 A0,0 0 0 1 276,117"/></mask><path width="275" height="93" clip-path="url(#satori_bc-id-1)" fill="none" stroke="rgba(255,255,255,0.06)" stroke-width="2" d="M276,24 A0,0 0 0 1 276,24 v93 A0,0 0 0 1 276,117"/><mask id="satori_om-id-1-0"><rect x="118" y="44" width="41" height="32" fill="#fff" mask="url(#satori_om-id)"/></mask><g mask="url(#satori_om-id)" clip-path="url(#satori_cp-id)"><path fill="#a78bfa" d="M136.4 72L119.9 72L119.9 68.6L128.2 60.8Q129.3 59.8 130.0 59.0Q130.7 58.1 131.1 57.3Q131.5 56.5 131.5 55.6L131.5 55.6Q131.5 54.5 131 53.8Q130.5 53.0 129.7 52.6Q128.9 52.2 127.9 52.2L127.9 52.2Q126.8 52.2 126.0 52.7Q125.2 53.1 124.7 53.9Q124.3 54.7 124.3 55.9L124.3 55.9L119.7 55.9Q119.7 53.6 120.8 51.9Q121.8 50.2 123.6 49.3Q125.5 48.4 127.9 48.4L127.9 48.4Q130.4 48.4 132.2 49.3Q134.0 50.2 135.1 51.7Q136.1 53.3 136.1 55.3L136.1 55.3Q136.1 56.6 135.6 57.8Q135.1 59.1 133.8 60.7Q132.5 62.3 130.1 64.4L130.1 64.4L126.6 67.9L126.6 68.1L136.4 68.1L136.4 72ZM148.0 72.3L148.0 72.3Q145.6 72.3 143.7 71.4Q141.8 70.5 140.8 69Q139.7 67.5 139.6 65.5L139.6 65.5L144.3 65.5Q144.3 66.4 144.8 67.1Q145.3 67.8 146.2 68.1Q147.0 68.5 148.0 68.5L148.0 68.5Q149.1 68.5 150.0 68.0Q150.9 67.5 151.5 66.5Q152.0 65.6 152.0 64.4L152.0 64.4Q152.0 63.1 151.4 62.2Q150.9 61.2 150.0 60.7Q149.1 60.2 147.9 60.2L147.9 60.2Q146.8 60.2 145.9 60.6Q144.9 61.0 144.4 61.7L144.4 61.7L140.1 60.9L141.2 48.7L155.3 48.7L155.3 52.7L145.2 52.7L144.6 58.5L144.7 58.5Q145.3 57.7 146.6 57.2Q147.8 56.6 149.3 56.6L149.3 56.6Q150.9 56.6 152.2 57.2Q153.5 57.7 154.5 58.8Q155.5 59.8 156.0 61.2Q156.6 62.6 156.6 64.3L156.6 64.3Q156.6 66.6 155.5 68.4Q154.4 70.2 152.5 71.3Q150.5 72.3 148.0 72.3Z "/></g><mask id="satori_om-id-1-1"><rect x="114" y="82" width="48" height="15" fill="#fff" mask="url(#satori_om-id)"/></mask><g mask="url(#satori_om-id)" clip-path="url(#satori_cp-id)"><path fill="rgba(200,195,225,0.45)" d="M116.6 94L114.8 94L114.8 85.3L118.2 85.3Q119.2 85.3 119.9 85.6Q120.6 86.0 121.0 86.6Q121.3 87.3 121.3 88.1Q121.3 89.0 120.9 89.6Q120.6 90.2 119.9 90.5L119.9 90.5Q119.8 90.6 119.8 90.6L119.8 90.6L121.6 94L119.6 94L118.0 90.9L116.6 90.9L116.6 94ZM116.6 86.7L116.6 89.4L117.9 89.4Q118.4 89.4 118.8 89.3Q119.1 89.1 119.3 88.8Q119.5 88.5 119.5 88.1L119.5 88.1Q119.5 87.7 119.3 87.4Q119.1 87.1 118.8 86.9Q118.4 86.7 117.9 86.7L117.9 86.7L116.6 86.7ZM130.0 94L124.2 94L124.2 85.3L130.0 85.3L130.0 86.8L126.0 86.8L126.0 88.9L129.7 88.9L129.7 90.3L126.0 90.3L126.0 92.5L130.0 92.5L130.0 94ZM134.7 94L133.0 94L133.0 85.3L136.4 85.3Q137.4 85.3 138.1 85.6Q138.8 86.0 139.1 86.7Q139.5 87.4 139.5 88.2L139.5 88.2Q139.5 89.1 139.1 89.7Q138.7 90.4 138.0 90.8Q137.3 91.1 136.3 91.1L136.3 91.1L134.7 91.1L134.7 94ZM134.7 86.7L134.7 89.7L136.0 89.7Q136.6 89.7 136.9 89.5Q137.3 89.3 137.5 89.0Q137.6 88.7 137.6 88.2Q137.6 87.8 137.5 87.4Q137.3 87.1 136.9 86.9Q136.6 86.7 136.0 86.7L136.0 86.7L134.7 86.7ZM146.1 94.1L146.1 94.1Q144.9 94.1 144.0 93.6Q143.1 93.1 142.5 92.1Q142.0 91.1 142.0 89.6L142.0 89.6Q142.0 88.2 142.5 87.2Q143.1 86.2 144.0 85.7Q144.9 85.2 146.1 85.2L146.1 85.2Q147.2 85.2 148.1 85.7Q149.1 86.2 149.6 87.2Q150.1 88.2 150.1 89.6L150.1 89.6Q150.1 91.1 149.6 92.1Q149.1 93.1 148.1 93.6Q147.2 94.1 146.1 94.1ZM146.1 92.5L146.1 92.5Q146.7 92.5 147.3 92.2Q147.8 91.9 148.0 91.2Q148.3 90.6 148.3 89.6L148.3 89.6Q148.3 88.7 148.0 88.0Q147.8 87.4 147.3 87.1Q146.7 86.7 146.1 86.7L146.1 86.7Q145.4 86.7 144.9 87.1Q144.4 87.4 144.1 88.1Q143.8 88.7 143.8 89.6L143.8 89.6Q143.8 90.6 144.1 91.2Q144.4 91.9 144.9 92.2Q145.4 92.5 146.1 92.5ZM156.2 94.1L156.2 94.1Q155.1 94.1 154.4 93.8Q153.6 93.5 153.1 92.9Q152.7 92.2 152.7 91.3L152.7 91.3L154.4 91.3Q154.5 91.7 154.7 92.0Q154.9 92.3 155.3 92.5Q155.7 92.6 156.2 92.6L156.2 92.6Q156.6 92.6 157.0 92.5Q157.4 92.3 157.6 92.1Q157.8 91.8 157.8 91.5L157.8 91.5Q157.8 91.2 157.6 91.0Q157.4 90.8 157.1 90.7Q156.7 90.5 156.2 90.4L156.2 90.4L155.3 90.2Q154.2 89.9 153.6 89.3Q152.9 88.7 152.9 87.8L152.9 87.8Q152.9 87.0 153.3 86.4Q153.8 85.8 154.5 85.5Q155.3 85.2 156.2 85.2L156.2 85.2Q157.2 85.2 157.9 85.5Q158.6 85.8 159.0 86.4Q159.4 87.0 159.4 87.8L159.4 87.8L157.7 87.8Q157.7 87.2 157.3 86.9Q156.9 86.7 156.2 86.7L156.2 86.7Q155.7 86.7 155.4 86.8Q155.1 86.9 154.9 87.1Q154.8 87.4 154.8 87.7L154.8 87.7Q154.8 88.0 155.0 88.2Q155.1 88.4 155.5 88.5Q155.8 88.7 156.2 88.8L156.2 88.8L156.9 89.0Q157.5 89.1 158.0 89.3Q158.4 89.5 158.8 89.8Q159.2 90.1 159.4 90.5Q159.6 91.0 159.6 91.5L159.6 91.5Q159.6 92.3 159.2 92.9Q158.8 93.5 158.0 93.8Q157.2 94.1 156.2 94.1Z "/></g><defs><clipPath id="satori_bc-id-2" clip-path="url(#satori_cp-id)"><rect x="276" y="24" width="283" height="93"/></clipPath></defs><mask id="satori_om-id-2"><rect x="276" y="24" width="282" height="93" fill="#fff" mask="url(#satori_om-id)"/><path width="283" height="93" fill="none" stroke="#000" stroke-width="2" d="M559,24 A0,0 0 0 1 559,24 v93 A0,0 0 0 1 559,117"/></mask><path width="283" height="93" clip-path="url(#satori_bc-id-2)" fill="none" stroke="rgba(255,255,255,0.06)" stroke-width="2" d="M559,24 A0,0 0 0 1 559,24 v93 A0,0 0 0 1 559,117"/><mask id="satori_om-id-2-0"><rect x="389" y="44" width="55" height="32" fill="#fff" mask="url(#satori_om-id)"/></mask><g mask="url(#satori_om-id)" clip-path="url(#satori_cp-id)"><path fill="#60a5fa" d="M395.6 48.7L400.7 48.7L400.7 72L395.9 72L395.9 52.9L395.8 52.9L390.5 56.7L390.5 52.3L395.6 48.7ZM421.2 72L404.7 72L404.7 68.6L413.0 60.8Q414.0 59.8 414.8 59.0Q415.5 58.1 415.9 57.3Q416.3 56.5 416.3 55.6L416.3 55.6Q416.3 54.5 415.8 53.8Q415.3 53.0 414.5 52.6Q413.7 52.2 412.7 52.2L412.7 52.2Q411.6 52.2 410.8 52.7Q410.0 53.1 409.5 53.9Q409.1 54.7 409.1 55.9L409.1 55.9L404.5 55.9Q404.5 53.6 405.6 51.9Q406.6 50.2 408.4 49.3Q410.3 48.4 412.7 48.4L412.7 48.4Q415.2 48.4 417 49.3Q418.8 50.2 419.9 51.7Q420.9 53.3 420.9 55.3L420.9 55.3Q420.9 56.6 420.4 57.8Q419.9 59.1 418.6 60.7Q417.3 62.3 414.9 64.4L414.9 64.4L411.4 67.9L411.4 68.1L421.2 68.1L421.2 72ZM433.4 72.3L433.4 72.3Q430.8 72.3 428.7 71.5Q426.7 70.6 425.6 69.1Q424.4 67.6 424.4 65.8L424.4 65.8Q424.4 64.3 425.1 63.1Q425.8 61.8 426.9 61.0Q428.0 60.2 429.4 60.0L429.4 60.0L429.4 59.8Q427.6 59.4 426.4 58Q425.3 56.6 425.3 54.7L425.3 54.7Q425.3 52.9 426.3 51.4Q427.4 50.0 429.2 49.2Q431.0 48.4 433.4 48.4L433.4 48.4Q435.7 48.4 437.5 49.2Q439.4 50.0 440.4 51.4Q441.5 52.9 441.5 54.7L441.5 54.7Q441.5 56.6 440.3 58Q439.1 59.4 437.3 59.8L437.3 59.8L437.3 60.0Q438.7 60.2 439.8 61.0Q441.0 61.8 441.6 63.1Q442.3 64.3 442.3 65.8L442.3 65.8Q442.3 67.6 441.2 69.1Q440.0 70.6 438.0 71.5Q436.0 72.3 433.4 72.3ZM433.4 68.8L433.4 68.8Q434.6 68.8 435.5 68.4Q436.3 67.9 436.8 67.1Q437.3 66.4 437.3 65.4L437.3 65.4Q437.3 64.3 436.8 63.6Q436.3 62.8 435.4 62.3Q434.5 61.8 433.4 61.8L433.4 61.8Q432.2 61.8 431.3 62.3Q430.4 62.8 429.9 63.5Q429.4 64.3 429.4 65.4L429.4 65.4Q429.4 66.4 429.9 67.1Q430.4 67.9 431.3 68.3Q432.2 68.8 433.4 68.8ZM433.4 58.3L433.4 58.3Q434.4 58.3 435.1 57.9Q435.9 57.5 436.4 56.8Q436.8 56.1 436.8 55.2L436.8 55.2Q436.8 54.2 436.4 53.5Q435.9 52.8 435.1 52.4Q434.4 52.0 433.4 52.0L433.4 52.0Q432.3 52.0 431.6 52.4Q430.8 52.8 430.4 53.5Q429.9 54.2 429.9 55.2L429.9 55.2Q429.9 56.1 430.4 56.8Q430.8 57.5 431.6 57.9Q432.4 58.3 433.4 58.3Z "/></g><mask id="satori_om-id-2-1"><rect x="392" y="82" width="49" height="15" fill="#fff" mask="url(#satori_om-id)"/></mask><g mask="url(#satori_om-id)" clip-path="url(#satori_cp-id)"><path fill="rgba(200,195,225,0.45)" d="M396.0 94.1L396.0 94.1Q394.9 94.1 394.2 93.8Q393.4 93.5 393.0 92.9Q392.5 92.2 392.5 91.3L392.5 91.3L394.2 91.3Q394.3 91.7 394.5 92.0Q394.7 92.3 395.1 92.5Q395.5 92.6 396.0 92.6L396.0 92.6Q396.5 92.6 396.8 92.5Q397.2 92.3 397.4 92.1Q397.6 91.8 397.6 91.5L397.6 91.5Q397.6 91.2 397.4 91.0Q397.2 90.8 396.9 90.7Q396.5 90.5 396.1 90.4L396.1 90.4L395.1 90.2Q394.0 89.9 393.4 89.3Q392.7 88.7 392.7 87.8L392.7 87.8Q392.7 87.0 393.2 86.4Q393.6 85.8 394.3 85.5Q395.1 85.2 396.0 85.2L396.0 85.2Q397.0 85.2 397.7 85.5Q398.4 85.8 398.8 86.4Q399.2 87.0 399.2 87.8L399.2 87.8L397.5 87.8Q397.5 87.2 397.1 86.9Q396.7 86.7 396.0 86.7L396.0 86.7Q395.5 86.7 395.2 86.8Q394.9 86.9 394.7 87.1Q394.6 87.4 394.6 87.7L394.6 87.7Q394.6 88.0 394.8 88.2Q395.0 88.4 395.3 88.5Q395.6 88.7 396.0 88.8L396.0 88.8L396.8 89.0Q397.3 89.1 397.8 89.3Q398.3 89.5 398.6 89.8Q399.0 90.1 399.2 90.5Q399.4 91.0 399.4 91.5L399.4 91.5Q399.4 92.3 399.0 92.9Q398.6 93.5 397.8 93.8Q397.1 94.1 396.0 94.1ZM404.5 86.8L401.8 86.8L401.8 85.3L408.9 85.3L408.9 86.8L406.3 86.8L406.3 94L404.5 94L404.5 86.8ZM413.1 94L411.2 94L414.1 85.3L416.5 85.3L419.5 94L417.6 94L416.9 92.0L413.8 92.0L413.1 94ZM414.2 90.6L416.4 90.6L416.2 89.8Q415.9 89.0 415.6 88L415.6 88Q415.5 87.4 415.3 86.7L415.3 86.7Q415.1 87.4 415.0 88.0L415.0 88.0Q414.7 89.0 414.5 89.8L414.5 89.8L414.2 90.6ZM423.9 94L422.1 94L422.1 85.3L425.5 85.3Q426.5 85.3 427.2 85.6Q427.9 86.0 428.3 86.6Q428.6 87.3 428.6 88.1Q428.6 89.0 428.3 89.6Q427.9 90.2 427.2 90.5L427.2 90.5Q427.1 90.6 427.1 90.6L427.1 90.6L429.0 94L427.0 94L425.3 90.9L423.9 90.9L423.9 94ZM423.9 86.7L423.9 89.4L425.2 89.4Q425.7 89.4 426.1 89.3Q426.4 89.1 426.6 88.8Q426.8 88.5 426.8 88.1L426.8 88.1Q426.8 87.7 426.6 87.4Q426.4 87.1 426.1 86.9Q425.7 86.7 425.2 86.7L425.2 86.7L423.9 86.7ZM434.7 94.1L434.7 94.1Q433.6 94.1 432.9 93.8Q432.1 93.5 431.7 92.9Q431.2 92.2 431.2 91.3L431.2 91.3L432.9 91.3Q433.0 91.7 433.2 92.0Q433.4 92.3 433.8 92.5Q434.2 92.6 434.7 92.6L434.7 92.6Q435.2 92.6 435.5 92.5Q435.9 92.3 436.1 92.1Q436.3 91.8 436.3 91.5L436.3 91.5Q436.3 91.2 436.1 91.0Q435.9 90.8 435.6 90.7Q435.2 90.5 434.8 90.4L434.8 90.4L433.8 90.2Q432.7 89.9 432.1 89.3Q431.4 88.7 431.4 87.8L431.4 87.8Q431.4 87.0 431.9 86.4Q432.3 85.8 433.0 85.5Q433.8 85.2 434.7 85.2L434.7 85.2Q435.7 85.2 436.4 85.5Q437.1 85.8 437.5 86.4Q437.9 87.0 437.9 87.8L437.9 87.8L436.2 87.8Q436.2 87.2 435.8 86.9Q435.4 86.7 434.7 86.7L434.7 86.7Q434.3 86.7 433.9 86.8Q433.6 86.9 433.4 87.1Q433.3 87.4 433.3 87.7L433.3 87.7Q433.3 88.0 433.5 88.2Q433.7 88.4 434.0 88.5Q434.3 88.7 434.7 88.8L434.7 88.8L435.5 89.0Q436.0 89.1 436.5 89.3Q437.0 89.5 437.3 89.8Q437.7 90.1 437.9 90.5Q438.1 91.0 438.1 91.5L438.1 91.5Q438.1 92.3 437.7 92.9Q437.3 93.5 436.5 93.8Q435.8 94.1 434.7 94.1Z "/></g><mask id="satori_om-id-3"><rect x="559" y="24" width="300" height="93" fill="#fff" mask="url(#satori_om-id)"/></mask><mask id="satori_om-id-3-0"><rect x="672" y="44" width="74" height="32" fill="#fff" mask="url(#satori_om-id)"/></mask><g mask="url(#satori_om-id)" clip-path="url(#satori_cp-id)"><path fill="#f59e0b" d="M678.6 48.7L683.7 48.7L683.7 72L678.9 72L678.9 52.9L678.8 52.9L673.5 56.7L673.5 52.3L678.6 48.7ZM695.6 72.3L695.6 72.3Q693.2 72.3 691.4 71.4Q689.5 70.5 688.4 69Q687.3 67.5 687.3 65.5L687.3 65.5L691.9 65.5Q692.0 66.4 692.5 67.1Q693.0 67.8 693.8 68.1Q694.6 68.5 695.6 68.5L695.6 68.5Q696.8 68.5 697.7 68.0Q698.6 67.5 699.1 66.5Q699.6 65.6 699.6 64.4L699.6 64.4Q699.6 63.1 699.1 62.2Q698.6 61.2 697.6 60.7Q696.7 60.2 695.5 60.2L695.5 60.2Q694.5 60.2 693.5 60.6Q692.6 61.0 692.0 61.7L692.0 61.7L687.8 60.9L688.9 48.7L703.0 48.7L703.0 52.7L692.8 52.7L692.2 58.5L692.3 58.5Q693.0 57.7 694.2 57.2Q695.4 56.6 696.9 56.6L696.9 56.6Q698.5 56.6 699.8 57.2Q701.2 57.7 702.2 58.8Q703.1 59.8 703.7 61.2Q704.2 62.6 704.2 64.3L704.2 64.3Q704.2 66.6 703.1 68.4Q702.1 70.2 700.1 71.3Q698.2 72.3 695.6 72.3ZM718.4 67.9L707.3 67.9L707.3 64.1L717.0 48.7L723 48.7L723 64.0L725.9 64.0L725.9 67.9L723 67.9L723 72L718.4 72L718.4 67.9ZM712.1 64.0L718.5 64.0L718.5 54.0L718.3 54.0L712.1 63.8L712.1 64.0ZM735.1 72L730.1 72L739.8 52.8L739.8 52.7L728.5 52.7L728.5 48.7L744.8 48.7L744.8 52.7L735.1 72Z "/></g><mask id="satori_om-id-3-1"><rect x="674" y="82" width="71" height="15" fill="#fff" mask="url(#satori_om-id)"/></mask><g mask="url(#satori_om-id)" clip-path="url(#satori_cp-id)"><path fill="rgba(200,195,225,0.45)" d="M678.6 94.1L678.6 94.1Q677.4 94.1 676.5 93.6Q675.6 93.1 675.1 92.1Q674.6 91.1 674.6 89.6L674.6 89.6Q674.6 88.2 675.1 87.2Q675.6 86.2 676.5 85.7Q677.5 85.2 678.6 85.2L678.6 85.2Q679.3 85.2 680.0 85.4Q680.6 85.6 681.1 86.0Q681.6 86.4 681.9 86.9Q682.3 87.5 682.4 88.3L682.4 88.3L680.6 88.3Q680.5 87.9 680.3 87.6Q680.2 87.3 679.9 87.1Q679.7 86.9 679.3 86.8Q679.0 86.7 678.6 86.7L678.6 86.7Q678.0 86.7 677.4 87.1Q676.9 87.4 676.7 88.1Q676.4 88.7 676.4 89.6L676.4 89.6Q676.4 90.6 676.7 91.2Q676.9 91.9 677.5 92.2Q678.0 92.5 678.6 92.5L678.6 92.5Q679.0 92.5 679.3 92.4Q679.6 92.3 679.9 92.1Q680.2 91.9 680.3 91.7Q680.5 91.4 680.6 91.0L680.6 91.0L682.4 91.0Q682.3 91.6 682.0 92.2Q681.7 92.7 681.2 93.2Q680.8 93.6 680.1 93.9Q679.4 94.1 678.6 94.1ZM689 94.1L689 94.1Q687.8 94.1 686.9 93.6Q686 93.1 685.5 92.1Q684.9 91.1 684.9 89.6L684.9 89.6Q684.9 88.2 685.5 87.2Q686 86.2 686.9 85.7Q687.8 85.2 689 85.2L689 85.2Q690.2 85.2 691.1 85.7Q692 86.2 692.5 87.2Q693.1 88.2 693.1 89.6L693.1 89.6Q693.1 91.1 692.5 92.1Q692 93.1 691.1 93.6Q690.2 94.1 689 94.1ZM689 92.5L689 92.5Q689.7 92.5 690.2 92.2Q690.7 91.9 691.0 91.2Q691.3 90.6 691.3 89.6L691.3 89.6Q691.3 88.7 691.0 88.0Q690.7 87.4 690.2 87.1Q689.7 86.7 689 86.7L689 86.7Q688.3 86.7 687.8 87.1Q687.3 87.4 687.0 88.1Q686.7 88.7 686.7 89.6L686.7 89.6Q686.7 90.6 687.0 91.2Q687.3 91.9 687.8 92.2Q688.3 92.5 689 92.5ZM697.7 94L695.9 94L695.9 85.3L698.7 85.3L700.1 89.3Q700.2 89.6 700.3 90.0Q700.4 90.4 700.5 91.0L700.5 91.0Q700.6 91.5 700.7 91.9L700.7 91.9Q700.8 91.5 700.9 91.0L700.9 91.0Q701.1 90.5 701.2 90.0Q701.3 89.6 701.4 89.3L701.4 89.3L702.8 85.3L705.5 85.3L705.5 94L703.7 94L703.7 89.9Q703.7 89.6 703.7 89.2Q703.7 88.7 703.8 88.2Q703.8 87.8 703.8 87.3L703.8 87.3Q703.8 87.0 703.8 86.8L703.8 86.8Q703.7 87.1 703.7 87.3L703.7 87.3Q703.5 87.8 703.4 88.3Q703.3 88.8 703.1 89.2Q703.0 89.6 702.9 89.9L702.9 89.9L701.5 94L700.0 94L698.5 89.9Q698.4 89.6 698.3 89.2Q698.2 88.8 698.0 88.3Q697.9 87.8 697.7 87.3L697.7 87.3Q697.7 87.1 697.6 86.9L697.6 86.9Q697.6 87.0 697.6 87.2L697.6 87.2Q697.6 87.7 697.7 88.2Q697.7 88.7 697.7 89.2Q697.7 89.6 697.7 89.9L697.7 89.9L697.7 94ZM710.4 94L708.6 94L708.6 85.3L711.3 85.3L712.8 89.3Q712.8 89.6 713.0 90.0Q713.1 90.4 713.2 91.0L713.2 91.0Q713.3 91.5 713.4 91.9L713.4 91.9Q713.5 91.5 713.6 91.0L713.6 91.0Q713.7 90.5 713.8 90.0Q714.0 89.6 714.0 89.3L714.0 89.3L715.4 85.3L718.2 85.3L718.2 94L716.4 94L716.4 89.9Q716.4 89.6 716.4 89.2Q716.4 88.7 716.4 88.2Q716.4 87.8 716.5 87.3L716.5 87.3Q716.5 87.0 716.5 86.8L716.5 86.8Q716.4 87.1 716.3 87.3L716.3 87.3Q716.2 87.8 716.1 88.3Q715.9 88.8 715.8 89.2Q715.7 89.6 715.6 89.9L715.6 89.9L714.1 94L712.6 94L711.2 89.9Q711.1 89.6 711.0 89.2Q710.8 88.8 710.7 88.3Q710.6 87.8 710.4 87.3L710.4 87.3Q710.4 87.1 710.3 86.9L710.3 86.9Q710.3 87.0 710.3 87.2L710.3 87.2Q710.3 87.7 710.3 88.2Q710.4 88.7 710.4 89.2Q710.4 89.6 710.4 89.9L710.4 89.9L710.4 94ZM721.3 85.3L723.1 85.3L723.1 94L721.3 94L721.3 85.3ZM728.5 86.8L725.8 86.8L725.8 85.3L732.9 85.3L732.9 86.8L730.3 86.8L730.3 94L728.5 94L728.5 86.8ZM738.9 94.1L738.9 94.1Q737.8 94.1 737.0 93.8Q736.3 93.5 735.8 92.9Q735.4 92.2 735.4 91.3L735.4 91.3L737.1 91.3Q737.1 91.7 737.4 92.0Q737.6 92.3 738.0 92.5Q738.4 92.6 738.8 92.6L738.8 92.6Q739.3 92.6 739.7 92.5Q740.0 92.3 740.2 92.1Q740.4 91.8 740.4 91.5L740.4 91.5Q740.4 91.2 740.2 91.0Q740.1 90.8 739.7 90.7Q739.4 90.5 738.9 90.4L738.9 90.4L738.0 90.2Q736.8 89.9 736.2 89.3Q735.6 88.7 735.6 87.8L735.6 87.8Q735.6 87.0 736.0 86.4Q736.4 85.8 737.2 85.5Q737.9 85.2 738.9 85.2L738.9 85.2Q739.8 85.2 740.6 85.5Q741.3 85.8 741.7 86.4Q742.1 87.0 742.1 87.8L742.1 87.8L740.4 87.8Q740.3 87.2 739.9 86.9Q739.5 86.7 738.9 86.7L738.9 86.7Q738.4 86.7 738.1 86.8Q737.8 86.9 737.6 87.1Q737.4 87.4 737.4 87.7L737.4 87.7Q737.4 88.0 737.6 88.2Q737.8 88.4 738.1 88.5Q738.5 88.7 738.8 88.8L738.8 88.8L739.6 89.0Q740.2 89.1 740.6 89.3Q741.1 89.5 741.5 89.8Q741.8 90.1 742.0 90.5Q742.2 91.0 742.2 91.5L742.2 91.5Q742.2 92.3 741.8 92.9Q741.4 93.5 740.7 93.8Q739.9 94.1 738.9 94.1Z "/></g></svg>