<!-- Generated by readme-aura https://github.com/collectioneur/readme-aura -->
<svg width="860" height="220" viewBox="0 0 860 220" xmlns="http://www.w3.org/2000/svg"><defs><clipPath id="satori_bc-id"><path x="0" y="0" width="860" height="220" d="M16,0 h828 a16,16 0 0 1 16,16 v188 a16,16 0 0 1 -16,16 h-828 a16,16 0 0 1 -16,-16 v-188 a16,16 0 0 1 16,-16"/></clipPath></defs><clipPath id="satori_cp-id"><path x="0" y="0" width="860" height="220" d="M16,0 h828 a16,16 0 0 1 16,16 v188 a16,16 0 0 1 -16,16 h-828 a16,16 0 0 1 -16,-16 v-188 a16,16 0 0 1 16,-16"/></clipPath><mask id="satori_om-id"><rect x="1" y="1" width="858" height="218" fill="#fff"/><path width="860" height="220" fill="none" stroke="#000" stroke-width="2" d="M4.686,4.686 A16,16 0 0 1 16,0 h828 a16,16 0 0 1 16,16 v188 a16,16 0 0 1 -16,16 h-828 a16,16 0 0 1 -16,-16 v-188 A16,16 0 0 1 4.686,4.686"/></mask><path x="0" y="0" width="860" height="220" fill="#08080c" d="M16,0 h828 a16,16 0 0 1 16,16 v188 a16,16 0 0 1 -16,16 h-828 a16,16 0 0 1 -16,-16 v-188 a16,16 0 0 1 16,-16"/><path width="860" height="220" clip-path="url(#satori_bc-id)" fill="none" stroke="rgba(110,80,220,0.18)" stroke-width="2" d="M4.686,4.686 A16,16 0 0 1 16,0 h828 a16,16 0 0 1 16,16 v188 a16,16 0 0 1 -16,16 h-828 a16,16 0 0 1 -16,-16 v-188 A16,16 0 0 1 4.686,4.686"/><clipPath id="satori_cp-id-0" clip-path="url(#satori_cp-id)"><rect x="1" y="1" width="860" height="220"/></clipPath><mask id="satori_om-id-0"><rect x="1" y="1" width="860" height="220" fill="#fff" mask="url(#satori_om-id)"/></mask><svg x="1" y="1" width="860" height="220" preserveAspectRatio="none" clip-path="url(#satori_cp-id-0)" mask="url(#satori_om-id-0)"><defs><radialGradient id="g1" cx="50%" cy="50%" r="50%"><stop offset="0%" stop-color="rgba(115,20,215,0.68)"></stop><stop offset="42%" stop-color="rgba(85,15,175,0.30)"></stop><stop offset="70%" stop-color="rgba(85,15,175,0)"></stop></radialGradient><radialGradient id="g2" cx="50%" cy="50%" r="50%"><stop offset="0%" stop-color="rgba(55,55,255,0.55)"></stop><stop offset="45%" stop-color="rgba(35,45,210,0.22)"></stop><stop offset="70%" stop-color="rgba(35,45,210,0)"></stop></radialGradient><radialGradient id="g3" cx="50%" cy="50%" r="50%"><stop offset="0%" stop-color="rgba(0,130,255,0.42)"></stop><stop offset="50%" stop-color="rgba(0,100,220,0.16)"></stop><stop offset="70%" stop-color="rgba(0,100,220,0)"></stop></radialGradient><radialGradient id="g4" cx="50%" cy="50%" r="50%"><stop offset="0%" stop-color="rgba(0,185,240,0.32)"></stop><stop offset="70%" stop-color="rgba(0,185,240,0)"></stop></radialGradient><radialGradient id="g5" cx="50%" cy="50%" r="50%"><stop offset="0%" stop-color="rgba(100,25,205,0.42)"></stop><stop offset="70%" stop-color="rgba(100,25,205,0)"></stop></radialGradient><radialGradient id="g6" cx="50%" cy="50%" r="50%"><stop offset="0%" stop-color="rgba(60,80,255,0.35)"></stop><stop offset="70%" stop-color="rgba(60,80,255,0)"></stop></radialGradient></defs><ellipse id="glow-1" cx="170" cy="220" rx="260" ry="190" fill="url(#g1)"></ellipse><ellipse id="glow-2" cx="320" cy="230" rx="220" ry="150" fill="url(#g2)"></ellipse><ellipse id="glow-3" cx="460" cy="230" rx="190" ry="140" fill="url(#g3)"></ellipse><ellipse id="glow-4" cx="590" cy="240" rx="160" ry="120" fill="url(#g4)"></ellipse><ellipse id="glow-5" cx="750" cy="240" rx="140" ry="110" fill="url(#g5)"></ellipse><ellipse id="glow-6" cx="420" cy="190" rx="100" ry="80" fill="url(#g6)"></ellipse><style>

         @keyframes float-slow {
           0%, 100% { transform: translateX(0px); opacity: 0.8; }
           50% { transform: translateX(350px); opacity: 1.2; }
         }
         @keyframes float-medium {
           0%, 100% { transform: translateX(0px); opacity: 0.7; }
           50% { transform: translateX(-250px); opacity: 1.1; }
         }
         @keyframes float-fast {
           0%, 100% { transform: translateX(0px); opacity: 0.9; }
           50% { transform: translateX(200px); opacity: 0.6; }
         }
         @keyframes float-diagonal {
           0%, 100% { transform: translate(0px, 0px); opacity: 0.75; }
           50% { transform: translate(120px, 30px); opacity: 1.0; }
         }
         @keyframes float-wave {
           0%, 100% { transform: translateX(0px); opacity: 0.65; }
           33% { transform: translateX(-160px); opacity: 0.9; }
           66% { transform: translateX(80px); opacity: 1.0; }
         }
         @keyframes float-pulse {
           0%, 100% { transform: scale(1); opacity: 0.8; }
           50% { transform: scale(1.3); opacity: 0.4; }
         }
         #glow-1 { animation: float-slow 9s ease-in-out infinite; }
         #glow-2 { animation: float-medium 12s ease-in-out infinite; }
         #glow-3 { animation: float-fast 8s ease-in-out infinite; }
         #glow-4 { animation: float-diagonal 11s ease-in-out infinite reverse; }
         #glow-5 { animation: float-wave 14s ease-in-out infinite reverse; }
         #glow-6 { animation: float-pulse 6s ease-in-out infinite; }
       
</style>
</svg><mask id="satori_om-id-0-0"><rect x="1" y="1" width="0" height="220" fill="#fff" mask="url(#satori_om-id)"/></mask><mask id="satori_om-id-0-0-0"><rect x="1" y="1" width="0" height="220" fill="#fff" mask="url(#satori_om-id)"/></mask><mask id="satori_om-id-0-0-0-0"><rect x="1" y="1" width="0" height="220" fill="#fff" mask="url(#satori_om-id)"/></mask><mask id="satori_om-id-0-0-0-1"><rect x="1" y="1" width="0" height="220" fill="#fff" mask="url(#satori_om-id)"/></mask><mask id="satori_om-id-0-0-0-2"><rect x="1" y="1" width="0" height="220" fill="#fff" mask="url(#satori_om-id)"/></mask><mask id="satori_om-id-0-0-1"><rect x="1" y="1" width="0" height="220" fill="#fff" mask="url(#satori_om-id)"/></mask><mask id="satori_om-id-0-0-1-0"><rect x="1" y="1" width="0" height="220" fill="#fff" mask="url(#satori_om-id)"/></mask><mask id="satori_om-id-0-0-1-1"><rect x="1" y="1" width="0" height="220" fill="#fff" mask="url(#satori_om-id)"/></mask><mask id="satori_om-id-0-0-1-2"><rect x="1" y="1" width="0" height="220" fill="#fff" mask="url(#satori_om-id)"/></mask><mask id="satori_om-id-0-0-2"><rect x="1" y="1" width="0" height="220" fill="#fff" mask="url(#satori_om-id)"/></mask><mask id="satori_om-id-0-0-2-0"><rect x="1" y="1" width="0" height="220" fill="#fff" mask="url(#satori_om-id)"/></mask><mask id="satori_om-id-0-0-2-1"><rect x="1" y="1" width="0" height="220" fill="#fff" mask="url(#satori_om-id)"/></mask><mask id="satori_om-id-0-0-2-2"><rect x="1" y="1" width="0" height="220" fill="#fff" mask="url(#satori_om-id)"/></mask><mask id="satori_om-id-0-0-3"><rect x="1" y="1" width="0" height="220" fill="#fff" mask="url(#satori_om-id)"/></mask><mask id="satori_om-id-0-0-3-0"><rect x="1" y="1" width="0" height="220" fill="#fff" mask="url(#satori_om-id)"/></mask><mask id="satori_om-id-0-0-3-1"><rect x="1" y="1" width="0" height="220" fill="#fff" mask="url(#satori_om-id)"/></mask><mask id="satori_om-id-0-0-4"><rect x="1" y="1" width="0" height="220" fill="#fff" mask="url(#satori_om-id)"/></mask><mask id="satori_om-id-0-0-4-0"><rect x="1" y="1" width="0" height="220" fill="#fff" mask="url(#satori_om-id)"/></mask><mask id="satori_om-id-0-0-4-1"><rect x="1" y="1" width="0" height="220" fill="#fff" mask="url(#satori_om-id)"/></mask><mask id="satori_om-id-0-0-5"><rect x="1" y="1" width="0" height="220" fill="#fff" mask="url(#satori_om-id)"/></mask><mask id="satori_om-id-0-0-5-0"><rect x="1" y="1" width="0" height="220" fill="#fff" mask="url(#satori_om-id)"/></mask><mask id="satori_om-id-0-0-5-1"><rect x="1" y="1" width="0" height="220" fill="#fff" mask="url(#satori_om-id)"/></mask><mask id="satori_om-id-0-1"><rect x="1" y="1" width="0" height="220" fill="#fff" mask="url(#satori_om-id)"/></mask><mask id="satori_om-id-0-2"><rect x="1" y="1" width="0" height="220" fill="#fff" mask="url(#satori_om-id)"/></mask><mask id="satori_om-id-0-3"><rect x="1" y="1" width="0" height="220" fill="#fff" mask="url(#satori_om-id)"/></mask><mask id="satori_om-id-0-4"><rect x="1" y="1" width="0" height="220" fill="#fff" mask="url(#satori_om-id)"/></mask><mask id="satori_om-id-0-5"><rect x="1" y="1" width="0" height="220" fill="#fff" mask="url(#satori_om-id)"/></mask><mask id="satori_om-id-0-6"><rect x="1" y="1" width="0" height="220" fill="#fff" mask="url(#satori_om-id)"/></mask><mask id="satori_om-id-1"><rect x="33" y="21" width="794" height="12" fill="#fff" mask="url(#satori_om-id)"/></mask><g mask="url(#satori_om-id)" clip-path="url(#satori_cp-id)"><path fill="rgba(155,140,210,0.5)" d="M35.6 25.0L33.4 25.0L33.4 23.7L39.3 23.7L39.3 25.0L37.1 25.0L37.1 31L35.6 31L35.6 25.0ZM48.2 31L43.3 31L43.3 23.7L48.2 23.7L48.2 25.0L44.8 25.0L44.8 26.7L47.9 26.7L47.9 27.9L44.8 27.9L44.8 29.8L48.2 29.8L48.2 31ZM55.6 31.1L55.6 31.1Q54.6 31.1 53.9 30.7Q53.1 30.2 52.6 29.4Q52.2 28.5 52.2 27.4L52.2 27.4Q52.2 26.2 52.7 25.3Q53.1 24.5 53.9 24.1Q54.6 23.6 55.6 23.6L55.6 23.6Q56.2 23.6 56.7 23.8Q57.3 24.0 57.7 24.3Q58.1 24.6 58.4 25.1Q58.6 25.6 58.7 26.2L58.7 26.2L57.2 26.2Q57.2 25.9 57.0 25.7Q56.9 25.4 56.7 25.3Q56.5 25.1 56.2 25.0Q55.9 25.0 55.6 25.0L55.6 25.0Q55.0 25.0 54.6 25.2Q54.2 25.5 54.0 26.1Q53.7 26.6 53.7 27.4L53.7 27.4Q53.7 28.2 54.0 28.7Q54.2 29.2 54.6 29.5Q55.0 29.8 55.6 29.8L55.6 29.8Q55.9 29.8 56.2 29.7Q56.5 29.6 56.7 29.4Q56.9 29.3 57.0 29.0Q57.2 28.8 57.2 28.5L57.2 28.5L58.7 28.5Q58.7 29.0 58.4 29.5Q58.2 29.9 57.8 30.3Q57.4 30.7 56.8 30.9Q56.3 31.1 55.6 31.1ZM64.3 31L62.8 31L62.8 23.7L64.3 23.7L64.3 26.7L67.5 26.7L67.5 23.7L69.0 23.7L69.0 31L67.5 31L67.5 27.9L64.3 27.9L64.3 31Z M81.3 31.1L81.3 31.1Q80.4 31.1 79.8 30.8Q79.1 30.6 78.8 30.0Q78.4 29.5 78.4 28.7L78.4 28.7L79.9 28.7Q79.9 29.1 80.1 29.4Q80.3 29.6 80.6 29.7Q80.9 29.8 81.3 29.8L81.3 29.8Q81.7 29.8 82.0 29.7Q82.3 29.6 82.5 29.4Q82.6 29.2 82.6 28.9L82.6 28.9Q82.6 28.7 82.5 28.5Q82.3 28.3 82.0 28.2Q81.8 28.1 81.4 28.0L81.4 28.0L80.6 27.8Q79.6 27.6 79.1 27.1Q78.6 26.6 78.6 25.8L78.6 25.8Q78.6 25.2 78.9 24.7Q79.3 24.2 79.9 23.9Q80.5 23.6 81.3 23.6L81.3 23.6Q82.1 23.6 82.7 23.9Q83.3 24.2 83.7 24.7Q84.0 25.2 84.0 25.8L84.0 25.8L82.6 25.8Q82.5 25.4 82.2 25.1Q81.9 24.9 81.3 24.9L81.3 24.9Q80.9 24.9 80.7 25.0Q80.4 25.1 80.3 25.3Q80.1 25.5 80.1 25.7L80.1 25.7Q80.1 26.0 80.3 26.2Q80.4 26.3 80.7 26.5Q81.0 26.6 81.3 26.6L81.3 26.6L81.9 26.8Q82.4 26.9 82.8 27.1Q83.2 27.3 83.5 27.5Q83.8 27.8 84.0 28.1Q84.1 28.5 84.1 28.9L84.1 28.9Q84.1 29.6 83.8 30.1Q83.5 30.6 82.8 30.8Q82.2 31.1 81.3 31.1ZM90.1 25.0L87.9 25.0L87.9 23.7L93.8 23.7L93.8 25.0L91.6 25.0L91.6 31L90.1 31L90.1 25.0ZM99.1 31L97.4 31L99.9 23.7L101.9 23.7L104.4 31L102.8 31L102.2 29.3L99.6 29.3L99.1 31ZM100.0 28.1L101.8 28.1L101.6 27.5Q101.4 26.8 101.2 26L101.2 26Q101.0 25.5 100.9 24.9L100.9 24.9Q100.7 25.5 100.6 26.0L100.6 26.0Q100.4 26.8 100.2 27.5L100.2 27.5L100.0 28.1ZM111.5 31.1L111.5 31.1Q110.5 31.1 109.8 30.7Q109.0 30.2 108.6 29.4Q108.1 28.5 108.1 27.4L108.1 27.4Q108.1 26.2 108.6 25.3Q109.0 24.5 109.8 24.1Q110.6 23.6 111.5 23.6L111.5 23.6Q112.1 23.6 112.7 23.8Q113.2 24.0 113.6 24.3Q114.0 24.6 114.3 25.1Q114.6 25.6 114.6 26.2L114.6 26.2L113.1 26.2Q113.1 25.9 112.9 25.7Q112.8 25.4 112.6 25.3Q112.4 25.1 112.1 25.0Q111.9 25.0 111.5 25.0L111.5 25.0Q111.0 25.0 110.5 25.2Q110.1 25.5 109.9 26.1Q109.6 26.6 109.6 27.4L109.6 27.4Q109.6 28.2 109.9 28.7Q110.1 29.2 110.5 29.5Q111.0 29.8 111.5 29.8L111.5 29.8Q111.8 29.8 112.1 29.7Q112.4 29.6 112.6 29.4Q112.8 29.3 112.9 29.0Q113.1 28.8 113.1 28.5L113.1 28.5L114.6 28.5Q114.6 29.0 114.3 29.5Q114.1 29.9 113.7 30.3Q113.3 30.7 112.8 30.9Q112.2 31.1 111.5 31.1ZM120.2 31L118.7 31L118.7 23.7L120.2 23.7L120.2 25.7L120.2 27.4Q120.2 27.3 120.3 27.3L120.3 27.3Q120.5 26.9 120.7 26.6Q121.0 26.2 121.3 25.8L121.3 25.8L123.1 23.7L124.9 23.7L122.2 26.9L125.0 31L123.3 31L121.2 27.9L120.2 28.9L120.2 31Z "/></g><mask id="satori_om-id-2"><rect x="33" y="49" width="794" height="104" fill="#fff" mask="url(#satori_om-id)"/></mask><mask id="satori_om-id-2-0"><rect x="33" y="49" width="794" height="28" fill="#fff" mask="url(#satori_om-id)"/></mask><defs><clipPath id="satori_bc-id-2-0-0" clip-path="url(#satori_cp-id)"><path x="33" y="49" width="72" height="28" d="M39,49 h60 a6,6 0 0 1 6,6 v16 a6,6 0 0 1 -6,6 h-60 a6,6 0 0 1 -6,-6 v-16 a6,6 0 0 1 6,-6"/></clipPath></defs><mask id="satori_om-id-2-0-0"><rect x="34" y="50" width="70" height="26" fill="#fff" mask="url(#satori_om-id)"/><path width="72" height="28" fill="none" stroke="#000" stroke-width="2" d="M34.757,50.757 A6,6 0 0 1 39,49 h60 a6,6 0 0 1 6,6 v16 a6,6 0 0 1 -6,6 h-60 a6,6 0 0 1 -6,-6 v-16 A6,6 0 0 1 34.757,50.757"/></mask><path x="33" y="49" width="72" height="28" fill="rgba(167,139,250,0.15)" d="M39,49 h60 a6,6 0 0 1 6,6 v16 a6,6 0 0 1 -6,6 h-60 a6,6 0 0 1 -6,-6 v-16 a6,6 0 0 1 6,-6" clip-path="url(#satori_cp-id)" mask="url(#satori_om-id)"/><path width="72" height="28" clip-path="url(#satori_bc-id-2-0-0)" fill="none" stroke="rgba(167,139,250,0.35)" stroke-width="2" d="M34.757,50.757 A6,6 0 0 1 39,49 h60 a6,6 0 0 1 6,6 v16 a6,6 0 0 1 -6,6 h-60 a6,6 0 0 1 -6,-6 v-16 A6,6 0 0 1 34.757,50.757"/><g mask="url(#satori_om-id)" clip-path="url(#satori_cp-id)"><path fill="rgba(225,220,255,0.85)" d="M50.6 67L48.8 67L48.8 58.3L52.2 58.3Q53.2 58.3 53.9 58.6Q54.6 59.0 55.0 59.7Q55.3 60.4 55.3 61.2L55.3 61.2Q55.3 62.1 54.9 62.7Q54.6 63.4 53.9 63.8Q53.2 64.1 52.2 64.1L52.2 64.1L50.6 64.1L50.6 67ZM50.6 59.7L50.6 62.7L51.9 62.7Q52.4 62.7 52.8 62.5Q53.1 62.3 53.3 62.0Q53.5 61.7 53.5 61.2Q53.5 60.8 53.3 60.4Q53.1 60.1 52.8 59.9Q52.4 59.7 51.9 59.7L51.9 59.7L50.6 59.7ZM56.5 69.3L56.5 69.3L56.9 68.0L57.1 68.0Q57.5 68.1 57.7 68.1Q58.0 68.1 58.2 67.9Q58.3 67.7 58.4 67.4L58.4 67.4L58.4 67.0L56.0 60.4L57.8 60.4L58.9 63.8Q59.1 64.5 59.3 65.1L59.3 65.1Q59.3 65.4 59.3 65.6L59.3 65.6Q59.4 65.4 59.4 65.1L59.4 65.1Q59.6 64.5 59.8 63.8L59.8 63.8L61.0 60.4L62.8 60.4L60.0 67.8Q59.8 68.3 59.5 68.7Q59.2 69.1 58.7 69.3Q58.3 69.5 57.6 69.5L57.6 69.5Q57.3 69.5 57.0 69.4Q56.7 69.4 56.5 69.3ZM65.8 60.4L67.0 60.4L67.0 61.8L65.8 61.8L65.8 65.1Q65.8 65.4 65.9 65.5Q66.1 65.7 66.4 65.7L66.4 65.7Q66.5 65.7 66.7 65.7Q66.8 65.6 66.9 65.6L66.9 65.6L67.2 66.9Q66.9 67.0 66.6 67.1Q66.3 67.1 66.0 67.1L66.0 67.1Q65.1 67.1 64.5 66.6Q64.0 66.1 64.0 65.2L64.0 65.2L64.0 61.8L63.1 61.8L63.1 60.4L64.0 60.4L64.0 58.9L65.8 58.9L65.8 60.4ZM69.9 63.2L69.9 63.2L69.9 67L68.1 67L68.1 58.3L69.9 58.3L69.9 61.7Q70.1 61.2 70.5 60.8L70.5 60.8Q71.0 60.4 71.9 60.4L71.9 60.4Q72.5 60.4 73.1 60.7Q73.6 61.0 73.8 61.5Q74.1 62.1 74.1 62.8L74.1 62.8L74.1 67L72.4 67L72.4 63.1Q72.4 62.5 72.0 62.2Q71.7 61.8 71.2 61.8L71.2 61.8Q70.8 61.8 70.5 62.0Q70.2 62.2 70.1 62.5Q69.9 62.8 69.9 63.2ZM78.5 67.1L78.5 67.1Q77.6 67.1 76.8 66.7Q76.1 66.3 75.7 65.5Q75.3 64.8 75.3 63.8L75.3 63.8Q75.3 62.7 75.7 62.0Q76.1 61.2 76.8 60.8Q77.6 60.4 78.5 60.4L78.5 60.4Q79.5 60.4 80.3 60.8Q81.0 61.2 81.4 62.0Q81.8 62.7 81.8 63.8L81.8 63.8Q81.8 64.8 81.4 65.5Q81.0 66.3 80.3 66.7Q79.5 67.1 78.5 67.1ZM78.5 65.7L78.5 65.7Q79.0 65.7 79.3 65.5Q79.6 65.2 79.8 64.8Q80.0 64.3 80.0 63.7L80.0 63.7Q80.0 63.2 79.8 62.7Q79.6 62.3 79.3 62.0Q79.0 61.8 78.5 61.8L78.5 61.8Q78.1 61.8 77.8 62.0Q77.4 62.3 77.3 62.7Q77.1 63.2 77.1 63.7L77.1 63.7Q77.1 64.3 77.3 64.8Q77.4 65.2 77.8 65.5Q78.1 65.7 78.5 65.7ZM84.7 63.2L84.7 63.2L84.7 67L83.0 67L83.0 60.4L84.6 60.4L84.7 61.8Q84.9 61.2 85.3 60.8L85.3 60.8Q85.9 60.4 86.7 60.4L86.7 60.4Q87.4 60.4 87.9 60.7Q88.4 61.0 88.7 61.5Q88.9 62.1 88.9 62.8L88.9 62.8L88.9 67L87.2 67L87.2 63.1Q87.2 62.5 86.9 62.2Q86.6 61.8 86.0 61.8L86.0 61.8Q85.6 61.8 85.3 62.0Q85.1 62.2 84.9 62.5Q84.7 62.8 84.7 63.2Z "/></g><defs><clipPath id="satori_bc-id-2-0-1" clip-path="url(#satori_cp-id)"><path x="113" y="49" width="39" height="28" d="M119,49 h27 a6,6 0 0 1 6,6 v16 a6,6 0 0 1 -6,6 h-27 a6,6 0 0 1 -6,-6 v-16 a6,6 0 0 1 6,-6"/></clipPath></defs><mask id="satori_om-id-2-0-1"><rect x="114" y="50" width="37" height="26" fill="#fff" mask="url(#satori_om-id)"/><path width="39" height="28" fill="none" stroke="#000" stroke-width="2" d="M114.757,50.757 A6,6 0 0 1 119,49 h27 a6,6 0 0 1 6,6 v16 a6,6 0 0 1 -6,6 h-27 a6,6 0 0 1 -6,-6 v-16 A6,6 0 0 1 114.757,50.757"/></mask><path x="113" y="49" width="39" height="28" fill="rgba(167,139,250,0.15)" d="M119,49 h27 a6,6 0 0 1 6,6 v16 a6,6 0 0 1 -6,6 h-27 a6,6 0 0 1 -6,-6 v-16 a6,6 0 0 1 6,-6" clip-path="url(#satori_cp-id)" mask="url(#satori_om-id)"/><path width="39" height="28" clip-path="url(#satori_bc-id-2-0-1)" fill="none" stroke="rgba(167,139,250,0.35)" stroke-width="2" d="M114.757,50.757 A6,6 0 0 1 119,49 h27 a6,6 0 0 1 6,6 v16 a6,6 0 0 1 -6,6 h-27 a6,6 0 0 1 -6,-6 v-16 A6,6 0 0 1 114.757,50.757"/><g mask="url(#satori_om-id)" clip-path="url(#satori_cp-id)"><path fill="rgba(225,220,255,0.85)" d="M132.6 67.1L132.6 67.1Q131.4 67.1 130.5 66.6Q129.6 66.1 129.1 65.1Q128.6 64.1 128.6 62.6L128.6 62.6Q128.6 61.2 129.1 60.2Q129.6 59.2 130.5 58.7Q131.5 58.2 132.6 58.2L132.6 58.2Q133.3 58.2 134.0 58.4Q134.6 58.6 135.1 59.0Q135.6 59.4 135.9 59.9Q136.3 60.5 136.4 61.3L136.4 61.3L134.6 61.3Q134.5 60.9 134.3 60.6Q134.2 60.3 133.9 60.1Q133.7 59.9 133.3 59.8Q133.0 59.7 132.6 59.7L132.6 59.7Q132.0 59.7 131.4 60.1Q130.9 60.4 130.7 61.1Q130.4 61.7 130.4 62.6L130.4 62.6Q130.4 63.6 130.7 64.2Q130.9 64.9 131.5 65.2Q132.0 65.5 132.6 65.5L132.6 65.5Q133.0 65.5 133.3 65.4Q133.6 65.3 133.9 65.1Q134.2 64.9 134.3 64.7Q134.5 64.4 134.6 64.0L134.6 64.0L136.4 64.0Q136.3 64.6 136.0 65.2Q135.7 65.7 135.2 66.2Q134.8 66.6 134.1 66.9Q133.4 67.1 132.6 67.1Z "/></g><defs><clipPath id="satori_bc-id-2-0-2" clip-path="url(#satori_cp-id)"><path x="160" y="49" width="59" height="28" d="M166,49 h47 a6,6 0 0 1 6,6 v16 a6,6 0 0 1 -6,6 h-47 a6,6 0 0 1 -6,-6 v-16 a6,6 0 0 1 6,-6"/></clipPath></defs><mask id="satori_om-id-2-0-2"><rect x="161" y="50" width="57" height="26" fill="#fff" mask="url(#satori_om-id)"/><path width="59" height="28" fill="none" stroke="#000" stroke-width="2" d="M161.757,50.757 A6,6 0 0 1 166,49 h47 a6,6 0 0 1 6,6 v16 a6,6 0 0 1 -6,6 h-47 a6,6 0 0 1 -6,-6 v-16 A6,6 0 0 1 161.757,50.757"/></mask><path x="160" y="49" width="59" height="28" fill="rgba(167,139,250,0.15)" d="M166,49 h47 a6,6 0 0 1 6,6 v16 a6,6 0 0 1 -6,6 h-47 a6,6 0 0 1 -6,-6 v-16 a6,6 0 0 1 6,-6" clip-path="url(#satori_cp-id)" mask="url(#satori_om-id)"/><path width="59" height="28" clip-path="url(#satori_bc-id-2-0-2)" fill="none" stroke="rgba(167,139,250,0.35)" stroke-width="2" d="M161.757,50.757 A6,6 0 0 1 166,49 h47 a6,6 0 0 1 6,6 v16 a6,6 0 0 1 -6,6 h-47 a6,6 0 0 1 -6,-6 v-16 A6,6 0 0 1 161.757,50.757"/><g mask="url(#satori_om-id)" clip-path="url(#satori_cp-id)"><path fill="rgba(225,220,255,0.85)" d="M178.3 67.1L178.3 67.1Q177.0 67.1 176.2 66.4Q175.4 65.7 175.4 64.4L175.4 64.4L175.4 63.9L177.2 63.9L177.2 64.4Q177.2 65.0 177.5 65.4Q177.8 65.7 178.3 65.7L178.3 65.7Q178.8 65.7 179.1 65.4Q179.5 65.0 179.5 64.4L179.5 64.4L179.5 58.3L181.2 58.3L181.2 64.4Q181.2 65.7 180.4 66.4Q179.7 67.1 178.3 67.1ZM184.6 67.1L184.6 67.1Q184.0 67.1 183.5 66.9Q183.0 66.7 182.7 66.3Q182.4 65.8 182.4 65.2L182.4 65.2Q182.4 64.6 182.6 64.3Q182.8 63.9 183.2 63.7Q183.5 63.4 184.0 63.3Q184.4 63.2 184.9 63.2L184.9 63.2Q185.5 63.1 185.8 63.0Q186.2 63.0 186.3 62.9Q186.5 62.8 186.5 62.6L186.5 62.6L186.5 62.5Q186.5 62.3 186.4 62.1Q186.2 61.9 186.0 61.8Q185.8 61.7 185.4 61.7L185.4 61.7Q185.1 61.7 184.9 61.8Q184.6 61.9 184.4 62.0Q184.3 62.2 184.2 62.4L184.2 62.4L182.6 62.2Q182.8 61.6 183.2 61.2Q183.6 60.8 184.1 60.6Q184.7 60.4 185.5 60.4L185.5 60.4Q186.0 60.4 186.5 60.5Q187.0 60.6 187.4 60.9Q187.8 61.1 188.0 61.6Q188.2 62.0 188.2 62.6L188.2 62.6L188.2 67L186.6 67L186.6 66.1L186.5 66.1Q186.3 66.4 186.1 66.6Q185.8 66.9 185.5 67.0Q185.1 67.1 184.6 67.1ZM185.1 65.9L185.1 65.9Q185.5 65.9 185.8 65.7Q186.1 65.6 186.3 65.3Q186.5 65.0 186.5 64.7L186.5 64.7L186.5 63.9Q186.4 64.0 186.3 64.1Q186.1 64.1 185.9 64.1Q185.7 64.2 185.5 64.2Q185.3 64.2 185.2 64.2L185.2 64.2Q184.9 64.3 184.6 64.4Q184.4 64.5 184.2 64.7Q184.1 64.8 184.1 65.1L184.1 65.1Q184.1 65.4 184.2 65.5Q184.4 65.7 184.6 65.8Q184.8 65.9 185.1 65.9ZM193.6 67L191.6 67L189.2 60.4L191.0 60.4L192.1 63.8Q192.3 64.5 192.5 65.1L192.5 65.1Q192.5 65.4 192.6 65.6L192.6 65.6Q192.7 65.4 192.7 65.1L192.7 65.1Q192.9 64.5 193.1 63.8L193.1 63.8L194.1 60.4L196.0 60.4L193.6 67ZM198.8 67.1L198.8 67.1Q198.1 67.1 197.6 66.9Q197.1 66.7 196.9 66.3Q196.6 65.8 196.6 65.2L196.6 65.2Q196.6 64.6 196.8 64.3Q197.0 63.9 197.3 63.7Q197.7 63.4 198.1 63.3Q198.6 63.2 199.0 63.2L199.0 63.2Q199.6 63.1 200.0 63.0Q200.3 63.0 200.5 62.9Q200.6 62.8 200.6 62.6L200.6 62.6L200.6 62.5Q200.6 62.3 200.5 62.1Q200.4 61.9 200.2 61.8Q199.9 61.7 199.6 61.7L199.6 61.7Q199.3 61.7 199.0 61.8Q198.8 61.9 198.6 62.0Q198.4 62.2 198.4 62.4L198.4 62.4L196.8 62.2Q196.9 61.6 197.3 61.2Q197.7 60.8 198.3 60.6Q198.9 60.4 199.6 60.4L199.6 60.4Q200.1 60.4 200.6 60.5Q201.1 60.6 201.5 60.9Q201.9 61.1 202.2 61.6Q202.4 62.0 202.4 62.6L202.4 62.6L202.4 67L200.7 67L200.7 66.1L200.7 66.1Q200.5 66.4 200.2 66.6Q200.0 66.9 199.6 67.0Q199.2 67.1 198.8 67.1ZM199.3 65.9L199.3 65.9Q199.7 65.9 200.0 65.7Q200.3 65.6 200.5 65.3Q200.6 65.0 200.6 64.7L200.6 64.7L200.6 63.9Q200.6 64.0 200.4 64.1Q200.3 64.1 200.1 64.1Q199.9 64.2 199.7 64.2Q199.5 64.2 199.3 64.2L199.3 64.2Q199.0 64.3 198.8 64.4Q198.5 64.5 198.4 64.7Q198.3 64.8 198.3 65.1L198.3 65.1Q198.3 65.4 198.4 65.5Q198.5 65.7 198.7 65.8Q199.0 65.9 199.3 65.9Z "/></g><defs><clipPath id="satori_bc-id-2-0-3" clip-path="url(#satori_cp-id)"><path x="227" y="49" width="94" height="28" d="M233,49 h82 a6,6 0 0 1 6,6 v16 a6,6 0 0 1 -6,6 h-82 a6,6 0 0 1 -6,-6 v-16 a6,6 0 0 1 6,-6"/></clipPath></defs><mask id="satori_om-id-2-0-3"><rect x="228" y="50" width="92" height="26" fill="#fff" mask="url(#satori_om-id)"/><path width="94" height="28" fill="none" stroke="#000" stroke-width="2" d="M228.757,50.757 A6,6 0 0 1 233,49 h82 a6,6 0 0 1 6,6 v16 a6,6 0 0 1 -6,6 h-82 a6,6 0 0 1 -6,-6 v-16 A6,6 0 0 1 228.757,50.757"/></mask><path x="227" y="49" width="94" height="28" fill="rgba(167,139,250,0.15)" d="M233,49 h82 a6,6 0 0 1 6,6 v16 a6,6 0 0 1 -6,6 h-82 a6,6 0 0 1 -6,-6 v-16 a6,6 0 0 1 6,-6" clip-path="url(#satori_cp-id)" mask="url(#satori_om-id)"/><path width="94" height="28" clip-path="url(#satori_bc-id-2-0-3)" fill="none" stroke="rgba(167,139,250,0.35)" stroke-width="2" d="M228.757,50.757 A6,6 0 0 1 233,49 h82 a6,6 0 0 1 6,6 v16 a6,6 0 0 1 -6,6 h-82 a6,6 0 0 1 -6,-6 v-16 A6,6 0 0 1 228.757,50.757"/><g mask="url(#satori_om-id)" clip-path="url(#satori_cp-id)"><path fill="rgba(225,220,255,0.85)" d="M245.3 67.1L245.3 67.1Q244.0 67.1 243.2 66.4Q242.4 65.7 242.4 64.4L242.4 64.4L242.4 63.9L244.2 63.9L244.2 64.4Q244.2 65.0 244.5 65.4Q244.8 65.7 245.3 65.7L245.3 65.7Q245.8 65.7 246.1 65.4Q246.5 65.0 246.5 64.4L246.5 64.4L246.5 58.3L248.2 58.3L248.2 64.4Q248.2 65.7 247.4 66.4Q246.7 67.1 245.3 67.1ZM251.6 67.1L251.6 67.1Q251.0 67.1 250.5 66.9Q250.0 66.7 249.7 66.3Q249.4 65.8 249.4 65.2L249.4 65.2Q249.4 64.6 249.6 64.3Q249.8 63.9 250.2 63.7Q250.5 63.4 251.0 63.3Q251.4 63.2 251.9 63.2L251.9 63.2Q252.5 63.1 252.8 63.0Q253.2 63.0 253.3 62.9Q253.5 62.8 253.5 62.6L253.5 62.6L253.5 62.5Q253.5 62.3 253.4 62.1Q253.2 61.9 253.0 61.8Q252.8 61.7 252.4 61.7L252.4 61.7Q252.1 61.7 251.9 61.8Q251.6 61.9 251.4 62.0Q251.3 62.2 251.2 62.4L251.2 62.4L249.6 62.2Q249.8 61.6 250.2 61.2Q250.6 60.8 251.1 60.6Q251.7 60.4 252.5 60.4L252.5 60.4Q253.0 60.4 253.5 60.5Q254.0 60.6 254.4 60.9Q254.8 61.1 255.0 61.6Q255.2 62.0 255.2 62.6L255.2 62.6L255.2 67L253.6 67L253.6 66.1L253.5 66.1Q253.3 66.4 253.1 66.6Q252.8 66.9 252.5 67.0Q252.1 67.1 251.6 67.1ZM252.1 65.9L252.1 65.9Q252.5 65.9 252.8 65.7Q253.1 65.6 253.3 65.3Q253.5 65.0 253.5 64.7L253.5 64.7L253.5 63.9Q253.4 64.0 253.3 64.1Q253.1 64.1 252.9 64.1Q252.7 64.2 252.5 64.2Q252.3 64.2 252.2 64.2L252.2 64.2Q251.9 64.3 251.6 64.4Q251.4 64.5 251.2 64.7Q251.1 64.8 251.1 65.1L251.1 65.1Q251.1 65.4 251.2 65.5Q251.4 65.7 251.6 65.8Q251.8 65.9 252.1 65.9ZM260.6 67L258.6 67L256.2 60.4L258.0 60.4L259.1 63.8Q259.3 64.5 259.5 65.1L259.5 65.1Q259.5 65.4 259.6 65.6L259.6 65.6Q259.7 65.4 259.7 65.1L259.7 65.1Q259.9 64.5 260.1 63.8L260.1 63.8L261.1 60.4L263.0 60.4L260.6 67ZM265.8 67.1L265.8 67.1Q265.1 67.1 264.6 66.9Q264.1 66.7 263.9 66.3Q263.6 65.8 263.6 65.2L263.6 65.2Q263.6 64.6 263.8 64.3Q264.0 63.9 264.3 63.7Q264.7 63.4 265.1 63.3Q265.6 63.2 266.0 63.2L266.0 63.2Q266.6 63.1 267.0 63.0Q267.3 63.0 267.5 62.9Q267.6 62.8 267.6 62.6L267.6 62.6L267.6 62.5Q267.6 62.3 267.5 62.1Q267.4 61.9 267.2 61.8Q266.9 61.7 266.6 61.7L266.6 61.7Q266.3 61.7 266.0 61.8Q265.8 61.9 265.6 62.0Q265.4 62.2 265.4 62.4L265.4 62.4L263.8 62.2Q263.9 61.6 264.3 61.2Q264.7 60.8 265.3 60.6Q265.9 60.4 266.6 60.4L266.6 60.4Q267.1 60.4 267.6 60.5Q268.1 60.6 268.5 60.9Q268.9 61.1 269.2 61.6Q269.4 62.0 269.4 62.6L269.4 62.6L269.4 67L267.7 67L267.7 66.1L267.7 66.1Q267.5 66.4 267.2 66.6Q267.0 66.9 266.6 67.0Q266.2 67.1 265.8 67.1ZM266.3 65.9L266.3 65.9Q266.7 65.9 267.0 65.7Q267.3 65.6 267.5 65.3Q267.6 65.0 267.6 64.7L267.6 64.7L267.6 63.9Q267.6 64.0 267.4 64.1Q267.3 64.1 267.1 64.1Q266.9 64.2 266.7 64.2Q266.5 64.2 266.3 64.2L266.3 64.2Q266.0 64.3 265.8 64.4Q265.5 64.5 265.4 64.7Q265.3 64.8 265.3 65.1L265.3 65.1Q265.3 65.4 265.4 65.5Q265.5 65.7 265.7 65.8Q266.0 65.9 266.3 65.9ZM274.1 67.1L274.1 67.1Q273.1 67.1 272.3 66.8Q271.5 66.5 271.1 65.9Q270.7 65.2 270.6 64.3L270.6 64.3L272.4 64.3Q272.4 64.7 272.6 65.0Q272.9 65.3 273.3 65.5Q273.6 65.6 274.1 65.6L274.1 65.6Q274.6 65.6 275.0 65.5Q275.3 65.3 275.5 65.1Q275.7 64.8 275.7 64.5L275.7 64.5Q275.7 64.2 275.5 64.0Q275.3 63.8 275.0 63.7Q274.7 63.5 274.2 63.4L274.2 63.4L273.2 63.2Q272.1 62.9 271.5 62.3Q270.9 61.7 270.9 60.8L270.9 60.8Q270.9 60.0 271.3 59.4Q271.7 58.8 272.5 58.5Q273.2 58.2 274.2 58.2L274.2 58.2Q275.1 58.2 275.8 58.5Q276.6 58.8 277.0 59.4Q277.4 60.0 277.4 60.8L277.4 60.8L275.7 60.8Q275.6 60.2 275.2 59.9Q274.8 59.7 274.1 59.7L274.1 59.7Q273.7 59.7 273.4 59.8Q273.0 59.9 272.9 60.1Q272.7 60.4 272.7 60.7L272.7 60.7Q272.7 61.0 272.9 61.2Q273.1 61.4 273.4 61.5Q273.7 61.7 274.1 61.8L274.1 61.8L274.9 62.0Q275.4 62.1 275.9 62.3Q276.4 62.5 276.8 62.8Q277.1 63.1 277.3 63.5Q277.5 64.0 277.5 64.5L277.5 64.5Q277.5 65.3 277.1 65.9Q276.7 66.5 275.9 66.8Q275.2 67.1 274.1 67.1ZM281.7 67.1L281.7 67.1Q280.7 67.1 280.0 66.7Q279.3 66.3 278.9 65.5Q278.5 64.8 278.5 63.8L278.5 63.8Q278.5 62.7 278.9 62.0Q279.3 61.2 280.0 60.8Q280.7 60.4 281.7 60.4L281.7 60.4Q282.3 60.4 282.8 60.5Q283.2 60.7 283.6 61.0Q284.0 61.2 284.3 61.6Q284.5 62.0 284.6 62.5L284.6 62.5L283.0 62.9Q282.9 62.6 282.8 62.4Q282.7 62.2 282.5 62.0Q282.4 61.9 282.2 61.8Q281.9 61.8 281.7 61.8L281.7 61.8Q281.2 61.8 280.9 62.0Q280.6 62.3 280.4 62.7Q280.3 63.2 280.3 63.7L280.3 63.7Q280.3 64.3 280.4 64.8Q280.6 65.2 280.9 65.5Q281.2 65.7 281.7 65.7L281.7 65.7Q281.9 65.7 282.2 65.7Q282.4 65.6 282.5 65.4Q282.7 65.3 282.8 65.1Q282.9 64.9 283.0 64.6L283.0 64.6L284.6 64.9Q284.5 65.4 284.3 65.8Q284.0 66.2 283.6 66.5Q283.3 66.8 282.8 67.0Q282.3 67.1 281.7 67.1ZM287.6 67L285.8 67L285.8 60.4L287.5 60.4L287.5 61.6L287.6 61.6Q287.8 61.0 288.2 60.7Q288.6 60.4 289.2 60.4L289.2 60.4Q289.3 60.4 289.5 60.4Q289.6 60.4 289.7 60.4L289.7 60.4L289.7 62.0Q289.6 61.9 289.4 61.9Q289.2 61.9 289.0 61.9L289.0 61.9Q288.6 61.9 288.2 62.1Q287.9 62.2 287.7 62.6Q287.6 62.9 287.6 63.3L287.6 63.3L287.6 67ZM292.5 67L290.7 67L290.7 60.4L292.5 60.4L292.5 67ZM291.6 59.6L291.6 59.6Q291.2 59.6 290.9 59.3Q290.6 59.1 290.6 58.7L290.6 58.7Q290.6 58.3 290.9 58.1Q291.2 57.8 291.6 57.8L291.6 57.8Q292.0 57.8 292.3 58.0Q292.5 58.3 292.5 58.7L292.5 58.7Q292.5 59.1 292.3 59.3Q292.0 59.6 291.6 59.6ZM295.7 69.4L293.9 69.4L293.9 60.4L295.7 60.4L295.7 61.6L295.8 61.6Q295.9 61.3 296.1 61.0Q296.3 60.7 296.7 60.6Q297.1 60.4 297.6 60.4L297.6 60.4Q298.4 60.4 299.0 60.7Q299.6 61.1 299.9 61.9Q300.3 62.6 300.3 63.7L300.3 63.7Q300.3 64.8 299.9 65.6Q299.6 66.3 299.0 66.7Q298.4 67.1 297.6 67.1L297.6 67.1Q297.1 67.1 296.7 66.9Q296.3 66.7 296.1 66.5Q295.9 66.2 295.8 66.0L295.8 66.0L295.7 66.0L295.7 69.4ZM297.1 65.7L297.1 65.7Q297.5 65.7 297.8 65.4Q298.2 65.2 298.3 64.8Q298.5 64.3 298.5 63.7L298.5 63.7Q298.5 63.2 298.3 62.7Q298.2 62.3 297.9 62.0Q297.5 61.8 297.1 61.8L297.1 61.8Q296.6 61.8 296.3 62.0Q296.0 62.3 295.8 62.7Q295.7 63.1 295.7 63.7L295.7 63.7Q295.7 64.3 295.8 64.8Q296 65.2 296.3 65.5Q296.6 65.7 297.1 65.7ZM303.5 60.4L304.8 60.4L304.8 61.8L303.5 61.8L303.5 65.1Q303.5 65.4 303.7 65.5Q303.8 65.7 304.1 65.7L304.1 65.7Q304.2 65.7 304.4 65.7Q304.6 65.6 304.7 65.6L304.7 65.6L304.9 66.9Q304.7 67.0 304.4 67.1Q304.1 67.1 303.8 67.1L303.8 67.1Q302.8 67.1 302.3 66.6Q301.8 66.1 301.8 65.2L301.8 65.2L301.8 61.8L300.9 61.8L300.9 60.4L301.8 60.4L301.8 58.9L303.5 58.9L303.5 60.4Z "/></g><defs><clipPath id="satori_bc-id-2-0-4" clip-path="url(#satori_cp-id)"><path x="329" y="49" width="38" height="28" d="M335,49 h26 a6,6 0 0 1 6,6 v16 a6,6 0 0 1 -6,6 h-26 a6,6 0 0 1 -6,-6 v-16 a6,6 0 0 1 6,-6"/></clipPath></defs><mask id="satori_om-id-2-0-4"><rect x="330" y="50" width="36" height="26" fill="#fff" mask="url(#satori_om-id)"/><path width="38" height="28" fill="none" stroke="#000" stroke-width="2" d="M330.757,50.757 A6,6 0 0 1 335,49 h26 a6,6 0 0 1 6,6 v16 a6,6 0 0 1 -6,6 h-26 a6,6 0 0 1 -6,-6 v-16 A6,6 0 0 1 330.757,50.757"/></mask><path x="329" y="49" width="38" height="28" fill="rgba(167,139,250,0.15)" d="M335,49 h26 a6,6 0 0 1 6,6 v16 a6,6 0 0 1 -6,6 h-26 a6,6 0 0 1 -6,-6 v-16 a6,6 0 0 1 6,-6" clip-path="url(#satori_cp-id)" mask="url(#satori_om-id)"/><path width="38" height="28" clip-path="url(#satori_bc-id-2-0-4)" fill="none" stroke="rgba(167,139,250,0.35)" stroke-width="2" d="M330.757,50.757 A6,6 0 0 1 335,49 h26 a6,6 0 0 1 6,6 v16 a6,6 0 0 1 -6,6 h-26 a6,6 0 0 1 -6,-6 v-16 A6,6 0 0 1 330.757,50.757"/><g mask="url(#satori_om-id)" clip-path="url(#satori_cp-id)"><path fill="rgba(225,220,255,0.85)" d="M346.6 67L344.8 67L344.8 58.3L348.2 58.3Q349.2 58.3 349.9 58.6Q350.6 59.0 351.0 59.6Q351.3 60.3 351.3 61.1Q351.3 62.0 350.9 62.6Q350.6 63.2 349.9 63.5L349.9 63.5Q349.8 63.6 349.8 63.6L349.8 63.6L351.6 67L349.6 67L348.0 63.9L346.6 63.9L346.6 67ZM346.6 59.7L346.6 62.4L347.9 62.4Q348.4 62.4 348.8 62.3Q349.1 62.1 349.3 61.8Q349.5 61.5 349.5 61.1L349.5 61.1Q349.5 60.7 349.3 60.4Q349.1 60.1 348.8 59.9Q348.4 59.7 347.9 59.7L347.9 59.7L346.6 59.7Z "/></g><mask id="satori_om-id-2-1"><rect x="33" y="87" width="794" height="28" fill="#fff" mask="url(#satori_om-id)"/></mask><defs><clipPath id="satori_bc-id-2-1-0" clip-path="url(#satori_cp-id)"><path x="33" y="87" width="80" height="28" d="M39,87 h68 a6,6 0 0 1 6,6 v16 a6,6 0 0 1 -6,6 h-68 a6,6 0 0 1 -6,-6 v-16 a6,6 0 0 1 6,-6"/></clipPath></defs><mask id="satori_om-id-2-1-0"><rect x="34" y="88" width="78" height="26" fill="#fff" mask="url(#satori_om-id)"/><path width="80" height="28" fill="none" stroke="#000" stroke-width="2" d="M34.757,88.757 A6,6 0 0 1 39,87 h68 a6,6 0 0 1 6,6 v16 a6,6 0 0 1 -6,6 h-68 a6,6 0 0 1 -6,-6 v-16 A6,6 0 0 1 34.757,88.757"/></mask><path x="33" y="87" width="80" height="28" fill="rgba(167,139,250,0.15)" d="M39,87 h68 a6,6 0 0 1 6,6 v16 a6,6 0 0 1 -6,6 h-68 a6,6 0 0 1 -6,-6 v-16 a6,6 0 0 1 6,-6" clip-path="url(#satori_cp-id)" mask="url(#satori_om-id)"/><path width="80" height="28" clip-path="url(#satori_bc-id-2-1-0)" fill="none" stroke="rgba(167,139,250,0.35)" stroke-width="2" d="M34.757,88.757 A6,6 0 0 1 39,87 h68 a6,6 0 0 1 6,6 v16 a6,6 0 0 1 -6,6 h-68 a6,6 0 0 1 -6,-6 v-16 A6,6 0 0 1 34.757,88.757"/><g mask="url(#satori_om-id)" clip-path="url(#satori_cp-id)"><path fill="rgba(225,220,255,0.85)" d="M52.6 105.1L52.6 105.1Q51.5 105.1 50.5 104.6Q49.6 104.1 49.1 103.1Q48.6 102.1 48.6 100.6L48.6 100.6Q48.6 99.2 49.1 98.2Q49.6 97.2 50.5 96.7Q51.5 96.2 52.6 96.2L52.6 96.2Q53.8 96.2 54.7 96.7Q55.6 97.2 56.2 98.2Q56.7 99.2 56.7 100.6L56.7 100.6Q56.7 102.1 56.2 103.1Q55.6 104.1 54.7 104.6Q53.8 105.1 52.6 105.1ZM52.6 103.5L52.6 103.5Q53.3 103.5 53.8 103.2Q54.3 102.9 54.6 102.2Q54.9 101.6 54.9 100.6L54.9 100.6Q54.9 99.7 54.6 99.0Q54.3 98.4 53.8 98.1Q53.3 97.7 52.6 97.7L52.6 97.7Q51.9 97.7 51.4 98.1Q50.9 98.4 50.6 99.1Q50.4 99.7 50.4 100.6L50.4 100.6Q50.4 101.6 50.6 102.2Q50.9 102.9 51.4 103.2Q51.9 103.5 52.6 103.5ZM59.8 107.4L58.0 107.4L58.0 98.4L59.7 98.4L59.7 99.6L59.8 99.6Q59.9 99.3 60.2 99.0Q60.4 98.7 60.8 98.6Q61.1 98.4 61.7 98.4L61.7 98.4Q62.4 98.4 63.0 98.7Q63.6 99.1 64.0 99.9Q64.3 100.6 64.3 101.7L64.3 101.7Q64.3 102.8 64.0 103.6Q63.6 104.3 63.0 104.7Q62.4 105.1 61.7 105.1L61.7 105.1Q61.1 105.1 60.8 104.9Q60.4 104.7 60.2 104.5Q59.9 104.2 59.8 104.0L59.8 104.0L59.8 104.0L59.8 107.4ZM61.1 103.7L61.1 103.7Q61.6 103.7 61.9 103.4Q62.2 103.2 62.4 102.8Q62.5 102.3 62.5 101.7L62.5 101.7Q62.5 101.2 62.4 100.7Q62.2 100.3 61.9 100.0Q61.6 99.8 61.1 99.8L61.1 99.8Q60.7 99.8 60.4 100.0Q60.0 100.3 59.9 100.7Q59.7 101.1 59.7 101.7L59.7 101.7Q59.7 102.3 59.9 102.8Q60.0 103.2 60.4 103.5Q60.7 103.7 61.1 103.7ZM68.5 105.1L68.5 105.1Q67.5 105.1 66.8 104.7Q66.1 104.3 65.7 103.6Q65.3 102.8 65.3 101.8L65.3 101.8Q65.3 100.7 65.7 100.0Q66.1 99.2 66.8 98.8Q67.5 98.4 68.4 98.4L68.4 98.4Q69.1 98.4 69.6 98.6Q70.2 98.8 70.6 99.2Q71.0 99.6 71.3 100.2Q71.5 100.8 71.5 101.7L71.5 101.7L71.5 102.2L67.0 102.2Q67.0 102.7 67.2 103.0L67.2 103.0Q67.4 103.4 67.7 103.6Q68.1 103.8 68.5 103.8L68.5 103.8Q68.9 103.8 69.1 103.7Q69.4 103.6 69.5 103.5Q69.7 103.3 69.8 103.0L69.8 103.0L71.4 103.3Q71.3 103.9 70.9 104.3Q70.5 104.7 69.9 104.9Q69.3 105.1 68.5 105.1ZM67.0 101.1L67.0 101.1L69.8 101.1Q69.8 100.8 69.7 100.5L69.7 100.5Q69.5 100.1 69.2 99.9Q68.9 99.7 68.4 99.7L68.4 99.7Q68.0 99.7 67.7 99.9Q67.4 100.1 67.2 100.5L67.2 100.5Q67.1 100.7 67.0 101.1ZM74.5 101.2L74.5 101.2L74.5 105L72.7 105L72.7 98.4L74.4 98.4L74.4 99.8Q74.6 99.2 75.1 98.8L75.1 98.8Q75.6 98.4 76.4 98.4L76.4 98.4Q77.1 98.4 77.6 98.7Q78.1 99.0 78.4 99.5Q78.7 100.1 78.7 100.8L78.7 100.8L78.7 105L76.9 105L76.9 101.1Q76.9 100.5 76.6 100.2Q76.3 99.8 75.7 99.8L75.7 99.8Q75.4 99.8 75.1 100.0Q74.8 100.2 74.6 100.5Q74.5 100.8 74.5 101.2ZM84.0 105.1L84.0 105.1Q82.9 105.1 82.0 104.6Q81.0 104.1 80.5 103.1Q80.0 102.1 80.0 100.6L80.0 100.6Q80.0 99.2 80.5 98.2Q81.0 97.2 82.0 96.7Q82.9 96.2 84.0 96.2L84.0 96.2Q84.8 96.2 85.4 96.4Q86.1 96.6 86.6 97.0Q87.1 97.4 87.4 97.9Q87.7 98.5 87.8 99.3L87.8 99.3L86.0 99.3Q85.9 98.9 85.8 98.6Q85.6 98.3 85.3 98.1Q85.1 97.9 84.8 97.8Q84.4 97.7 84.1 97.7L84.1 97.7Q83.4 97.7 82.9 98.1Q82.4 98.4 82.1 99.1Q81.8 99.7 81.8 100.6L81.8 100.6Q81.8 101.6 82.1 102.2Q82.4 102.9 82.9 103.2Q83.4 103.5 84.1 103.5L84.1 103.5Q84.4 103.5 84.8 103.4Q85.1 103.3 85.3 103.1Q85.6 102.9 85.8 102.7Q85.9 102.4 86.0 102.0L86.0 102.0L87.8 102.0Q87.7 102.6 87.4 103.2Q87.1 103.7 86.7 104.2Q86.2 104.6 85.5 104.9Q84.9 105.1 84.0 105.1ZM94.0 105L91.7 105L88.6 96.3L90.6 96.3L92.0 100.5Q92.2 101.3 92.5 102.2L92.5 102.2Q92.7 102.9 92.8 103.6L92.8 103.6Q93.0 102.9 93.2 102.2L93.2 102.2Q93.4 101.3 93.7 100.5L93.7 100.5L95.0 96.3L97.0 96.3L94.0 105Z "/></g><defs><clipPath id="satori_bc-id-2-1-1" clip-path="url(#satori_cp-id)"><path x="121" y="87" width="66" height="28" d="M127,87 h54 a6,6 0 0 1 6,6 v16 a6,6 0 0 1 -6,6 h-54 a6,6 0 0 1 -6,-6 v-16 a6,6 0 0 1 6,-6"/></clipPath></defs><mask id="satori_om-id-2-1-1"><rect x="122" y="88" width="64" height="26" fill="#fff" mask="url(#satori_om-id)"/><path width="66" height="28" fill="none" stroke="#000" stroke-width="2" d="M122.757,88.757 A6,6 0 0 1 127,87 h54 a6,6 0 0 1 6,6 v16 a6,6 0 0 1 -6,6 h-54 a6,6 0 0 1 -6,-6 v-16 A6,6 0 0 1 122.757,88.757"/></mask><path x="121" y="87" width="66" height="28" fill="rgba(167,139,250,0.15)" d="M127,87 h54 a6,6 0 0 1 6,6 v16 a6,6 0 0 1 -6,6 h-54 a6,6 0 0 1 -6,-6 v-16 a6,6 0 0 1 6,-6" clip-path="url(#satori_cp-id)" mask="url(#satori_om-id)"/><path width="66" height="28" clip-path="url(#satori_bc-id-2-1-1)" fill="none" stroke="rgba(167,139,250,0.35)" stroke-width="2" d="M122.757,88.757 A6,6 0 0 1 127,87 h54 a6,6 0 0 1 6,6 v16 a6,6 0 0 1 -6,6 h-54 a6,6 0 0 1 -6,-6 v-16 A6,6 0 0 1 122.757,88.757"/><g mask="url(#satori_om-id)" clip-path="url(#satori_cp-id)"><path fill="rgba(225,220,255,0.85)" d="M140.6 105.1L140.6 105.1Q139.4 105.1 138.5 104.6Q137.6 104.1 137.1 103.1Q136.6 102.1 136.6 100.6L136.6 100.6Q136.6 99.2 137.1 98.2Q137.6 97.2 138.5 96.7Q139.5 96.2 140.6 96.2L140.6 96.2Q141.3 96.2 142.0 96.4Q142.6 96.6 143.1 97.0Q143.6 97.4 143.9 97.9Q144.3 98.5 144.4 99.3L144.4 99.3L142.6 99.3Q142.5 98.9 142.3 98.6Q142.2 98.3 141.9 98.1Q141.7 97.9 141.3 97.8Q141.0 97.7 140.6 97.7L140.6 97.7Q140.0 97.7 139.4 98.1Q138.9 98.4 138.7 99.1Q138.4 99.7 138.4 100.6L138.4 100.6Q138.4 101.6 138.7 102.2Q138.9 102.9 139.5 103.2Q140.0 103.5 140.6 103.5L140.6 103.5Q141.0 103.5 141.3 103.4Q141.6 103.3 141.9 103.1Q142.2 102.9 142.3 102.7Q142.5 102.4 142.6 102.0L142.6 102.0L144.4 102.0Q144.3 102.6 144.0 103.2Q143.7 103.7 143.2 104.2Q142.8 104.6 142.1 104.9Q141.4 105.1 140.6 105.1ZM149.3 105.1L149.3 105.1Q148.2 105.1 147.4 104.7Q146.6 104.3 146.1 103.6Q145.7 102.9 145.7 101.9L145.7 101.9L145.7 96.3L147.5 96.3L147.5 101.8Q147.5 102.3 147.7 102.7Q147.9 103.1 148.3 103.3Q148.7 103.5 149.3 103.5L149.3 103.5Q149.8 103.5 150.2 103.3Q150.6 103.1 150.9 102.7Q151.1 102.3 151.1 101.8L151.1 101.8L151.1 96.3L152.9 96.3L152.9 101.9Q152.9 102.9 152.4 103.6Q152.0 104.3 151.2 104.7Q150.3 105.1 149.3 105.1ZM157.5 105L157.5 105L154.5 105L154.5 96.3L157.6 96.3Q158.9 96.3 159.8 96.8Q160.8 97.3 161.3 98.3Q161.8 99.3 161.8 100.6L161.8 100.6Q161.8 102.0 161.3 103.0Q160.8 104.0 159.8 104.5Q158.9 105 157.5 105ZM156.2 97.8L156.2 103.5L157.4 103.5Q158.3 103.5 158.8 103.2Q159.4 102.9 159.7 102.2Q160.0 101.6 160.0 100.6L160.0 100.6Q160.0 99.7 159.7 99.0Q159.4 98.4 158.8 98.1Q158.3 97.8 157.4 97.8L157.4 97.8L156.2 97.8ZM164.6 105L162.6 105L165.6 96.3L167.9 96.3L171.0 105L169.0 105L168.3 103.0L165.2 103.0L164.6 105ZM165.7 101.6L167.9 101.6L167.6 100.8Q167.4 100.0 167.1 99L167.1 99Q166.9 98.4 166.8 97.7L166.8 97.7Q166.6 98.4 166.4 99.0L166.4 99.0Q166.2 100.0 165.9 100.8L165.9 100.8L165.7 101.6Z "/></g><defs><clipPath id="satori_bc-id-2-1-2" clip-path="url(#satori_cp-id)"><path x="195" y="87" width="105" height="28" d="M201,87 h93 a6,6 0 0 1 6,6 v16 a6,6 0 0 1 -6,6 h-93 a6,6 0 0 1 -6,-6 v-16 a6,6 0 0 1 6,-6"/></clipPath></defs><mask id="satori_om-id-2-1-2"><rect x="196" y="88" width="103" height="26" fill="#fff" mask="url(#satori_om-id)"/><path width="105" height="28" fill="none" stroke="#000" stroke-width="2" d="M196.757,88.757 A6,6 0 0 1 201,87 h93 a6,6 0 0 1 6,6 v16 a6,6 0 0 1 -6,6 h-93 a6,6 0 0 1 -6,-6 v-16 A6,6 0 0 1 196.757,88.757"/></mask><path x="195" y="87" width="105" height="28" fill="rgba(167,139,250,0.15)" d="M201,87 h93 a6,6 0 0 1 6,6 v16 a6,6 0 0 1 -6,6 h-93 a6,6 0 0 1 -6,-6 v-16 a6,6 0 0 1 6,-6" clip-path="url(#satori_cp-id)" mask="url(#satori_om-id)"/><path width="105" height="28" clip-path="url(#satori_bc-id-2-1-2)" fill="none" stroke="rgba(167,139,250,0.35)" stroke-width="2" d="M196.757,88.757 A6,6 0 0 1 201,87 h93 a6,6 0 0 1 6,6 v16 a6,6 0 0 1 -6,6 h-93 a6,6 0 0 1 -6,-6 v-16 A6,6 0 0 1 196.757,88.757"/><g mask="url(#satori_om-id)" clip-path="url(#satori_cp-id)"><path fill="rgba(225,220,255,0.85)" d="M212.6 105L210.8 105L210.8 96.3L214.2 96.3Q215.2 96.3 215.9 96.6Q216.6 97.0 217.0 97.6Q217.3 98.3 217.3 99.1Q217.3 100.0 216.9 100.6Q216.6 101.2 215.9 101.5L215.9 101.5Q215.8 101.6 215.8 101.6L215.8 101.6L217.6 105L215.6 105L214.0 101.9L212.6 101.9L212.6 105ZM212.6 97.7L212.6 100.4L213.9 100.4Q214.4 100.4 214.8 100.3Q215.1 100.1 215.3 99.8Q215.5 99.5 215.5 99.1L215.5 99.1Q215.5 98.7 215.3 98.4Q215.1 98.1 214.8 97.9Q214.4 97.7 213.9 97.7L213.9 97.7L212.6 97.7ZM221.6 105.1L221.6 105.1Q220.6 105.1 219.9 104.7Q219.1 104.3 218.7 103.6Q218.4 102.8 218.4 101.8L218.4 101.8Q218.4 100.7 218.7 100.0Q219.1 99.2 219.8 98.8Q220.5 98.4 221.5 98.4L221.5 98.4Q222.1 98.4 222.7 98.6Q223.3 98.8 223.7 99.2Q224.1 99.6 224.3 100.2Q224.6 100.8 224.6 101.7L224.6 101.7L224.6 102.2L220.1 102.2Q220.1 102.7 220.3 103.0L220.3 103.0Q220.5 103.4 220.8 103.6Q221.2 103.8 221.6 103.8L221.6 103.8Q221.9 103.8 222.2 103.7Q222.4 103.6 222.6 103.5Q222.8 103.3 222.9 103.0L222.9 103.0L224.5 103.3Q224.3 103.9 223.9 104.3Q223.5 104.7 222.9 104.9Q222.4 105.1 221.6 105.1ZM220.1 101.1L220.1 101.1L222.9 101.1Q222.8 100.8 222.7 100.5L222.7 100.5Q222.6 100.1 222.3 99.9Q222.0 99.7 221.5 99.7L221.5 99.7Q221.1 99.7 220.7 99.9Q220.4 100.1 220.3 100.5L220.3 100.5Q220.1 100.7 220.1 101.1ZM227.6 105.1L227.6 105.1Q227.0 105.1 226.5 104.9Q226.0 104.7 225.7 104.3Q225.4 103.8 225.4 103.2L225.4 103.2Q225.4 102.6 225.6 102.3Q225.8 101.9 226.2 101.7Q226.5 101.4 227.0 101.3Q227.4 101.2 227.9 101.2L227.9 101.2Q228.5 101.1 228.8 101.0Q229.2 101.0 229.3 100.9Q229.5 100.8 229.5 100.6L229.5 100.6L229.5 100.5Q229.5 100.3 229.4 100.1Q229.3 99.9 229.0 99.8Q228.8 99.7 228.5 99.7L228.5 99.7Q228.1 99.7 227.9 99.8Q227.6 99.9 227.5 100.0Q227.3 100.2 227.2 100.4L227.2 100.4L225.6 100.2Q225.8 99.6 226.2 99.2Q226.6 98.8 227.2 98.6Q227.7 98.4 228.5 98.4L228.5 98.4Q229.0 98.4 229.5 98.5Q230.0 98.6 230.4 98.9Q230.8 99.1 231.0 99.6Q231.2 100.0 231.2 100.6L231.2 100.6L231.2 105L229.6 105L229.6 104.1L229.5 104.1Q229.4 104.4 229.1 104.6Q228.8 104.9 228.5 105.0Q228.1 105.1 227.6 105.1ZM228.1 103.9L228.1 103.9Q228.5 103.9 228.8 103.7Q229.1 103.6 229.3 103.3Q229.5 103.0 229.5 102.7L229.5 102.7L229.5 101.9Q229.4 102.0 229.3 102.1Q229.1 102.1 228.9 102.1Q228.7 102.2 228.5 102.2Q228.3 102.2 228.2 102.2L228.2 102.2Q227.9 102.3 227.6 102.4Q227.4 102.5 227.3 102.7Q227.1 102.8 227.1 103.1L227.1 103.1Q227.1 103.4 227.2 103.5Q227.4 103.7 227.6 103.8Q227.8 103.9 228.1 103.9ZM235.7 105.1L235.7 105.1Q234.7 105.1 234.0 104.7Q233.3 104.3 232.9 103.5Q232.5 102.8 232.5 101.8L232.5 101.8Q232.5 100.7 232.9 100.0Q233.3 99.2 234.0 98.8Q234.7 98.4 235.7 98.4L235.7 98.4Q236.3 98.4 236.7 98.5Q237.2 98.7 237.6 99.0Q238.0 99.2 238.2 99.6Q238.5 100.0 238.6 100.5L238.6 100.5L237.0 100.9Q236.9 100.6 236.8 100.4Q236.7 100.2 236.5 100.0Q236.4 99.9 236.2 99.8Q235.9 99.8 235.7 99.8L235.7 99.8Q235.2 99.8 234.9 100.0Q234.6 100.3 234.4 100.7Q234.3 101.2 234.3 101.7L234.3 101.7Q234.3 102.3 234.4 102.8Q234.6 103.2 234.9 103.5Q235.2 103.7 235.7 103.7L235.7 103.7Q235.9 103.7 236.2 103.7Q236.4 103.6 236.5 103.4Q236.7 103.3 236.8 103.1Q236.9 102.9 237.0 102.6L237.0 102.6L238.6 102.9Q238.5 103.4 238.3 103.8Q238.0 104.2 237.6 104.5Q237.3 104.8 236.8 105.0Q236.3 105.1 235.7 105.1ZM241.8 98.4L243.1 98.4L243.1 99.8L241.8 99.8L241.8 103.1Q241.8 103.4 242.0 103.5Q242.1 103.7 242.4 103.7L242.4 103.7Q242.5 103.7 242.7 103.7Q242.9 103.6 243.0 103.6L243.0 103.6L243.2 104.9Q242.9 105.0 242.7 105.1Q242.4 105.1 242.1 105.1L242.1 105.1Q241.1 105.1 240.6 104.6Q240.1 104.1 240.1 103.2L240.1 103.2L240.1 99.8L239.2 99.8L239.2 98.4L240.1 98.4L240.1 96.9L241.8 96.9L241.8 98.4Z M248.9 105L247.1 105L247.1 96.3L249.1 96.3L251.8 100.7Q252.0 101.0 252.3 101.4Q252.5 101.8 252.7 102.3L252.7 102.3Q252.8 102.6 252.9 102.8L252.9 102.8Q252.9 102.6 252.9 102.4L252.9 102.4Q252.9 101.8 252.8 101.3Q252.8 100.8 252.8 100.5L252.8 100.5L252.8 96.3L254.6 96.3L254.6 105L252.7 105L250.1 101.0Q249.9 100.5 249.6 100.1Q249.4 99.7 249.1 99.2L249.1 99.2Q249.0 98.9 248.8 98.5L248.8 98.5Q248.8 98.8 248.8 99.2L248.8 99.2Q248.9 99.7 248.9 100.2Q248.9 100.7 248.9 101.0L248.9 101.0L248.9 105ZM258.0 105.1L258.0 105.1Q257.4 105.1 256.9 104.9Q256.4 104.7 256.1 104.3Q255.8 103.8 255.8 103.2L255.8 103.2Q255.8 102.6 256.0 102.3Q256.2 101.9 256.6 101.7Q256.9 101.4 257.4 101.3Q257.8 101.2 258.3 101.2L258.3 101.2Q258.9 101.1 259.2 101.0Q259.6 101.0 259.7 100.9Q259.9 100.8 259.9 100.6L259.9 100.6L259.9 100.5Q259.9 100.3 259.8 100.1Q259.7 99.9 259.4 99.8Q259.2 99.7 258.9 99.7L258.9 99.7Q258.5 99.7 258.3 99.8Q258.0 99.9 257.9 100.0Q257.7 100.2 257.6 100.4L257.6 100.4L256.0 100.2Q256.2 99.6 256.6 99.2Q257.0 98.8 257.6 98.6Q258.1 98.4 258.9 98.4L258.9 98.4Q259.4 98.4 259.9 98.5Q260.4 98.6 260.8 98.9Q261.2 99.1 261.4 99.6Q261.7 100.0 261.7 100.6L261.7 100.6L261.7 105L260.0 105L260.0 104.1L259.9 104.1Q259.8 104.4 259.5 104.6Q259.2 104.9 258.9 105.0Q258.5 105.1 258.0 105.1ZM258.5 103.9L258.5 103.9Q258.9 103.9 259.2 103.7Q259.6 103.6 259.7 103.3Q259.9 103.0 259.9 102.7L259.9 102.7L259.9 101.9Q259.8 102.0 259.7 102.1Q259.5 102.1 259.3 102.1Q259.1 102.2 258.9 102.2Q258.8 102.2 258.6 102.2L258.6 102.2Q258.3 102.3 258.0 102.4Q257.8 102.5 257.7 102.7Q257.5 102.8 257.5 103.1L257.5 103.1Q257.5 103.4 257.7 103.5Q257.8 103.7 258.0 103.8Q258.2 103.9 258.5 103.9ZM265.2 98.4L266.4 98.4L266.4 99.8L265.2 99.8L265.2 103.1Q265.2 103.4 265.3 103.5Q265.5 103.7 265.8 103.7L265.8 103.7Q265.9 103.7 266.1 103.7Q266.2 103.6 266.3 103.6L266.3 103.6L266.6 104.9Q266.3 105.0 266.0 105.1Q265.7 105.1 265.5 105.1L265.5 105.1Q264.5 105.1 263.9 104.6Q263.4 104.1 263.4 103.2L263.4 103.2L263.4 99.8L262.5 99.8L262.5 98.4L263.4 98.4L263.4 96.9L265.2 96.9L265.2 98.4ZM269.3 105L267.6 105L267.6 98.4L269.3 98.4L269.3 105ZM268.4 97.6L268.4 97.6Q268.0 97.6 267.8 97.3Q267.5 97.1 267.5 96.7L267.5 96.7Q267.5 96.3 267.8 96.1Q268.0 95.8 268.4 95.8L268.4 95.8Q268.8 95.8 269.1 96.0Q269.4 96.3 269.4 96.7L269.4 96.7Q269.4 97.1 269.1 97.3Q268.8 97.6 268.4 97.6ZM274.6 105L272.6 105L270.2 98.4L272.1 98.4L273.2 101.8Q273.4 102.5 273.6 103.1L273.6 103.1Q273.6 103.4 273.7 103.6L273.7 103.6Q273.7 103.4 273.8 103.1L273.8 103.1Q273.9 102.5 274.1 101.8L274.1 101.8L275.2 98.4L277.1 98.4L274.6 105ZM281.0 105.1L281.0 105.1Q280.0 105.1 279.2 104.7Q278.5 104.3 278.1 103.6Q277.7 102.8 277.7 101.8L277.7 101.8Q277.7 100.7 278.1 100.0Q278.5 99.2 279.2 98.8Q279.9 98.4 280.9 98.4L280.9 98.4Q281.5 98.4 282.1 98.6Q282.6 98.8 283.0 99.2Q283.5 99.6 283.7 100.2Q283.9 100.8 283.9 101.7L283.9 101.7L283.9 102.2L279.5 102.2Q279.5 102.7 279.7 103.0L279.7 103.0Q279.8 103.4 280.2 103.6Q280.5 103.8 281.0 103.8L281.0 103.8Q281.3 103.8 281.5 103.7Q281.8 103.6 282.0 103.5Q282.2 103.3 282.3 103.0L282.3 103.0L283.8 103.3Q283.7 103.9 283.3 104.3Q282.9 104.7 282.3 104.9Q281.7 105.1 281.0 105.1ZM279.5 101.1L279.5 101.1L282.3 101.1Q282.2 100.8 282.1 100.5L282.1 100.5Q282.0 100.1 281.6 99.9Q281.3 99.7 280.9 99.7L280.9 99.7Q280.4 99.7 280.1 99.9Q279.8 100.1 279.6 100.5L279.6 100.5Q279.5 100.7 279.5 101.1Z "/></g><defs><clipPath id="satori_bc-id-2-1-3" clip-path="url(#satori_cp-id)"><path x="308" y="87" width="65" height="28" d="M314,87 h53 a6,6 0 0 1 6,6 v16 a6,6 0 0 1 -6,6 h-53 a6,6 0 0 1 -6,-6 v-16 a6,6 0 0 1 6,-6"/></clipPath></defs><mask id="satori_om-id-2-1-3"><rect x="309" y="88" width="63" height="26" fill="#fff" mask="url(#satori_om-id)"/><path width="65" height="28" fill="none" stroke="#000" stroke-width="2" d="M309.757,88.757 A6,6 0 0 1 314,87 h53 a6,6 0 0 1 6,6 v16 a6,6 0 0 1 -6,6 h-53 a6,6 0 0 1 -6,-6 v-16 A6,6 0 0 1 309.757,88.757"/></mask><path x="308" y="87" width="65" height="28" fill="rgba(167,139,250,0.15)" d="M314,87 h53 a6,6 0 0 1 6,6 v16 a6,6 0 0 1 -6,6 h-53 a6,6 0 0 1 -6,-6 v-16 a6,6 0 0 1 6,-6" clip-path="url(#satori_cp-id)" mask="url(#satori_om-id)"/><path width="65" height="28" clip-path="url(#satori_bc-id-2-1-3)" fill="none" stroke="rgba(167,139,250,0.35)" stroke-width="2" d="M309.757,88.757 A6,6 0 0 1 314,87 h53 a6,6 0 0 1 6,6 v16 a6,6 0 0 1 -6,6 h-53 a6,6 0 0 1 -6,-6 v-16 A6,6 0 0 1 309.757,88.757"/><g mask="url(#satori_om-id)" clip-path="url(#satori_cp-id)"><path fill="rgba(225,220,255,0.85)" d="M325.6 105L323.8 105L323.8 96.3L325.6 96.3L325.6 98.7L325.6 100.6Q325.6 100.6 325.6 100.5L325.6 100.5Q325.9 100.1 326.2 99.7Q326.5 99.3 326.9 98.8L326.9 98.8L329.1 96.3L331.2 96.3L328.0 100.0L331.3 105L329.2 105L326.7 101.2L325.6 102.5L325.6 105ZM335.3 105.1L335.3 105.1Q334.3 105.1 333.6 104.7Q332.9 104.3 332.5 103.6Q332.1 102.8 332.1 101.8L332.1 101.8Q332.1 100.7 332.5 100.0Q332.9 99.2 333.6 98.8Q334.3 98.4 335.3 98.4L335.3 98.4Q335.9 98.4 336.5 98.6Q337.0 98.8 337.4 99.2Q337.9 99.6 338.1 100.2Q338.3 100.8 338.3 101.7L338.3 101.7L338.3 102.2L333.8 102.2Q333.9 102.7 334.0 103.0L334.0 103.0Q334.2 103.4 334.6 103.6Q334.9 103.8 335.4 103.8L335.4 103.8Q335.7 103.8 335.9 103.7Q336.2 103.6 336.4 103.5Q336.5 103.3 336.6 103.0L336.6 103.0L338.2 103.3Q338.1 103.9 337.7 104.3Q337.3 104.7 336.7 104.9Q336.1 105.1 335.3 105.1ZM333.9 101.1L333.9 101.1L336.6 101.1Q336.6 100.8 336.5 100.5L336.5 100.5Q336.3 100.1 336.0 99.9Q335.7 99.7 335.3 99.7L335.3 99.7Q334.8 99.7 334.5 99.9Q334.2 100.1 334.0 100.5L334.0 100.5Q333.9 100.7 333.9 101.1ZM341.3 105L339.5 105L339.5 98.4L341.2 98.4L341.2 99.6L341.3 99.6Q341.5 99.0 341.9 98.7Q342.3 98.4 342.9 98.4L342.9 98.4Q343.0 98.4 343.2 98.4Q343.3 98.4 343.4 98.4L343.4 98.4L343.4 100.0Q343.3 99.9 343.1 99.9Q342.9 99.9 342.7 99.9L342.7 99.9Q342.3 99.9 342.0 100.1Q341.6 100.2 341.5 100.6Q341.3 100.9 341.3 101.3L341.3 101.3L341.3 105ZM346.2 105.1L346.2 105.1Q345.6 105.1 345.1 104.9Q344.6 104.7 344.3 104.3Q344.1 103.8 344.1 103.2L344.1 103.2Q344.1 102.6 344.3 102.3Q344.5 101.9 344.8 101.7Q345.2 101.4 345.6 101.3Q346.1 101.2 346.5 101.2L346.5 101.2Q347.1 101.1 347.5 101.0Q347.8 101.0 348.0 100.9Q348.1 100.8 348.1 100.6L348.1 100.6L348.1 100.5Q348.1 100.3 348.0 100.1Q347.9 99.9 347.7 99.8Q347.4 99.7 347.1 99.7L347.1 99.7Q346.8 99.7 346.5 99.8Q346.3 99.9 346.1 100.0Q345.9 100.2 345.9 100.4L345.9 100.4L344.3 100.2Q344.4 99.6 344.8 99.2Q345.2 98.8 345.8 98.6Q346.4 98.4 347.1 98.4L347.1 98.4Q347.6 98.4 348.1 98.5Q348.6 98.6 349.0 98.9Q349.4 99.1 349.7 99.6Q349.9 100.0 349.9 100.6L349.9 100.6L349.9 105L348.2 105L348.2 104.1L348.2 104.1Q348.0 104.4 347.7 104.6Q347.5 104.9 347.1 105.0Q346.7 105.1 346.2 105.1ZM346.7 103.9L346.7 103.9Q347.2 103.9 347.5 103.7Q347.8 103.6 348.0 103.3Q348.1 103.0 348.1 102.7L348.1 102.7L348.1 101.9Q348.1 102.0 347.9 102.1Q347.7 102.1 347.6 102.1Q347.4 102.2 347.2 102.2Q347.0 102.2 346.8 102.2L346.8 102.2Q346.5 102.3 346.3 102.4Q346.0 102.5 345.9 102.7Q345.8 102.8 345.8 103.1L345.8 103.1Q345.8 103.4 345.9 103.5Q346.0 103.7 346.2 103.8Q346.5 103.9 346.7 103.9ZM354.0 105.1L354.0 105.1Q353.2 105.1 352.6 104.9Q352.0 104.7 351.6 104.2Q351.2 103.8 351.1 103.2L351.1 103.2L352.7 102.9Q352.9 103.4 353.2 103.6Q353.5 103.8 354.0 103.8L354.0 103.8Q354.5 103.8 354.8 103.6Q355.1 103.5 355.1 103.2L355.1 103.2Q355.1 102.9 354.9 102.7Q354.7 102.6 354.3 102.5L354.3 102.5L353.1 102.3Q352.2 102.1 351.7 101.6Q351.3 101.1 351.3 100.4L351.3 100.4Q351.3 99.8 351.6 99.3Q352.0 98.9 352.6 98.6Q353.2 98.4 354.0 98.4L354.0 98.4Q354.8 98.4 355.4 98.6Q355.9 98.8 356.3 99.2Q356.6 99.6 356.7 100.1L356.7 100.1L355.2 100.4Q355.1 100.1 354.8 99.8Q354.5 99.6 354.0 99.6L354.0 99.6Q353.6 99.6 353.3 99.8Q353.0 100.0 353.0 100.3L353.0 100.3Q353.0 100.5 353.2 100.7Q353.4 100.9 353.9 101.0L353.9 101.0L355.0 101.2Q356.0 101.4 356.5 101.8Q356.9 102.3 356.9 103.0L356.9 103.0Q356.9 103.6 356.5 104.1Q356.2 104.6 355.5 104.9Q354.8 105.1 354.0 105.1Z "/></g><defs><clipPath id="satori_bc-id-2-1-4" clip-path="url(#satori_cp-id)"><path x="381" y="87" width="90" height="28" d="M387,87 h78 a6,6 0 0 1 6,6 v16 a6,6 0 0 1 -6,6 h-78 a6,6 0 0 1 -6,-6 v-16 a6,6 0 0 1 6,-6"/></clipPath></defs><mask id="satori_om-id-2-1-4"><rect x="382" y="88" width="88" height="26" fill="#fff" mask="url(#satori_om-id)"/><path width="90" height="28" fill="none" stroke="#000" stroke-width="2" d="M382.757,88.757 A6,6 0 0 1 387,87 h78 a6,6 0 0 1 6,6 v16 a6,6 0 0 1 -6,6 h-78 a6,6 0 0 1 -6,-6 v-16 A6,6 0 0 1 382.757,88.757"/></mask><path x="381" y="87" width="90" height="28" fill="rgba(167,139,250,0.15)" d="M387,87 h78 a6,6 0 0 1 6,6 v16 a6,6 0 0 1 -6,6 h-78 a6,6 0 0 1 -6,-6 v-16 a6,6 0 0 1 6,-6" clip-path="url(#satori_cp-id)" mask="url(#satori_om-id)"/><path width="90" height="28" clip-path="url(#satori_bc-id-2-1-4)" fill="none" stroke="rgba(167,139,250,0.35)" stroke-width="2" d="M382.757,88.757 A6,6 0 0 1 387,87 h78 a6,6 0 0 1 6,6 v16 a6,6 0 0 1 -6,6 h-78 a6,6 0 0 1 -6,-6 v-16 A6,6 0 0 1 382.757,88.757"/><g mask="url(#satori_om-id)" clip-path="url(#satori_cp-id)"><path fill="rgba(225,220,255,0.85)" d="M398.6 105L396.8 105L396.8 96.3L399.5 96.3L401.0 100.3Q401.0 100.6 401.2 101.0Q401.3 101.4 401.4 102.0L401.4 102.0Q401.5 102.5 401.6 102.9L401.6 102.9Q401.7 102.5 401.8 102.0L401.8 102.0Q401.9 101.5 402.0 101.0Q402.2 100.6 402.2 100.3L402.2 100.3L403.6 96.3L406.4 96.3L406.4 105L404.6 105L404.6 100.9Q404.6 100.6 404.6 100.2Q404.6 99.7 404.6 99.2Q404.6 98.8 404.7 98.3L404.7 98.3Q404.7 98.0 404.7 97.8L404.7 97.8Q404.6 98.1 404.5 98.3L404.5 98.3Q404.4 98.8 404.3 99.3Q404.1 99.8 404.0 100.2Q403.9 100.6 403.8 100.9L403.8 100.9L402.3 105L400.8 105L399.4 100.9Q399.3 100.6 399.2 100.2Q399.0 99.8 398.9 99.3Q398.8 98.8 398.6 98.3L398.6 98.3Q398.6 98.1 398.5 97.9L398.5 97.9Q398.5 98.0 398.5 98.2L398.5 98.2Q398.5 98.7 398.5 99.2Q398.5 99.7 398.6 100.2Q398.6 100.6 398.6 100.9L398.6 100.9L398.6 105ZM409.8 105.1L409.8 105.1Q409.1 105.1 408.6 104.9Q408.1 104.7 407.9 104.3Q407.6 103.8 407.6 103.2L407.6 103.2Q407.6 102.6 407.8 102.3Q408.0 101.9 408.3 101.7Q408.7 101.4 409.1 101.3Q409.6 101.2 410.1 101.2L410.1 101.2Q410.6 101.1 411.0 101.0Q411.3 101.0 411.5 100.9Q411.6 100.8 411.6 100.6L411.6 100.6L411.6 100.5Q411.6 100.3 411.5 100.1Q411.4 99.9 411.2 99.8Q410.9 99.7 410.6 99.7L410.6 99.7Q410.3 99.7 410.0 99.8Q409.8 99.9 409.6 100.0Q409.5 100.2 409.4 100.4L409.4 100.4L407.8 100.2Q407.9 99.6 408.3 99.2Q408.7 98.8 409.3 98.6Q409.9 98.4 410.6 98.4L410.6 98.4Q411.1 98.4 411.6 98.5Q412.1 98.6 412.5 98.9Q412.9 99.1 413.2 99.6Q413.4 100.0 413.4 100.6L413.4 100.6L413.4 105L411.7 105L411.7 104.1L411.7 104.1Q411.5 104.4 411.3 104.6Q411.0 104.9 410.6 105.0Q410.2 105.1 409.8 105.1ZM410.3 103.9L410.3 103.9Q410.7 103.9 411.0 103.7Q411.3 103.6 411.5 103.3Q411.7 103.0 411.7 102.7L411.7 102.7L411.7 101.9Q411.6 102.0 411.4 102.1Q411.3 102.1 411.1 102.1Q410.9 102.2 410.7 102.2Q410.5 102.2 410.3 102.2L410.3 102.2Q410.0 102.3 409.8 102.4Q409.5 102.5 409.4 102.7Q409.3 102.8 409.3 103.1L409.3 103.1Q409.3 103.4 409.4 103.5Q409.5 103.7 409.7 103.8Q410.0 103.9 410.3 103.9ZM416.9 98.4L418.1 98.4L418.1 99.8L416.9 99.8L416.9 103.1Q416.9 103.4 417.1 103.5Q417.2 103.7 417.5 103.7L417.5 103.7Q417.6 103.7 417.8 103.7Q418.0 103.6 418.1 103.6L418.1 103.6L418.3 104.9Q418.0 105.0 417.7 105.1Q417.5 105.1 417.2 105.1L417.2 105.1Q416.2 105.1 415.7 104.6Q415.2 104.1 415.2 103.2L415.2 103.2L415.2 99.8L414.3 99.8L414.3 98.4L415.2 98.4L415.2 96.9L416.9 96.9L416.9 98.4ZM421.0 107.4L419.3 107.4L419.3 98.4L421.0 98.4L421.0 99.6L421.1 99.6Q421.2 99.3 421.5 99.0Q421.7 98.7 422.0 98.6Q422.4 98.4 423.0 98.4L423.0 98.4Q423.7 98.4 424.3 98.7Q424.9 99.1 425.3 99.9Q425.6 100.6 425.6 101.7L425.6 101.7Q425.6 102.8 425.3 103.6Q424.9 104.3 424.3 104.7Q423.7 105.1 423.0 105.1L423.0 105.1Q422.4 105.1 422.1 104.9Q421.7 104.7 421.5 104.5Q421.2 104.2 421.1 104.0L421.1 104.0L421.0 104.0L421.0 107.4ZM422.4 103.7L422.4 103.7Q422.9 103.7 423.2 103.4Q423.5 103.2 423.7 102.8Q423.8 102.3 423.8 101.7L423.8 101.7Q423.8 101.2 423.7 100.7Q423.5 100.3 423.2 100.0Q422.9 99.8 422.4 99.8L422.4 99.8Q422.0 99.8 421.7 100.0Q421.3 100.3 421.2 100.7Q421.0 101.1 421.0 101.7L421.0 101.7Q421.0 102.3 421.2 102.8Q421.3 103.2 421.7 103.5Q422.0 103.7 422.4 103.7ZM426.9 96.3L428.6 96.3L428.6 105L426.9 105L426.9 96.3ZM433.0 105.1L433.0 105.1Q432.1 105.1 431.3 104.7Q430.6 104.3 430.2 103.5Q429.8 102.8 429.8 101.8L429.8 101.8Q429.8 100.7 430.2 100.0Q430.6 99.2 431.3 98.8Q432.1 98.4 433.0 98.4L433.0 98.4Q434.0 98.4 434.7 98.8Q435.5 99.2 435.9 100.0Q436.2 100.7 436.2 101.8L436.2 101.8Q436.2 102.8 435.9 103.5Q435.5 104.3 434.7 104.7Q434.0 105.1 433.0 105.1ZM433.0 103.7L433.0 103.7Q433.5 103.7 433.8 103.5Q434.1 103.2 434.3 102.8Q434.5 102.3 434.5 101.7L434.5 101.7Q434.5 101.2 434.3 100.7Q434.1 100.3 433.8 100.0Q433.5 99.8 433.0 99.8L433.0 99.8Q432.6 99.8 432.3 100.0Q431.9 100.3 431.8 100.7Q431.6 101.2 431.6 101.7L431.6 101.7Q431.6 102.3 431.8 102.8Q431.9 103.2 432.3 103.5Q432.6 103.7 433.0 103.7ZM439.5 98.4L440.7 98.4L440.7 99.8L439.5 99.8L439.5 103.1Q439.5 103.4 439.6 103.5Q439.8 103.7 440.1 103.7L440.1 103.7Q440.2 103.7 440.4 103.7Q440.6 103.6 440.6 103.6L440.6 103.6L440.9 104.9Q440.6 105.0 440.3 105.1Q440.0 105.1 439.8 105.1L439.8 105.1Q438.8 105.1 438.3 104.6Q437.7 104.1 437.7 103.2L437.7 103.2L437.7 99.8L436.8 99.8L436.8 98.4L437.7 98.4L437.7 96.9L439.5 96.9L439.5 98.4ZM441.9 96.3L443.6 96.3L443.6 105L441.9 105L441.9 96.3ZM446.9 105L445.1 105L445.1 98.4L446.9 98.4L446.9 105ZM446.0 97.6L446.0 97.6Q445.6 97.6 445.3 97.3Q445.0 97.1 445.0 96.7L445.0 96.7Q445.0 96.3 445.3 96.1Q445.6 95.8 446.0 95.8L446.0 95.8Q446.4 95.8 446.7 96.0Q447.0 96.3 447.0 96.7L447.0 96.7Q447.0 97.1 446.7 97.3Q446.4 97.6 446.0 97.6ZM452.0 105.1L452.0 105.1Q451.5 105.1 451.1 104.9Q450.8 104.7 450.5 104.5Q450.3 104.2 450.2 104.0L450.2 104.0L450.1 104.0L450.1 105L448.4 105L448.4 96.3L450.1 96.3L450.1 99.6L450.2 99.6Q450.3 99.3 450.5 99.0Q450.8 98.7 451.1 98.6Q451.5 98.4 452.0 98.4L452.0 98.4Q452.8 98.4 453.4 98.7Q454.0 99.1 454.3 99.9Q454.7 100.6 454.7 101.7L454.7 101.7Q454.7 102.8 454.3 103.6Q454.0 104.3 453.4 104.7Q452.8 105.1 452.0 105.1ZM451.5 103.7L451.5 103.7Q452.0 103.7 452.3 103.4Q452.6 103.2 452.7 102.8Q452.9 102.3 452.9 101.7L452.9 101.7Q452.9 101.2 452.7 100.7Q452.6 100.3 452.3 100.0Q452.0 99.8 451.5 99.8L451.5 99.8Q451.0 99.8 450.7 100.0Q450.4 100.3 450.2 100.7Q450.1 101.1 450.1 101.7L450.1 101.7Q450.1 102.3 450.2 102.8Q450.4 103.2 450.7 103.5Q451.0 103.7 451.5 103.7Z "/></g><mask id="satori_om-id-2-2"><rect x="33" y="125" width="794" height="28" fill="#fff" mask="url(#satori_om-id)"/></mask><defs><clipPath id="satori_bc-id-2-2-0" clip-path="url(#satori_cp-id)"><path x="33" y="125" width="73" height="28" d="M39,125 h61 a6,6 0 0 1 6,6 v16 a6,6 0 0 1 -6,6 h-61 a6,6 0 0 1 -6,-6 v-16 a6,6 0 0 1 6,-6"/></clipPath></defs><mask id="satori_om-id-2-2-0"><rect x="34" y="126" width="71" height="26" fill="#fff" mask="url(#satori_om-id)"/><path width="73" height="28" fill="none" stroke="#000" stroke-width="2" d="M34.757,126.757 A6,6 0 0 1 39,125 h61 a6,6 0 0 1 6,6 v16 a6,6 0 0 1 -6,6 h-61 a6,6 0 0 1 -6,-6 v-16 A6,6 0 0 1 34.757,126.757"/></mask><path x="33" y="125" width="73" height="28" fill="rgba(167,139,250,0.15)" d="M39,125 h61 a6,6 0 0 1 6,6 v16 a6,6 0 0 1 -6,6 h-61 a6,6 0 0 1 -6,-6 v-16 a6,6 0 0 1 6,-6" clip-path="url(#satori_cp-id)" mask="url(#satori_om-id)"/><path width="73" height="28" clip-path="url(#satori_bc-id-2-2-0)" fill="none" stroke="rgba(167,139,250,0.35)" stroke-width="2" d="M34.757,126.757 A6,6 0 0 1 39,125 h61 a6,6 0 0 1 6,6 v16 a6,6 0 0 1 -6,6 h-61 a6,6 0 0 1 -6,-6 v-16 A6,6 0 0 1 34.757,126.757"/><g mask="url(#satori_om-id)" clip-path="url(#satori_cp-id)"><path fill="rgba(225,220,255,0.85)" d="M50.6 143L48.8 143L48.8 134.3L50.8 134.3L53.5 138.7Q53.8 139.0 54.0 139.4Q54.2 139.8 54.4 140.3L54.4 140.3Q54.5 140.6 54.6 140.8L54.6 140.8Q54.6 140.6 54.6 140.4L54.6 140.4Q54.6 139.8 54.6 139.3Q54.5 138.8 54.5 138.5L54.5 138.5L54.5 134.3L56.4 134.3L56.4 143L54.4 143L51.8 139.0Q51.6 138.5 51.3 138.1Q51.1 137.7 50.9 137.2L50.9 137.2Q50.7 136.9 50.5 136.5L50.5 136.5Q50.5 136.8 50.5 137.2L50.5 137.2Q50.6 137.7 50.6 138.2Q50.6 138.7 50.6 139.0L50.6 139.0L50.6 143ZM60.2 143.1L60.2 143.1Q59.5 143.1 59.0 142.8Q58.5 142.5 58.2 141.9Q57.9 141.4 57.9 140.6L57.9 140.6L57.9 136.4L59.7 136.4L59.7 140.3Q59.7 140.9 60.0 141.3Q60.3 141.6 60.8 141.6L60.8 141.6Q61.2 141.6 61.5 141.5Q61.8 141.3 61.9 141.0Q62.1 140.7 62.1 140.2L62.1 140.2L62.1 136.4L63.9 136.4L63.9 143L62.2 143L62.2 141.6Q61.9 142.3 61.5 142.6L61.5 142.6Q61.0 143.1 60.2 143.1ZM67.1 143L65.4 143L65.4 136.4L67.0 136.4L67.1 137.7Q67.2 137.4 67.4 137.1L67.4 137.1Q67.7 136.7 68.1 136.5Q68.5 136.3 68.9 136.3L68.9 136.3Q69.6 136.3 70.1 136.8L70.1 136.8Q70.4 137.2 70.6 137.8L70.6 137.8Q70.8 137.4 71.0 137.1L71.0 137.1Q71.3 136.7 71.8 136.5Q72.2 136.3 72.7 136.3L72.7 136.3Q73.3 136.3 73.8 136.6Q74.3 136.9 74.5 137.4Q74.8 137.9 74.8 138.6L74.8 138.6L74.8 143L73.1 143L73.1 138.9Q73.1 138.4 72.8 138.1Q72.5 137.8 72.0 137.8L72.0 137.8Q71.7 137.8 71.4 138.0Q71.2 138.1 71.1 138.4Q70.9 138.6 70.9 139.0L70.9 139.0L70.9 143L69.2 143L69.2 138.9Q69.2 138.4 69.0 138.1Q68.7 137.8 68.2 137.8L68.2 137.8Q67.9 137.8 67.7 138.0Q67.4 138.1 67.3 138.4Q67.1 138.6 67.1 139.0L67.1 139.0L67.1 143ZM78.1 143L76.4 143L76.4 134.3L79.8 134.3Q80.8 134.3 81.5 134.6Q82.2 135.0 82.5 135.7Q82.9 136.4 82.9 137.2L82.9 137.2Q82.9 138.1 82.5 138.7Q82.1 139.4 81.4 139.8Q80.7 140.1 79.7 140.1L79.7 140.1L78.1 140.1L78.1 143ZM78.1 135.7L78.1 138.7L79.4 138.7Q80.0 138.7 80.3 138.5Q80.7 138.3 80.9 138.0Q81.0 137.7 81.0 137.2Q81.0 136.8 80.9 136.4Q80.7 136.1 80.3 135.9Q80.0 135.7 79.4 135.7L79.4 135.7L78.1 135.7ZM84.0 145.3L84.0 145.3L84.5 144.0L84.7 144.0Q85.0 144.1 85.3 144.1Q85.6 144.1 85.7 143.9Q85.9 143.7 85.9 143.4L85.9 143.4L86.0 143.0L83.5 136.4L85.4 136.4L86.5 139.8Q86.7 140.5 86.8 141.1L86.8 141.1Q86.9 141.4 86.9 141.6L86.9 141.6Q87.0 141.4 87.0 141.1L87.0 141.1Q87.2 140.5 87.4 139.8L87.4 139.8L88.5 136.4L90.4 136.4L87.6 143.8Q87.4 144.3 87.1 144.7Q86.8 145.1 86.3 145.3Q85.9 145.5 85.2 145.5L85.2 145.5Q84.8 145.5 84.5 145.4Q84.2 145.4 84.0 145.3Z "/></g><defs><clipPath id="satori_bc-id-2-2-1" clip-path="url(#satori_cp-id)"><path x="114" y="125" width="74" height="28" d="M120,125 h62 a6,6 0 0 1 6,6 v16 a6,6 0 0 1 -6,6 h-62 a6,6 0 0 1 -6,-6 v-16 a6,6 0 0 1 6,-6"/></clipPath></defs><mask id="satori_om-id-2-2-1"><rect x="115" y="126" width="72" height="26" fill="#fff" mask="url(#satori_om-id)"/><path width="74" height="28" fill="none" stroke="#000" stroke-width="2" d="M115.757,126.757 A6,6 0 0 1 120,125 h62 a6,6 0 0 1 6,6 v16 a6,6 0 0 1 -6,6 h-62 a6,6 0 0 1 -6,-6 v-16 A6,6 0 0 1 115.757,126.757"/></mask><path x="114" y="125" width="74" height="28" fill="rgba(167,139,250,0.15)" d="M120,125 h62 a6,6 0 0 1 6,6 v16 a6,6 0 0 1 -6,6 h-62 a6,6 0 0 1 -6,-6 v-16 a6,6 0 0 1 6,-6" clip-path="url(#satori_cp-id)" mask="url(#satori_om-id)"/><path width="74" height="28" clip-path="url(#satori_bc-id-2-2-1)" fill="none" stroke="rgba(167,139,250,0.35)" stroke-width="2" d="M115.757,126.757 A6,6 0 0 1 120,125 h62 a6,6 0 0 1 6,6 v16 a6,6 0 0 1 -6,6 h-62 a6,6 0 0 1 -6,-6 v-16 A6,6 0 0 1 115.757,126.757"/><g mask="url(#satori_om-id)" clip-path="url(#satori_cp-id)"><path fill="rgba(225,220,255,0.85)" d="M131.6 143L129.8 143L129.8 134.3L133.2 134.3Q134.2 134.3 134.9 134.6Q135.6 135.0 136.0 135.7Q136.3 136.4 136.3 137.2L136.3 137.2Q136.3 138.1 135.9 138.7Q135.6 139.4 134.9 139.8Q134.2 140.1 133.2 140.1L133.2 140.1L131.6 140.1L131.6 143ZM131.6 135.7L131.6 138.7L132.9 138.7Q133.4 138.7 133.8 138.5Q134.1 138.3 134.3 138.0Q134.5 137.7 134.5 137.2Q134.5 136.8 134.3 136.4Q134.1 136.1 133.8 135.9Q133.4 135.7 132.9 135.7L132.9 135.7L131.6 135.7ZM139.4 143.1L139.4 143.1Q138.7 143.1 138.2 142.9Q137.7 142.7 137.5 142.3Q137.2 141.8 137.2 141.2L137.2 141.2Q137.2 140.6 137.4 140.3Q137.6 139.9 137.9 139.7Q138.3 139.4 138.7 139.3Q139.2 139.2 139.6 139.2L139.6 139.2Q140.2 139.1 140.6 139.0Q140.9 139.0 141.1 138.9Q141.2 138.8 141.2 138.6L141.2 138.6L141.2 138.5Q141.2 138.3 141.1 138.1Q141 137.9 140.8 137.8Q140.5 137.7 140.2 137.7L140.2 137.7Q139.9 137.7 139.6 137.8Q139.4 137.9 139.2 138.0Q139.0 138.2 139.0 138.4L139.0 138.4L137.4 138.2Q137.5 137.6 137.9 137.2Q138.3 136.8 138.9 136.6Q139.5 136.4 140.2 136.4L140.2 136.4Q140.7 136.4 141.2 136.5Q141.7 136.6 142.1 136.9Q142.5 137.1 142.8 137.6Q143.0 138.0 143.0 138.6L143.0 138.6L143.0 143L141.3 143L141.3 142.1L141.3 142.1Q141.1 142.4 140.8 142.6Q140.6 142.9 140.2 143.0Q139.8 143.1 139.4 143.1ZM139.9 141.9L139.9 141.9Q140.3 141.9 140.6 141.7Q140.9 141.6 141.1 141.3Q141.2 141.0 141.2 140.7L141.2 140.7L141.2 139.9Q141.2 140.0 141.0 140.1Q140.9 140.1 140.7 140.1Q140.5 140.2 140.3 140.2Q140.1 140.2 139.9 140.2L139.9 140.2Q139.6 140.3 139.4 140.4Q139.1 140.5 139.0 140.7Q138.9 140.8 138.9 141.1L138.9 141.1Q138.9 141.4 139.0 141.5Q139.1 141.7 139.3 141.8Q139.6 141.9 139.9 141.9ZM146.3 139.2L146.3 139.2L146.3 143L144.5 143L144.5 136.4L146.2 136.4L146.2 137.8Q146.4 137.2 146.9 136.8L146.9 136.8Q147.4 136.4 148.2 136.4L148.2 136.4Q148.9 136.4 149.4 136.7Q149.9 137.0 150.2 137.5Q150.5 138.1 150.5 138.8L150.5 138.8L150.5 143L148.7 143L148.7 139.1Q148.7 138.5 148.4 138.2Q148.1 137.8 147.5 137.8L147.5 137.8Q147.2 137.8 146.9 138.0Q146.6 138.2 146.4 138.5Q146.3 138.8 146.3 139.2ZM154.4 143.1L154.4 143.1Q153.6 143.1 153.0 142.7Q152.4 142.3 152.0 141.6Q151.7 140.8 151.7 139.7L151.7 139.7Q151.7 138.6 152.1 137.9Q152.4 137.1 153.0 136.7Q153.6 136.4 154.3 136.4L154.3 136.4Q154.9 136.4 155.3 136.6Q155.6 136.7 155.9 137.0Q156.1 137.3 156.2 137.6L156.2 137.6L156.3 137.6L156.3 134.3L158.0 134.3L158.0 143L156.3 143L156.3 142.0L156.2 142.0Q156.1 142.2 155.9 142.5Q155.6 142.7 155.3 142.9Q154.9 143.1 154.4 143.1ZM154.9 141.7L154.9 141.7Q155.3 141.7 155.7 141.5Q156.0 141.2 156.1 140.8Q156.3 140.3 156.3 139.7L156.3 139.7Q156.3 139.1 156.1 138.7Q156.0 138.3 155.7 138.0Q155.3 137.8 154.9 137.8L154.9 137.8Q154.4 137.8 154.1 138.0Q153.8 138.3 153.7 138.7Q153.5 139.2 153.5 139.7L153.5 139.7Q153.5 140.3 153.7 140.8Q153.8 141.2 154.1 141.4Q154.4 141.7 154.9 141.7ZM161.4 143.1L161.4 143.1Q160.7 143.1 160.2 142.9Q159.7 142.7 159.5 142.3Q159.2 141.8 159.2 141.2L159.2 141.2Q159.2 140.6 159.4 140.3Q159.6 139.9 159.9 139.7Q160.3 139.4 160.7 139.3Q161.2 139.2 161.6 139.2L161.6 139.2Q162.2 139.1 162.6 139.0Q162.9 139.0 163.1 138.9Q163.2 138.8 163.2 138.6L163.2 138.6L163.2 138.5Q163.2 138.3 163.1 138.1Q163.0 137.9 162.8 137.8Q162.5 137.7 162.2 137.7L162.2 137.7Q161.9 137.7 161.6 137.8Q161.4 137.9 161.2 138.0Q161.1 138.2 161.0 138.4L161.0 138.4L159.4 138.2Q159.5 137.6 159.9 137.2Q160.3 136.8 160.9 136.6Q161.5 136.4 162.2 136.4L162.2 136.4Q162.7 136.4 163.2 136.5Q163.7 136.6 164.1 136.9Q164.5 137.1 164.8 137.6Q165.0 138.0 165.0 138.6L165.0 138.6L165.0 143L163.3 143L163.3 142.1L163.3 142.1Q163.1 142.4 162.8 142.6Q162.6 142.9 162.2 143.0Q161.8 143.1 161.4 143.1ZM161.9 141.9L161.9 141.9Q162.3 141.9 162.6 141.7Q162.9 141.6 163.1 141.3Q163.2 141.0 163.2 140.7L163.2 140.7L163.2 139.9Q163.2 140.0 163.0 140.1Q162.9 140.1 162.7 140.1Q162.5 140.2 162.3 140.2Q162.1 140.2 161.9 140.2L161.9 140.2Q161.6 140.3 161.4 140.4Q161.1 140.5 161.0 140.7Q160.9 140.8 160.9 141.1L160.9 141.1Q160.9 141.4 161.0 141.5Q161.1 141.7 161.3 141.8Q161.6 141.9 161.9 141.9ZM169.1 143.1L169.1 143.1Q168.3 143.1 167.7 142.9Q167.1 142.7 166.7 142.2Q166.3 141.8 166.2 141.2L166.2 141.2L167.8 140.9Q168.0 141.4 168.3 141.6Q168.6 141.8 169.1 141.8L169.1 141.8Q169.7 141.8 169.9 141.6Q170.2 141.5 170.2 141.2L170.2 141.2Q170.2 140.9 170.0 140.7Q169.8 140.6 169.4 140.5L169.4 140.5L168.3 140.3Q167.3 140.1 166.8 139.6Q166.4 139.1 166.4 138.4L166.4 138.4Q166.4 137.8 166.7 137.3Q167.1 136.9 167.7 136.6Q168.3 136.4 169.1 136.4L169.1 136.4Q169.9 136.4 170.5 136.6Q171.0 136.8 171.4 137.2Q171.7 137.6 171.9 138.1L171.9 138.1L170.3 138.4Q170.2 138.1 169.9 137.8Q169.6 137.6 169.1 137.6L169.1 137.6Q168.7 137.6 168.4 137.8Q168.1 138.0 168.1 138.3L168.1 138.3Q168.1 138.5 168.3 138.7Q168.5 138.9 169.0 139.0L169.0 139.0L170.2 139.2Q171.1 139.4 171.6 139.8Q172.0 140.3 172.0 141.0L172.0 141.0Q172.0 141.6 171.7 142.1Q171.3 142.6 170.6 142.9Q170.0 143.1 169.1 143.1Z "/></g><defs><clipPath id="satori_bc-id-2-2-2" clip-path="url(#satori_cp-id)"><path x="196" y="125" width="80" height="28" d="M202,125 h68 a6,6 0 0 1 6,6 v16 a6,6 0 0 1 -6,6 h-68 a6,6 0 0 1 -6,-6 v-16 a6,6 0 0 1 6,-6"/></clipPath></defs><mask id="satori_om-id-2-2-2"><rect x="197" y="126" width="78" height="26" fill="#fff" mask="url(#satori_om-id)"/><path width="80" height="28" fill="none" stroke="#000" stroke-width="2" d="M197.757,126.757 A6,6 0 0 1 202,125 h68 a6,6 0 0 1 6,6 v16 a6,6 0 0 1 -6,6 h-68 a6,6 0 0 1 -6,-6 v-16 A6,6 0 0 1 197.757,126.757"/></mask><path x="196" y="125" width="80" height="28" fill="rgba(167,139,250,0.15)" d="M202,125 h68 a6,6 0 0 1 6,6 v16 a6,6 0 0 1 -6,6 h-68 a6,6 0 0 1 -6,-6 v-16 a6,6 0 0 1 6,-6" clip-path="url(#satori_cp-id)" mask="url(#satori_om-id)"/><path width="80" height="28" clip-path="url(#satori_bc-id-2-2-2)" fill="none" stroke="rgba(167,139,250,0.35)" stroke-width="2" d="M197.757,126.757 A6,6 0 0 1 202,125 h68 a6,6 0 0 1 6,6 v16 a6,6 0 0 1 -6,6 h-68 a6,6 0 0 1 -6,-6 v-16 A6,6 0 0 1 197.757,126.757"/><g mask="url(#satori_om-id)" clip-path="url(#satori_cp-id)"><path fill="rgba(225,220,255,0.85)" d="M213.6 143L211.8 143L211.8 134.3L215.2 134.3Q216.2 134.3 216.9 134.6Q217.6 135.0 218.0 135.7Q218.3 136.4 218.3 137.2L218.3 137.2Q218.3 138.1 217.9 138.7Q217.6 139.4 216.9 139.8Q216.2 140.1 215.2 140.1L215.2 140.1L213.6 140.1L213.6 143ZM213.6 135.7L213.6 138.7L214.9 138.7Q215.4 138.7 215.8 138.5Q216.1 138.3 216.3 138.0Q216.5 137.7 216.5 137.2Q216.5 136.8 216.3 136.4Q216.1 136.1 215.8 135.9Q215.4 135.7 214.9 135.7L214.9 135.7L213.6 135.7ZM219.5 145.3L219.5 145.3L219.9 144.0L220.1 144.0Q220.5 144.1 220.7 144.1Q221.0 144.1 221.2 143.9Q221.3 143.7 221.4 143.4L221.4 143.4L221.4 143.0L219.0 136.4L220.8 136.4L221.9 139.8Q222.1 140.5 222.3 141.1L222.3 141.1Q222.3 141.4 222.3 141.6L222.3 141.6Q222.4 141.4 222.4 141.1L222.4 141.1Q222.6 140.5 222.8 139.8L222.8 139.8L224.0 136.4L225.8 136.4L223.0 143.8Q222.8 144.3 222.5 144.7Q222.2 145.1 221.7 145.3Q221.3 145.5 220.6 145.5L220.6 145.5Q220.3 145.5 220.0 145.4Q219.7 145.4 219.5 145.3ZM229.1 135.8L226.4 135.8L226.4 134.3L233.6 134.3L233.6 135.8L230.9 135.8L230.9 143L229.1 143L229.1 135.8ZM237.7 143.1L237.7 143.1Q236.7 143.1 236.0 142.7Q235.3 142.3 234.9 141.5Q234.5 140.8 234.5 139.8L234.5 139.8Q234.5 138.7 234.9 138.0Q235.3 137.2 236.0 136.8Q236.7 136.4 237.7 136.4L237.7 136.4Q238.7 136.4 239.4 136.8Q240.1 137.2 240.5 138.0Q240.9 138.7 240.9 139.8L240.9 139.8Q240.9 140.8 240.5 141.5Q240.1 142.3 239.4 142.7Q238.7 143.1 237.7 143.1ZM237.7 141.7L237.7 141.7Q238.2 141.7 238.5 141.5Q238.8 141.2 238.9 140.8Q239.1 140.3 239.1 139.7L239.1 139.7Q239.1 139.2 238.9 138.7Q238.8 138.3 238.5 138.0Q238.2 137.8 237.7 137.8L237.7 137.8Q237.2 137.8 236.9 138.0Q236.6 138.3 236.4 138.7Q236.3 139.2 236.3 139.7L236.3 139.7Q236.3 140.3 236.4 140.8Q236.6 141.2 236.9 141.5Q237.2 141.7 237.7 141.7ZM243.9 143L242.1 143L242.1 136.4L243.8 136.4L243.8 137.6L243.9 137.6Q244.1 137.0 244.5 136.7Q244.9 136.4 245.5 136.4L245.5 136.4Q245.6 136.4 245.8 136.4Q245.9 136.4 246.0 136.4L246.0 136.4L246.0 138.0Q245.9 137.9 245.7 137.9Q245.5 137.9 245.3 137.9L245.3 137.9Q244.9 137.9 244.6 138.1Q244.2 138.2 244.1 138.6Q243.9 138.9 243.9 139.3L243.9 139.3L243.9 143ZM249.9 143.1L249.9 143.1Q248.9 143.1 248.2 142.7Q247.5 142.3 247.1 141.5Q246.7 140.8 246.7 139.8L246.7 139.8Q246.7 138.7 247.1 138.0Q247.5 137.2 248.2 136.8Q248.9 136.4 249.9 136.4L249.9 136.4Q250.5 136.4 251.0 136.5Q251.5 136.7 251.9 137.0Q252.3 137.2 252.5 137.6Q252.8 138.0 252.8 138.5L252.8 138.5L251.2 138.9Q251.2 138.6 251.0 138.4Q250.9 138.2 250.8 138.0Q250.6 137.9 250.4 137.8Q250.2 137.8 250.0 137.8L250.0 137.8Q249.5 137.8 249.2 138.0Q248.8 138.3 248.7 138.7Q248.5 139.2 248.5 139.7L248.5 139.7Q248.5 140.3 248.7 140.8Q248.8 141.2 249.2 141.5Q249.5 141.7 250.0 141.7L250.0 141.7Q250.2 141.7 250.4 141.7Q250.6 141.6 250.8 141.4Q251.0 141.3 251.1 141.1Q251.2 140.9 251.2 140.6L251.2 140.6L252.9 140.9Q252.8 141.4 252.5 141.8Q252.3 142.2 251.9 142.5Q251.5 142.8 251.0 143.0Q250.5 143.1 249.9 143.1ZM255.8 139.2L255.8 139.2L255.8 143L254.1 143L254.1 134.3L255.8 134.3L255.8 137.7Q256.0 137.2 256.4 136.8L256.4 136.8Q257.0 136.4 257.8 136.4L257.8 136.4Q258.5 136.4 259.0 136.7Q259.5 137.0 259.8 137.5Q260.0 138.1 260.0 138.8L260.0 138.8L260.0 143L258.3 143L258.3 139.1Q258.3 138.5 258.0 138.2Q257.7 137.8 257.1 137.8L257.1 137.8Q256.7 137.8 256.4 138.0Q256.1 138.2 256.0 138.5Q255.8 138.8 255.8 139.2Z "/></g><defs><clipPath id="satori_bc-id-2-2-3" clip-path="url(#satori_cp-id)"><path x="284" y="125" width="99" height="28" d="M290,125 h87 a6,6 0 0 1 6,6 v16 a6,6 0 0 1 -6,6 h-87 a6,6 0 0 1 -6,-6 v-16 a6,6 0 0 1 6,-6"/></clipPath></defs><mask id="satori_om-id-2-2-3"><rect x="285" y="126" width="97" height="26" fill="#fff" mask="url(#satori_om-id)"/><path width="99" height="28" fill="none" stroke="#000" stroke-width="2" d="M285.757,126.757 A6,6 0 0 1 290,125 h87 a6,6 0 0 1 6,6 v16 a6,6 0 0 1 -6,6 h-87 a6,6 0 0 1 -6,-6 v-16 A6,6 0 0 1 285.757,126.757"/></mask><path x="284" y="125" width="99" height="28" fill="rgba(167,139,250,0.15)" d="M290,125 h87 a6,6 0 0 1 6,6 v16 a6,6 0 0 1 -6,6 h-87 a6,6 0 0 1 -6,-6 v-16 a6,6 0 0 1 6,-6" clip-path="url(#satori_cp-id)" mask="url(#satori_om-id)"/><path width="99" height="28" clip-path="url(#satori_bc-id-2-2-3)" fill="none" stroke="rgba(167,139,250,0.35)" stroke-width="2" d="M285.757,126.757 A6,6 0 0 1 290,125 h87 a6,6 0 0 1 6,6 v16 a6,6 0 0 1 -6,6 h-87 a6,6 0 0 1 -6,-6 v-16 A6,6 0 0 1 285.757,126.757"/><g mask="url(#satori_om-id)" clip-path="url(#satori_cp-id)"><path fill="rgba(225,220,255,0.85)" d="M303.0 143.1L303.0 143.1Q301.9 143.1 301.2 142.8Q300.4 142.5 300.0 141.9Q299.5 141.2 299.5 140.3L299.5 140.3L301.2 140.3Q301.3 140.7 301.5 141.0Q301.7 141.3 302.1 141.5Q302.5 141.6 303.0 141.6L303.0 141.6Q303.5 141.6 303.8 141.5Q304.2 141.3 304.4 141.1Q304.6 140.8 304.6 140.5L304.6 140.5Q304.6 140.2 304.4 140.0Q304.2 139.8 303.9 139.7Q303.5 139.5 303.1 139.4L303.1 139.4L302.1 139.2Q301.0 138.9 300.4 138.3Q299.7 137.7 299.7 136.8L299.7 136.8Q299.7 136.0 300.2 135.4Q300.6 134.8 301.3 134.5Q302.1 134.2 303.0 134.2L303.0 134.2Q304.0 134.2 304.7 134.5Q305.4 134.8 305.8 135.4Q306.2 136.0 306.2 136.8L306.2 136.8L304.5 136.8Q304.5 136.2 304.1 135.9Q303.7 135.7 303.0 135.7L303.0 135.7Q302.5 135.7 302.2 135.8Q301.9 135.9 301.7 136.1Q301.6 136.4 301.6 136.7L301.6 136.7Q301.6 137.0 301.8 137.2Q302.0 137.4 302.3 137.5Q302.6 137.7 303.0 137.8L303.0 137.8L303.8 138.0Q304.3 138.1 304.8 138.3Q305.3 138.5 305.6 138.8Q306.0 139.1 306.2 139.5Q306.4 140.0 306.4 140.5L306.4 140.5Q306.4 141.3 306.0 141.9Q305.6 142.5 304.8 142.8Q304.1 143.1 303.0 143.1ZM310.5 143.1L310.5 143.1Q309.5 143.1 308.8 142.7Q308.1 142.3 307.7 141.5Q307.3 140.8 307.3 139.8L307.3 139.8Q307.3 138.7 307.7 138.0Q308.1 137.2 308.8 136.8Q309.5 136.4 310.5 136.4L310.5 136.4Q311.1 136.4 311.6 136.5Q312.1 136.7 312.5 137.0Q312.9 137.2 313.1 137.6Q313.4 138.0 313.4 138.5L313.4 138.5L311.8 138.9Q311.8 138.6 311.7 138.4Q311.5 138.2 311.4 138.0Q311.2 137.9 311.0 137.8Q310.8 137.8 310.6 137.8L310.6 137.8Q310.1 137.8 309.8 138.0Q309.4 138.3 309.3 138.7Q309.1 139.2 309.1 139.7L309.1 139.7Q309.1 140.3 309.3 140.8Q309.4 141.2 309.8 141.5Q310.1 141.7 310.6 141.7L310.6 141.7Q310.8 141.7 311.0 141.7Q311.2 141.6 311.4 141.4Q311.6 141.3 311.7 141.1Q311.8 140.9 311.8 140.6L311.8 140.6L313.5 140.9Q313.4 141.4 313.1 141.8Q312.9 142.2 312.5 142.5Q312.1 142.8 311.6 143.0Q311.1 143.1 310.5 143.1ZM316.4 143L314.7 143L314.7 136.4L316.4 136.4L316.4 143ZM315.5 135.6L315.5 135.6Q315.1 135.6 314.9 135.3Q314.6 135.1 314.6 134.7L314.6 134.7Q314.6 134.3 314.9 134.1Q315.1 133.8 315.5 133.8L315.5 133.8Q315.9 133.8 316.2 134.0Q316.5 134.3 316.5 134.7L316.5 134.7Q316.5 135.1 316.2 135.3Q315.9 135.6 315.5 135.6ZM319.7 143L317.9 143L317.9 134.3L319.7 134.3L319.7 139.0L319.8 139.0L321.9 136.4L324.0 136.4L321.5 139.3L324.1 143L322.0 143L320.2 140.3L319.7 140.9L319.7 143ZM326.6 143L324.9 143L324.9 136.4L326.6 136.4L326.6 143ZM325.8 135.6L325.8 135.6Q325.4 135.6 325.1 135.3Q324.8 135.1 324.8 134.7L324.8 134.7Q324.8 134.3 325.1 134.1Q325.4 133.8 325.8 133.8L325.8 133.8Q326.2 133.8 326.4 134.0Q326.7 134.3 326.7 134.7L326.7 134.7Q326.7 135.1 326.4 135.3Q326.2 135.6 325.8 135.6ZM330.2 136.4L331.4 136.4L331.4 137.8L330.2 137.8L330.2 141.1Q330.2 141.4 330.3 141.5Q330.4 141.7 330.8 141.7L330.8 141.7Q330.9 141.7 331.0 141.7Q331.2 141.6 331.3 141.6L331.3 141.6L331.6 142.9Q331.3 143.0 331.0 143.1Q330.7 143.1 330.4 143.1L330.4 143.1Q329.4 143.1 328.9 142.6Q328.4 142.1 328.4 141.2L328.4 141.2L328.4 137.8L327.5 137.8L327.5 136.4L328.4 136.4L328.4 134.9L330.2 134.9L330.2 136.4ZM332.6 138.7L336.6 138.7L336.6 140.1L332.6 140.1L332.6 138.7ZM338.1 134.3L339.9 134.3L339.9 143L338.1 143L338.1 134.3ZM344.4 143.1L344.4 143.1Q343.3 143.1 342.6 142.7Q341.9 142.3 341.5 141.6Q341.1 140.8 341.1 139.8L341.1 139.8Q341.1 138.7 341.5 138.0Q341.9 137.2 342.6 136.8Q343.3 136.4 344.3 136.4L344.3 136.4Q344.9 136.4 345.5 136.6Q346.0 136.8 346.4 137.2Q346.9 137.6 347.1 138.2Q347.3 138.8 347.3 139.7L347.3 139.7L347.3 140.2L342.9 140.2Q342.9 140.7 343.1 141.0L343.1 141.0Q343.2 141.4 343.6 141.6Q343.9 141.8 344.4 141.8L344.4 141.8Q344.7 141.8 344.9 141.7Q345.2 141.6 345.4 141.5Q345.6 141.3 345.6 141.0L345.6 141.0L347.2 141.3Q347.1 141.9 346.7 142.3Q346.3 142.7 345.7 142.9Q345.1 143.1 344.4 143.1ZM342.9 139.1L342.9 139.1L345.6 139.1Q345.6 138.8 345.5 138.5L345.5 138.5Q345.3 138.1 345.0 137.9Q344.7 137.7 344.3 137.7L344.3 137.7Q343.8 137.7 343.5 137.9Q343.2 138.1 343.0 138.5L343.0 138.5Q342.9 138.7 342.9 139.1ZM350.4 143.1L350.4 143.1Q349.7 143.1 349.3 142.9Q348.8 142.7 348.5 142.3Q348.2 141.8 348.2 141.2L348.2 141.2Q348.2 140.6 348.4 140.3Q348.6 139.9 348.9 139.7Q349.3 139.4 349.7 139.3Q350.2 139.2 350.7 139.2L350.7 139.2Q351.2 139.1 351.6 139.0Q351.9 139.0 352.1 138.9Q352.3 138.8 352.3 138.6L352.3 138.6L352.3 138.5Q352.3 138.3 352.1 138.1Q352.0 137.9 351.8 137.8Q351.6 137.7 351.2 137.7L351.2 137.7Q350.9 137.7 350.6 137.8Q350.4 137.9 350.2 138.0Q350.1 138.2 350.0 138.4L350.0 138.4L348.4 138.2Q348.5 137.6 348.9 137.2Q349.3 136.8 349.9 136.6Q350.5 136.4 351.2 136.4L351.2 136.4Q351.8 136.4 352.3 136.5Q352.8 136.6 353.1 136.9Q353.5 137.1 353.8 137.6Q354.0 138.0 354.0 138.6L354.0 138.6L354.0 143L352.3 143L352.3 142.1L352.3 142.1Q352.1 142.4 351.9 142.6Q351.6 142.9 351.2 143.0Q350.9 143.1 350.4 143.1ZM350.9 141.9L350.9 141.9Q351.3 141.9 351.6 141.7Q351.9 141.6 352.1 141.3Q352.3 141.0 352.3 140.7L352.3 140.7L352.3 139.9Q352.2 140.0 352.0 140.1Q351.9 140.1 351.7 140.1Q351.5 140.2 351.3 140.2Q351.1 140.2 351.0 140.2L351.0 140.2Q350.6 140.3 350.4 140.4Q350.1 140.5 350.0 140.7Q349.9 140.8 349.9 141.1L349.9 141.1Q349.9 141.4 350.0 141.5Q350.1 141.7 350.4 141.8Q350.6 141.9 350.9 141.9ZM357.3 143L355.5 143L355.5 136.4L357.2 136.4L357.2 137.6L357.3 137.6Q357.5 137.0 357.9 136.7Q358.3 136.4 358.9 136.4L358.9 136.4Q359.0 136.4 359.2 136.4Q359.3 136.4 359.4 136.4L359.4 136.4L359.4 138.0Q359.3 137.9 359.1 137.9Q358.9 137.9 358.7 137.9L358.7 137.9Q358.3 137.9 357.9 138.1Q357.6 138.2 357.4 138.6Q357.3 138.9 357.3 139.3L357.3 139.3L357.3 143ZM362.2 139.2L362.2 139.2L362.2 143L360.4 143L360.4 136.4L362.1 136.4L362.1 137.8Q362.3 137.2 362.8 136.8L362.8 136.8Q363.3 136.4 364.1 136.4L364.1 136.4Q364.8 136.4 365.3 136.7Q365.8 137.0 366.1 137.5Q366.4 138.1 366.4 138.8L366.4 138.8L366.4 143L364.6 143L364.6 139.1Q364.6 138.5 364.3 138.2Q364.0 137.8 363.4 137.8L363.4 137.8Q363.1 137.8 362.8 138.0Q362.5 138.2 362.3 138.5Q362.2 138.8 362.2 139.2Z "/></g><defs><clipPath id="satori_bc-id-2-2-4" clip-path="url(#satori_cp-id)"><path x="391" y="125" width="64" height="28" d="M397,125 h52 a6,6 0 0 1 6,6 v16 a6,6 0 0 1 -6,6 h-52 a6,6 0 0 1 -6,-6 v-16 a6,6 0 0 1 6,-6"/></clipPath></defs><mask id="satori_om-id-2-2-4"><rect x="392" y="126" width="62" height="26" fill="#fff" mask="url(#satori_om-id)"/><path width="64" height="28" fill="none" stroke="#000" stroke-width="2" d="M392.757,126.757 A6,6 0 0 1 397,125 h52 a6,6 0 0 1 6,6 v16 a6,6 0 0 1 -6,6 h-52 a6,6 0 0 1 -6,-6 v-16 A6,6 0 0 1 392.757,126.757"/></mask><path x="391" y="125" width="64" height="28" fill="rgba(167,139,250,0.15)" d="M397,125 h52 a6,6 0 0 1 6,6 v16 a6,6 0 0 1 -6,6 h-52 a6,6 0 0 1 -6,-6 v-16 a6,6 0 0 1 6,-6" clip-path="url(#satori_cp-id)" mask="url(#satori_om-id)"/><path width="64" height="28" clip-path="url(#satori_bc-id-2-2-4)" fill="none" stroke="rgba(167,139,250,0.35)" stroke-width="2" d="M392.757,126.757 A6,6 0 0 1 397,125 h52 a6,6 0 0 1 6,6 v16 a6,6 0 0 1 -6,6 h-52 a6,6 0 0 1 -6,-6 v-16 A6,6 0 0 1 392.757,126.757"/><g mask="url(#satori_om-id)" clip-path="url(#satori_cp-id)"><path fill="rgba(225,220,255,0.85)" d="M410.0 143.1L410.0 143.1Q408.9 143.1 408.2 142.8Q407.4 142.5 407.0 141.9Q406.5 141.2 406.5 140.3L406.5 140.3L408.2 140.3Q408.3 140.7 408.5 141.0Q408.7 141.3 409.1 141.5Q409.5 141.6 410.0 141.6L410.0 141.6Q410.5 141.6 410.8 141.5Q411.2 141.3 411.4 141.1Q411.6 140.8 411.6 140.5L411.6 140.5Q411.6 140.2 411.4 140.0Q411.2 139.8 410.9 139.7Q410.5 139.5 410.1 139.4L410.1 139.4L409.1 139.2Q408.0 138.9 407.4 138.3Q406.7 137.7 406.7 136.8L406.7 136.8Q406.7 136.0 407.2 135.4Q407.6 134.8 408.3 134.5Q409.1 134.2 410.0 134.2L410.0 134.2Q411.0 134.2 411.7 134.5Q412.4 134.8 412.8 135.4Q413.2 136.0 413.2 136.8L413.2 136.8L411.5 136.8Q411.5 136.2 411.1 135.9Q410.7 135.7 410.0 135.7L410.0 135.7Q409.5 135.7 409.2 135.8Q408.9 135.9 408.7 136.1Q408.6 136.4 408.6 136.7L408.6 136.7Q408.6 137.0 408.8 137.2Q409.0 137.4 409.3 137.5Q409.6 137.7 410.0 137.8L410.0 137.8L410.8 138.0Q411.3 138.1 411.8 138.3Q412.3 138.5 412.6 138.8Q413.0 139.1 413.2 139.5Q413.4 140.0 413.4 140.5L413.4 140.5Q413.4 141.3 413.0 141.9Q412.6 142.5 411.8 142.8Q411.1 143.1 410.0 143.1ZM417.5 143.1L417.5 143.1Q416.5 143.1 415.8 142.7Q415.1 142.3 414.7 141.5Q414.3 140.8 414.3 139.8L414.3 139.8Q414.3 138.7 414.7 138.0Q415.1 137.2 415.8 136.8Q416.5 136.4 417.5 136.4L417.5 136.4Q418.1 136.4 418.6 136.5Q419.1 136.7 419.5 137.0Q419.9 137.2 420.1 137.6Q420.4 138.0 420.4 138.5L420.4 138.5L418.8 138.9Q418.8 138.6 418.7 138.4Q418.5 138.2 418.4 138.0Q418.2 137.9 418.0 137.8Q417.8 137.8 417.6 137.8L417.6 137.8Q417.1 137.8 416.8 138.0Q416.4 138.3 416.3 138.7Q416.1 139.2 416.1 139.7L416.1 139.7Q416.1 140.3 416.3 140.8Q416.4 141.2 416.8 141.5Q417.1 141.7 417.6 141.7L417.6 141.7Q417.8 141.7 418.0 141.7Q418.2 141.6 418.4 141.4Q418.6 141.3 418.7 141.1Q418.8 140.9 418.8 140.6L418.8 140.6L420.5 140.9Q420.4 141.4 420.1 141.8Q419.9 142.2 419.5 142.5Q419.1 142.8 418.6 143.0Q418.1 143.1 417.5 143.1ZM423.4 143L421.7 143L421.7 136.4L423.4 136.4L423.4 143ZM422.5 135.6L422.5 135.6Q422.1 135.6 421.9 135.3Q421.6 135.1 421.6 134.7L421.6 134.7Q421.6 134.3 421.9 134.1Q422.1 133.8 422.5 133.8L422.5 133.8Q422.9 133.8 423.2 134.0Q423.5 134.3 423.5 134.7L423.5 134.7Q423.5 135.1 423.2 135.3Q422.9 135.6 422.5 135.6ZM426.7 143L425.0 143L425.0 134.3L428.4 134.3Q429.4 134.3 430.1 134.6Q430.8 135.0 431.1 135.7Q431.5 136.4 431.5 137.2L431.5 137.2Q431.5 138.1 431.1 138.7Q430.7 139.4 430.0 139.8Q429.3 140.1 428.3 140.1L428.3 140.1L426.7 140.1L426.7 143ZM426.7 135.7L426.7 138.7L428.0 138.7Q428.6 138.7 428.9 138.5Q429.3 138.3 429.5 138.0Q429.6 137.7 429.6 137.2Q429.6 136.8 429.5 136.4Q429.3 136.1 428.9 135.9Q428.6 135.7 428.0 135.7L428.0 135.7L426.7 135.7ZM432.6 145.3L432.6 145.3L433.1 144.0L433.3 144.0Q433.6 144.1 433.9 144.1Q434.2 144.1 434.3 143.9Q434.5 143.7 434.5 143.4L434.5 143.4L434.6 143.0L432.1 136.4L434.0 136.4L435.1 139.8Q435.3 140.5 435.4 141.1L435.4 141.1Q435.5 141.4 435.5 141.6L435.5 141.6Q435.6 141.4 435.6 141.1L435.6 141.1Q435.8 140.5 436.0 139.8L436.0 139.8L437.1 136.4L439.0 136.4L436.2 143.8Q436 144.3 435.7 144.7Q435.4 145.1 434.9 145.3Q434.5 145.5 433.8 145.5L433.8 145.5Q433.4 145.5 433.1 145.4Q432.8 145.4 432.6 145.3Z "/></g></svg>