<!-- Generated by readme-aura https://github.com/collectioneur/readme-aura -->
<svg width="860" height="200" viewBox="0 0 860 200" xmlns="http://www.w3.org/2000/svg"><defs><clipPath id="satori_bc-id"><path x="0" y="0" width="860" height="200" d="M16,0 h828 a16,16 0 0 1 16,16 v168 a16,16 0 0 1 -16,16 h-828 a16,16 0 0 1 -16,-16 v-168 a16,16 0 0 1 16,-16"/></clipPath></defs><clipPath id="satori_cp-id"><path x="0" y="0" width="860" height="200" d="M16,0 h828 a16,16 0 0 1 16,16 v168 a16,16 0 0 1 -16,16 h-828 a16,16 0 0 1 -16,-16 v-168 a16,16 0 0 1 16,-16"/></clipPath><mask id="satori_om-id"><rect x="1" y="1" width="858" height="198" fill="#fff"/><path width="860" height="200" fill="none" stroke="#000" stroke-width="2" d="M4.686,4.686 A16,16 0 0 1 16,0 h828 a16,16 0 0 1 16,16 v168 a16,16 0 0 1 -16,16 h-828 a16,16 0 0 1 -16,-16 v-168 A16,16 0 0 1 4.686,4.686"/></mask><path x="0" y="0" width="860" height="200" fill="#08080c" d="M16,0 h828 a16,16 0 0 1 16,16 v168 a16,16 0 0 1 -16,16 h-828 a16,16 0 0 1 -16,-16 v-168 a16,16 0 0 1 16,-16"/><path width="860" height="200" clip-path="url(#satori_bc-id)" fill="none" stroke="rgba(110,80,220,0.18)" stroke-width="2" d="M4.686,4.686 A16,16 0 0 1 16,0 h828 a16,16 0 0 1 16,16 v168 a16,16 0 0 1 -16,16 h-828 a16,16 0 0 1 -16,-16 v-168 A16,16 0 0 1 4.686,4.686"/><clipPath id="satori_cp-id-0" clip-path="url(#satori_cp-id)"><rect x="1" y="1" width="860" height="200"/></clipPath><mask id="satori_om-id-0"><rect x="1" y="1" width="860" height="200" fill="#fff" mask="url(#satori_om-id)"/></mask><svg x="1" y="1" width="860" height="200" preserveAspectRatio="none" clip-path="url(#satori_cp-id-0)" mask="url(#satori_om-id-0)"><defs><radialGradient id="g1" cx="50%" cy="50%" r="50%"><stop offset="0%" stop-color="rgba(115,20,215,0.68)"></stop><stop offset="42%" stop-color="rgba(85,15,175,0.30)"></stop><stop offset="70%" stop-color="rgba(85,15,175,0)"></stop></radialGradient><radialGradient id="g2" cx="50%" cy="50%" r="50%"><stop offset="0%" stop-color="rgba(55,55,255,0.55)"></stop><stop offset="45%" stop-color="rgba(35,45,210,0.22)"></stop><stop offset="70%" stop-color="rgba(35,45,210,0)"></stop></radialGradient><radialGradient id="g3" cx="50%" cy="50%" r="50%"><stop offset="0%" stop-color="rgba(0,130,255,0.42)"></stop><stop offset="50%" stop-color="rgba(0,100,220,0.16)"></stop><stop offset="70%" stop-color="rgba(0,100,220,0)"></stop></radialGradient><radialGradient id="g4" cx="50%" cy="50%" r="50%"><stop offset="0%" stop-color="rgba(0,185,240,0.32)"></stop><stop offset="70%" stop-color="rgba(0,185,240,0)"></stop></radialGradient><radialGradient id="g5" cx="50%" cy="50%" r="50%"><stop offset="0%" stop-color="rgba(100,25,205,0.42)"></stop><stop offset="70%" stop-color="rgba(100,25,205,0)"></stop></radialGradient><radialGradient id="g6" cx="50%" cy="50%" r="50%"><stop offset="0%" stop-color="rgba(60,80,255,0.35)"></stop><stop offset="70%" stop-color="rgba(60,80,255,0)"></stop></radialGradient></defs><ellipse id="glow-1" cx="170" cy="200" rx="260" ry="170" fill="url(#g1)"></ellipse><ellipse id="glow-2" cx="320" cy="210" rx="220" ry="140" fill="url(#g2)"></ellipse><ellipse id="glow-3" cx="460" cy="210" rx="190" ry="130" fill="url(#g3)"></ellipse><ellipse id="glow-4" cx="590" cy="220" rx="160" ry="110" fill="url(#g4)"></ellipse><ellipse id="glow-5" cx="750" cy="220" rx="140" ry="100" fill="url(#g5)"></ellipse><ellipse id="glow-6" cx="420" cy="170" rx="100" ry="80" fill="url(#g6)"></ellipse><style>

         @keyframes float-slow {
           0%, 100% { transform: translateX(0px); opacity: 0.8; }
           50% { transform: translateX(350px); opacity: 1.2; }
         }
         @keyframes float-medium {
           0%, 100% { transform: translateX(0px); opacity: 0.7; }
           50% { transform: translateX(-250px); opacity: 1.1; }
         }
         @keyframes float-fast {
           0%, 100% { transform: translateX(0px); opacity: 0.9; }
           50% { transform: translateX(200px); opacity: 0.6; }
         }
         @keyframes float-diagonal {
           0%, 100% { transform: translate(0px, 0px); opacity: 0.75; }
           50% { transform: translate(120px, 30px); opacity: 1.0; }
         }
         @keyframes float-wave {
           0%, 100% { transform: translateX(0px); opacity: 0.65; }
           33% { transform: translateX(-160px); opacity: 0.9; }
           66% { transform: translateX(80px); opacity: 1.0; }
         }
         @keyframes float-pulse {
           0%, 100% { transform: scale(1); opacity: 0.8; }
           50% { transform: scale(1.3); opacity: 0.4; }
         }
         #glow-1 { animation: float-slow 9s ease-in-out infinite; }
         #glow-2 { animation: float-medium 12s ease-in-out infinite; }
         #glow-3 { animation: float-fast 8s ease-in-out infinite; }
         #glow-4 { animation: float-diagonal 11s ease-in-out infinite reverse; }
         #glow-5 { animation: float-wave 14s ease-in-out infinite reverse; }
         #glow-6 { animation: float-pulse 6s ease-in-out infinite; }
       
</style>
</svg><mask id="satori_om-id-0-0"><rect x="1" y="1" width="0" height="200" fill="#fff" mask="url(#satori_om-id)"/></mask><mask id="satori_om-id-0-0-0"><rect x="1" y="1" width="0" height="200" fill="#fff" mask="url(#satori_om-id)"/></mask><mask id="satori_om-id-0-0-0-0"><rect x="1" y="1" width="0" height="200" fill="#fff" mask="url(#satori_om-id)"/></mask><mask id="satori_om-id-0-0-0-1"><rect x="1" y="1" width="0" height="200" fill="#fff" mask="url(#satori_om-id)"/></mask><mask id="satori_om-id-0-0-0-2"><rect x="1" y="1" width="0" height="200" fill="#fff" mask="url(#satori_om-id)"/></mask><mask id="satori_om-id-0-0-1"><rect x="1" y="1" width="0" height="200" fill="#fff" mask="url(#satori_om-id)"/></mask><mask id="satori_om-id-0-0-1-0"><rect x="1" y="1" width="0" height="200" fill="#fff" mask="url(#satori_om-id)"/></mask><mask id="satori_om-id-0-0-1-1"><rect x="1" y="1" width="0" height="200" fill="#fff" mask="url(#satori_om-id)"/></mask><mask id="satori_om-id-0-0-1-2"><rect x="1" y="1" width="0" height="200" fill="#fff" mask="url(#satori_om-id)"/></mask><mask id="satori_om-id-0-0-2"><rect x="1" y="1" width="0" height="200" fill="#fff" mask="url(#satori_om-id)"/></mask><mask id="satori_om-id-0-0-2-0"><rect x="1" y="1" width="0" height="200" fill="#fff" mask="url(#satori_om-id)"/></mask><mask id="satori_om-id-0-0-2-1"><rect x="1" y="1" width="0" height="200" fill="#fff" mask="url(#satori_om-id)"/></mask><mask id="satori_om-id-0-0-2-2"><rect x="1" y="1" width="0" height="200" fill="#fff" mask="url(#satori_om-id)"/></mask><mask id="satori_om-id-0-0-3"><rect x="1" y="1" width="0" height="200" fill="#fff" mask="url(#satori_om-id)"/></mask><mask id="satori_om-id-0-0-3-0"><rect x="1" y="1" width="0" height="200" fill="#fff" mask="url(#satori_om-id)"/></mask><mask id="satori_om-id-0-0-3-1"><rect x="1" y="1" width="0" height="200" fill="#fff" mask="url(#satori_om-id)"/></mask><mask id="satori_om-id-0-0-4"><rect x="1" y="1" width="0" height="200" fill="#fff" mask="url(#satori_om-id)"/></mask><mask id="satori_om-id-0-0-4-0"><rect x="1" y="1" width="0" height="200" fill="#fff" mask="url(#satori_om-id)"/></mask><mask id="satori_om-id-0-0-4-1"><rect x="1" y="1" width="0" height="200" fill="#fff" mask="url(#satori_om-id)"/></mask><mask id="satori_om-id-0-0-5"><rect x="1" y="1" width="0" height="200" fill="#fff" mask="url(#satori_om-id)"/></mask><mask id="satori_om-id-0-0-5-0"><rect x="1" y="1" width="0" height="200" fill="#fff" mask="url(#satori_om-id)"/></mask><mask id="satori_om-id-0-0-5-1"><rect x="1" y="1" width="0" height="200" fill="#fff" mask="url(#satori_om-id)"/></mask><mask id="satori_om-id-0-1"><rect x="1" y="1" width="0" height="200" fill="#fff" mask="url(#satori_om-id)"/></mask><mask id="satori_om-id-0-2"><rect x="1" y="1" width="0" height="200" fill="#fff" mask="url(#satori_om-id)"/></mask><mask id="satori_om-id-0-3"><rect x="1" y="1" width="0" height="200" fill="#fff" mask="url(#satori_om-id)"/></mask><mask id="satori_om-id-0-4"><rect x="1" y="1" width="0" height="200" fill="#fff" mask="url(#satori_om-id)"/></mask><mask id="satori_om-id-0-5"><rect x="1" y="1" width="0" height="200" fill="#fff" mask="url(#satori_om-id)"/></mask><mask id="satori_om-id-0-6"><rect x="1" y="1" width="0" height="200" fill="#fff" mask="url(#satori_om-id)"/></mask><mask id="satori_om-id-1"><rect x="33" y="19" width="794" height="12" fill="#fff" mask="url(#satori_om-id)"/></mask><g mask="url(#satori_om-id)" clip-path="url(#satori_cp-id)"><path fill="rgba(155,140,210,0.5)" d="M35.6 23.0L33.4 23.0L33.4 21.7L39.3 21.7L39.3 23.0L37.1 23.0L37.1 29L35.6 29L35.6 23.0ZM48.2 29L43.3 29L43.3 21.7L48.2 21.7L48.2 23.0L44.8 23.0L44.8 24.7L47.9 24.7L47.9 25.9L44.8 25.9L44.8 27.8L48.2 27.8L48.2 29ZM55.6 29.1L55.6 29.1Q54.6 29.1 53.9 28.7Q53.1 28.2 52.6 27.4Q52.2 26.5 52.2 25.4L52.2 25.4Q52.2 24.2 52.7 23.3Q53.1 22.5 53.9 22.1Q54.6 21.6 55.6 21.6L55.6 21.6Q56.2 21.6 56.7 21.8Q57.3 22.0 57.7 22.3Q58.1 22.6 58.4 23.1Q58.6 23.6 58.7 24.2L58.7 24.2L57.2 24.2Q57.2 23.9 57.0 23.7Q56.9 23.4 56.7 23.3Q56.5 23.1 56.2 23.0Q55.9 23.0 55.6 23.0L55.6 23.0Q55.0 23.0 54.6 23.2Q54.2 23.5 54.0 24.1Q53.7 24.6 53.7 25.4L53.7 25.4Q53.7 26.2 54.0 26.7Q54.2 27.2 54.6 27.5Q55.0 27.8 55.6 27.8L55.6 27.8Q55.9 27.8 56.2 27.7Q56.5 27.6 56.7 27.4Q56.9 27.3 57.0 27.0Q57.2 26.8 57.2 26.5L57.2 26.5L58.7 26.5Q58.7 27.0 58.4 27.5Q58.2 27.9 57.8 28.3Q57.4 28.7 56.8 28.9Q56.3 29.1 55.6 29.1ZM64.3 29L62.8 29L62.8 21.7L64.3 21.7L64.3 24.7L67.5 24.7L67.5 21.7L69.0 21.7L69.0 29L67.5 29L67.5 25.9L64.3 25.9L64.3 29Z M81.3 29.1L81.3 29.1Q80.4 29.1 79.8 28.8Q79.1 28.6 78.8 28.0Q78.4 27.5 78.4 26.7L78.4 26.7L79.9 26.7Q79.9 27.1 80.1 27.4Q80.3 27.6 80.6 27.7Q80.9 27.8 81.3 27.8L81.3 27.8Q81.7 27.8 82.0 27.7Q82.3 27.6 82.5 27.4Q82.6 27.2 82.6 26.9L82.6 26.9Q82.6 26.7 82.5 26.5Q82.3 26.3 82.0 26.2Q81.8 26.1 81.4 26.0L81.4 26.0L80.6 25.8Q79.6 25.6 79.1 25.1Q78.6 24.6 78.6 23.8L78.6 23.8Q78.6 23.2 78.9 22.7Q79.3 22.2 79.9 21.9Q80.5 21.6 81.3 21.6L81.3 21.6Q82.1 21.6 82.7 21.9Q83.3 22.2 83.7 22.7Q84.0 23.2 84.0 23.8L84.0 23.8L82.6 23.8Q82.5 23.4 82.2 23.1Q81.9 22.9 81.3 22.9L81.3 22.9Q80.9 22.9 80.7 23.0Q80.4 23.1 80.3 23.3Q80.1 23.5 80.1 23.7L80.1 23.7Q80.1 24.0 80.3 24.2Q80.4 24.3 80.7 24.5Q81.0 24.6 81.3 24.6L81.3 24.6L81.9 24.8Q82.4 24.9 82.8 25.1Q83.2 25.3 83.5 25.5Q83.8 25.8 84.0 26.1Q84.1 26.5 84.1 26.9L84.1 26.9Q84.1 27.6 83.8 28.1Q83.5 28.6 82.8 28.8Q82.2 29.1 81.3 29.1ZM90.1 23.0L87.9 23.0L87.9 21.7L93.8 21.7L93.8 23.0L91.6 23.0L91.6 29L90.1 29L90.1 23.0ZM99.1 29L97.4 29L99.9 21.7L101.9 21.7L104.4 29L102.8 29L102.2 27.3L99.6 27.3L99.1 29ZM100.0 26.1L101.8 26.1L101.6 25.5Q101.4 24.8 101.2 24L101.2 24Q101.0 23.5 100.9 22.9L100.9 22.9Q100.7 23.5 100.6 24.0L100.6 24.0Q100.4 24.8 100.2 25.5L100.2 25.5L100.0 26.1ZM111.5 29.1L111.5 29.1Q110.5 29.1 109.8 28.7Q109.0 28.2 108.6 27.4Q108.1 26.5 108.1 25.4L108.1 25.4Q108.1 24.2 108.6 23.3Q109.0 22.5 109.8 22.1Q110.6 21.6 111.5 21.6L111.5 21.6Q112.1 21.6 112.7 21.8Q113.2 22.0 113.6 22.3Q114.0 22.6 114.3 23.1Q114.6 23.6 114.6 24.2L114.6 24.2L113.1 24.2Q113.1 23.9 112.9 23.7Q112.8 23.4 112.6 23.3Q112.4 23.1 112.1 23.0Q111.9 23.0 111.5 23.0L111.5 23.0Q111.0 23.0 110.5 23.2Q110.1 23.5 109.9 24.1Q109.6 24.6 109.6 25.4L109.6 25.4Q109.6 26.2 109.9 26.7Q110.1 27.2 110.5 27.5Q111.0 27.8 111.5 27.8L111.5 27.8Q111.8 27.8 112.1 27.7Q112.4 27.6 112.6 27.4Q112.8 27.3 112.9 27.0Q113.1 26.8 113.1 26.5L113.1 26.5L114.6 26.5Q114.6 27.0 114.3 27.5Q114.1 27.9 113.7 28.3Q113.3 28.7 112.8 28.9Q112.2 29.1 111.5 29.1ZM120.2 29L118.7 29L118.7 21.7L120.2 21.7L120.2 23.7L120.2 25.4Q120.2 25.3 120.3 25.3L120.3 25.3Q120.5 24.9 120.7 24.6Q121.0 24.2 121.3 23.8L121.3 23.8L123.1 21.7L124.9 21.7L122.2 24.9L125.0 29L123.3 29L121.2 25.9L120.2 26.9L120.2 29Z "/></g><mask id="satori_om-id-2"><rect x="33" y="45" width="794" height="96" fill="#fff" mask="url(#satori_om-id)"/></mask><mask id="satori_om-id-2-0"><rect x="33" y="45" width="794" height="25" fill="#fff" mask="url(#satori_om-id)"/></mask><mask id="satori_om-id-2-0-0"><rect x="33" y="52" width="80" height="12" fill="#fff" mask="url(#satori_om-id)"/></mask><g mask="url(#satori_om-id)" clip-path="url(#satori_cp-id)"><path fill="#a78bfa" d="M38.3 62L33.7 62L33.7 54.7L35.1 54.7L35.1 60.8L38.3 60.8L38.3 62ZM41.5 62L39.9 62L42.4 54.7L44.3 54.7L46.9 62L45.2 62L44.7 60.3L42.1 60.3L41.5 62ZM42.5 59.1L44.3 59.1L44.1 58.5Q43.8 57.8 43.6 57L43.6 57Q43.5 56.5 43.3 55.9L43.3 55.9Q43.2 56.5 43.1 57.0L43.1 57.0Q42.9 57.8 42.7 58.5L42.7 58.5L42.5 59.1ZM50.3 62L48.8 62L48.8 54.7L50.4 54.7L52.7 58.4Q52.9 58.7 53.1 59.0Q53.3 59.4 53.5 59.8L53.5 59.8Q53.6 60.0 53.6 60.2L53.6 60.2Q53.6 60.0 53.6 59.8L53.6 59.8Q53.6 59.3 53.6 58.9Q53.6 58.5 53.6 58.2L53.6 58.2L53.6 54.7L55.1 54.7L55.1 62L53.4 62L51.3 58.7Q51.1 58.3 50.9 57.9Q50.7 57.6 50.5 57.1L50.5 57.1Q50.4 56.9 50.2 56.6L50.2 56.6Q50.2 56.9 50.2 57.1L50.2 57.1Q50.3 57.6 50.3 58.0Q50.3 58.4 50.3 58.7L50.3 58.7L50.3 62ZM60.6 62.1L60.6 62.1Q59.6 62.1 58.8 61.6Q58.1 61.2 57.6 60.4Q57.2 59.5 57.2 58.4L57.2 58.4Q57.2 57.2 57.7 56.4Q58.1 55.5 58.9 55.1Q59.6 54.6 60.6 54.6L60.6 54.6Q61.2 54.6 61.7 54.8Q62.3 55.0 62.7 55.3Q63.1 55.6 63.4 56.1Q63.6 56.5 63.7 57.1L63.7 57.1L62.2 57.1Q62.1 56.8 62.0 56.6Q61.8 56.4 61.6 56.2Q61.4 56.1 61.2 56.0Q60.9 56.0 60.6 56.0L60.6 56.0Q60.1 56.0 59.6 56.2Q59.2 56.5 59.0 57.0Q58.7 57.6 58.7 58.4Q58.7 59.1 59.0 59.7Q59.2 60.2 59.6 60.5Q60.0 60.8 60.6 60.8L60.6 60.8Q61.2 60.8 61.5 60.6Q61.9 60.4 62.1 60.0L62.1 60.0Q62.3 59.7 62.3 59.3L62.3 59.3L60.7 59.3L60.7 58.1L63.8 58.1L63.8 59.0Q63.8 60.0 63.4 60.7Q63.0 61.4 62.2 61.7Q61.5 62.1 60.6 62.1ZM68.9 62.1L68.9 62.1Q68.0 62.1 67.3 61.8Q66.7 61.4 66.3 60.8Q65.9 60.2 65.9 59.4L65.9 59.4L65.9 54.7L67.4 54.7L67.4 59.3Q67.4 59.7 67.6 60.1Q67.8 60.4 68.1 60.6Q68.5 60.8 68.9 60.8L68.9 60.8Q69.4 60.8 69.7 60.6Q70.0 60.4 70.2 60.1Q70.4 59.7 70.4 59.3L70.4 59.3L70.4 54.7L71.9 54.7L71.9 59.4Q71.9 60.2 71.5 60.8Q71.2 61.4 70.5 61.8Q69.8 62.1 68.9 62.1ZM75.5 62L73.8 62L76.3 54.7L78.2 54.7L80.8 62L79.1 62L78.6 60.3L76.0 60.3L75.5 62ZM76.4 59.1L78.2 59.1L78.0 58.5Q77.8 57.8 77.5 57L77.5 57Q77.4 56.5 77.3 55.9L77.3 55.9Q77.1 56.5 77.0 57.0L77.0 57.0Q76.8 57.8 76.6 58.5L76.6 58.5L76.4 59.1ZM85.9 62.1L85.9 62.1Q84.9 62.1 84.1 61.6Q83.4 61.2 82.9 60.4Q82.5 59.5 82.5 58.4L82.5 58.4Q82.5 57.2 82.9 56.4Q83.4 55.5 84.2 55.1Q84.9 54.6 85.9 54.6L85.9 54.6Q86.5 54.6 87.0 54.8Q87.6 55.0 88.0 55.3Q88.4 55.6 88.6 56.1Q88.9 56.5 89.0 57.1L89.0 57.1L87.5 57.1Q87.4 56.8 87.2 56.6Q87.1 56.4 86.9 56.2Q86.7 56.1 86.5 56.0Q86.2 56.0 85.9 56.0L85.9 56.0Q85.3 56.0 84.9 56.2Q84.5 56.5 84.2 57.0Q84.0 57.6 84.0 58.4Q84.0 59.1 84.2 59.7Q84.5 60.2 84.9 60.5Q85.3 60.8 85.9 60.8L85.9 60.8Q86.5 60.8 86.8 60.6Q87.2 60.4 87.4 60.0L87.4 60.0Q87.6 59.7 87.6 59.3L87.6 59.3L86.0 59.3L86.0 58.1L89.1 58.1L89.1 59.0Q89.1 60.0 88.6 60.7Q88.2 61.4 87.5 61.7Q86.8 62.1 85.9 62.1ZM96.1 62L91.2 62L91.2 54.7L96.1 54.7L96.1 56.0L92.7 56.0L92.7 57.7L95.8 57.7L95.8 58.9L92.7 58.9L92.7 60.8L96.1 60.8L96.1 62ZM100.9 62.1L100.9 62.1Q100.1 62.1 99.4 61.8Q98.8 61.6 98.4 61.0Q98.0 60.5 98.0 59.7L98.0 59.7L99.5 59.7Q99.5 60.1 99.7 60.4Q99.9 60.6 100.2 60.7Q100.5 60.8 100.9 60.8L100.9 60.8Q101.3 60.8 101.6 60.7Q101.9 60.6 102.1 60.4Q102.2 60.2 102.2 59.9L102.2 59.9Q102.2 59.7 102.1 59.5Q101.9 59.3 101.7 59.2Q101.4 59.1 101.0 59.0L101.0 59.0L100.2 58.8Q99.3 58.6 98.7 58.1Q98.2 57.6 98.2 56.8L98.2 56.8Q98.2 56.2 98.6 55.7Q98.9 55.2 99.5 54.9Q100.2 54.6 101.0 54.6L101.0 54.6Q101.8 54.6 102.4 54.9Q103.0 55.2 103.3 55.7Q103.6 56.2 103.6 56.8L103.6 56.8L102.2 56.8Q102.2 56.4 101.8 56.1Q101.5 55.9 100.9 55.9L100.9 55.9Q100.6 55.9 100.3 56.0Q100.0 56.1 99.9 56.3Q99.8 56.5 99.8 56.7L99.8 56.7Q99.8 57.0 99.9 57.2Q100.1 57.3 100.3 57.5Q100.6 57.6 100.9 57.6L100.9 57.6L101.6 57.8Q102.0 57.9 102.4 58.1Q102.8 58.3 103.1 58.5Q103.4 58.8 103.6 59.1Q103.7 59.5 103.7 59.9L103.7 59.9Q103.7 60.6 103.4 61.1Q103.1 61.6 102.5 61.8Q101.8 62.1 100.9 62.1Z "/></g><mask id="satori_om-id-2-0-1"><rect x="129" y="45" width="169" height="25" fill="#fff" mask="url(#satori_om-id)"/></mask><defs><clipPath id="satori_bc-id-2-0-1-0" clip-path="url(#satori_cp-id)"><path x="129" y="45" width="70" height="25" d="M135,45 h58 a6,6 0 0 1 6,6 v13 a6,6 0 0 1 -6,6 h-58 a6,6 0 0 1 -6,-6 v-13 a6,6 0 0 1 6,-6"/></clipPath></defs><mask id="satori_om-id-2-0-1-0"><rect x="130" y="46" width="68" height="23" fill="#fff" mask="url(#satori_om-id)"/><path width="70" height="25" fill="none" stroke="#000" stroke-width="2" d="M130.757,46.757 A6,6 0 0 1 135,45 h58 a6,6 0 0 1 6,6 v13 a6,6 0 0 1 -6,6 h-58 a6,6 0 0 1 -6,-6 v-13 A6,6 0 0 1 130.757,46.757"/></mask><path x="129" y="45" width="70" height="25" fill="#a78bfa15" d="M135,45 h58 a6,6 0 0 1 6,6 v13 a6,6 0 0 1 -6,6 h-58 a6,6 0 0 1 -6,-6 v-13 a6,6 0 0 1 6,-6" clip-path="url(#satori_cp-id)" mask="url(#satori_om-id)"/><path width="70" height="25" clip-path="url(#satori_bc-id-2-0-1-0)" fill="none" stroke="#a78bfa35" stroke-width="2" d="M130.757,46.757 A6,6 0 0 1 135,45 h58 a6,6 0 0 1 6,6 v13 a6,6 0 0 1 -6,6 h-58 a6,6 0 0 1 -6,-6 v-13 A6,6 0 0 1 130.757,46.757"/><g mask="url(#satori_om-id)" clip-path="url(#satori_cp-id)"><path fill="rgba(225,220,255,0.85)" d="M145.6 62L143.8 62L143.8 53.3L147.2 53.3Q148.2 53.3 148.9 53.6Q149.6 54.0 150.0 54.7Q150.3 55.4 150.3 56.2L150.3 56.2Q150.3 57.1 149.9 57.7Q149.6 58.4 148.9 58.8Q148.2 59.1 147.2 59.1L147.2 59.1L145.6 59.1L145.6 62ZM145.6 54.7L145.6 57.7L146.9 57.7Q147.4 57.7 147.8 57.5Q148.1 57.3 148.3 57.0Q148.5 56.7 148.5 56.2Q148.5 55.8 148.3 55.4Q148.1 55.1 147.8 54.9Q147.4 54.7 146.9 54.7L146.9 54.7L145.6 54.7ZM151.5 64.3L151.5 64.3L151.9 63.0L152.1 63.0Q152.5 63.1 152.7 63.1Q153.0 63.1 153.2 62.9Q153.3 62.7 153.4 62.4L153.4 62.4L153.4 62.0L151.0 55.4L152.8 55.4L153.9 58.8Q154.1 59.5 154.3 60.1L154.3 60.1Q154.3 60.4 154.3 60.6L154.3 60.6Q154.4 60.4 154.4 60.1L154.4 60.1Q154.6 59.5 154.8 58.8L154.8 58.8L156.0 55.4L157.8 55.4L155.0 62.8Q154.8 63.3 154.5 63.7Q154.2 64.1 153.7 64.3Q153.3 64.5 152.6 64.5L152.6 64.5Q152.3 64.5 152.0 64.4Q151.7 64.4 151.5 64.3ZM160.8 55.4L162.0 55.4L162.0 56.8L160.8 56.8L160.8 60.1Q160.8 60.4 160.9 60.5Q161.1 60.7 161.4 60.7L161.4 60.7Q161.5 60.7 161.7 60.7Q161.8 60.6 161.9 60.6L161.9 60.6L162.2 61.9Q161.9 62.0 161.6 62.1Q161.3 62.1 161.0 62.1L161.0 62.1Q160.1 62.1 159.5 61.6Q159.0 61.1 159.0 60.2L159.0 60.2L159.0 56.8L158.1 56.8L158.1 55.4L159.0 55.4L159.0 53.9L160.8 53.9L160.8 55.4ZM164.9 58.2L164.9 58.2L164.9 62L163.1 62L163.1 53.3L164.9 53.3L164.9 56.7Q165.1 56.2 165.5 55.8L165.5 55.8Q166.0 55.4 166.9 55.4L166.9 55.4Q167.5 55.4 168.1 55.7Q168.6 56.0 168.8 56.5Q169.1 57.1 169.1 57.8L169.1 57.8L169.1 62L167.4 62L167.4 58.1Q167.4 57.5 167.0 57.2Q166.7 56.8 166.2 56.8L166.2 56.8Q165.8 56.8 165.5 57.0Q165.2 57.2 165.1 57.5Q164.9 57.8 164.9 58.2ZM173.5 62.1L173.5 62.1Q172.6 62.1 171.8 61.7Q171.1 61.3 170.7 60.5Q170.3 59.8 170.3 58.8L170.3 58.8Q170.3 57.7 170.7 57.0Q171.1 56.2 171.8 55.8Q172.6 55.4 173.5 55.4L173.5 55.4Q174.5 55.4 175.3 55.8Q176.0 56.2 176.4 57.0Q176.8 57.7 176.8 58.8L176.8 58.8Q176.8 59.8 176.4 60.5Q176.0 61.3 175.3 61.7Q174.5 62.1 173.5 62.1ZM173.5 60.7L173.5 60.7Q174.0 60.7 174.3 60.5Q174.6 60.2 174.8 59.8Q175.0 59.3 175.0 58.7L175.0 58.7Q175.0 58.2 174.8 57.7Q174.6 57.3 174.3 57.0Q174.0 56.8 173.5 56.8L173.5 56.8Q173.1 56.8 172.8 57.0Q172.4 57.3 172.3 57.7Q172.1 58.2 172.1 58.7L172.1 58.7Q172.1 59.3 172.3 59.8Q172.4 60.2 172.8 60.5Q173.1 60.7 173.5 60.7ZM179.7 58.2L179.7 58.2L179.7 62L178.0 62L178.0 55.4L179.6 55.4L179.7 56.8Q179.9 56.2 180.3 55.8L180.3 55.8Q180.9 55.4 181.7 55.4L181.7 55.4Q182.4 55.4 182.9 55.7Q183.4 56.0 183.7 56.5Q183.9 57.1 183.9 57.8L183.9 57.8L183.9 62L182.2 62L182.2 58.1Q182.2 57.5 181.9 57.2Q181.6 56.8 181.0 56.8L181.0 56.8Q180.6 56.8 180.3 57.0Q180.1 57.2 179.9 57.5Q179.7 57.8 179.7 58.2Z "/></g><defs><clipPath id="satori_bc-id-2-0-1-1" clip-path="url(#satori_cp-id)"><path x="206" y="45" width="92" height="25" d="M212,45 h80 a6,6 0 0 1 6,6 v13 a6,6 0 0 1 -6,6 h-80 a6,6 0 0 1 -6,-6 v-13 a6,6 0 0 1 6,-6"/></clipPath></defs><mask id="satori_om-id-2-0-1-1"><rect x="207" y="46" width="90" height="23" fill="#fff" mask="url(#satori_om-id)"/><path width="92" height="25" fill="none" stroke="#000" stroke-width="2" d="M207.757,46.757 A6,6 0 0 1 212,45 h80 a6,6 0 0 1 6,6 v13 a6,6 0 0 1 -6,6 h-80 a6,6 0 0 1 -6,-6 v-13 A6,6 0 0 1 207.757,46.757"/></mask><path x="206" y="45" width="92" height="25" fill="#a78bfa15" d="M212,45 h80 a6,6 0 0 1 6,6 v13 a6,6 0 0 1 -6,6 h-80 a6,6 0 0 1 -6,-6 v-13 a6,6 0 0 1 6,-6" clip-path="url(#satori_cp-id)" mask="url(#satori_om-id)"/><path width="92" height="25" clip-path="url(#satori_bc-id-2-0-1-1)" fill="none" stroke="#a78bfa35" stroke-width="2" d="M207.757,46.757 A6,6 0 0 1 212,45 h80 a6,6 0 0 1 6,6 v13 a6,6 0 0 1 -6,6 h-80 a6,6 0 0 1 -6,-6 v-13 A6,6 0 0 1 207.757,46.757"/><g mask="url(#satori_om-id)" clip-path="url(#satori_cp-id)"><path fill="rgba(225,220,255,0.85)" d="M223.3 62.1L223.3 62.1Q222.0 62.1 221.2 61.4Q220.4 60.7 220.4 59.4L220.4 59.4L220.4 58.9L222.2 58.9L222.2 59.4Q222.2 60.0 222.5 60.4Q222.8 60.7 223.3 60.7L223.3 60.7Q223.8 60.7 224.1 60.4Q224.5 60.0 224.5 59.4L224.5 59.4L224.5 53.3L226.2 53.3L226.2 59.4Q226.2 60.7 225.4 61.4Q224.7 62.1 223.3 62.1ZM229.6 62.1L229.6 62.1Q229.0 62.1 228.5 61.9Q228.0 61.7 227.7 61.3Q227.4 60.8 227.4 60.2L227.4 60.2Q227.4 59.6 227.6 59.3Q227.8 58.9 228.2 58.7Q228.5 58.4 229.0 58.3Q229.4 58.2 229.9 58.2L229.9 58.2Q230.5 58.1 230.8 58.0Q231.2 58.0 231.3 57.9Q231.5 57.8 231.5 57.6L231.5 57.6L231.5 57.5Q231.5 57.3 231.4 57.1Q231.2 56.9 231.0 56.8Q230.8 56.7 230.4 56.7L230.4 56.7Q230.1 56.7 229.9 56.8Q229.6 56.9 229.4 57.0Q229.3 57.2 229.2 57.4L229.2 57.4L227.6 57.2Q227.8 56.6 228.2 56.2Q228.6 55.8 229.1 55.6Q229.7 55.4 230.5 55.4L230.5 55.4Q231.0 55.4 231.5 55.5Q232.0 55.6 232.4 55.9Q232.8 56.1 233.0 56.6Q233.2 57.0 233.2 57.6L233.2 57.6L233.2 62L231.6 62L231.6 61.1L231.5 61.1Q231.3 61.4 231.1 61.6Q230.8 61.9 230.5 62.0Q230.1 62.1 229.6 62.1ZM230.1 60.9L230.1 60.9Q230.5 60.9 230.8 60.7Q231.1 60.6 231.3 60.3Q231.5 60.0 231.5 59.7L231.5 59.7L231.5 58.9Q231.4 59.0 231.3 59.1Q231.1 59.1 230.9 59.1Q230.7 59.2 230.5 59.2Q230.3 59.2 230.2 59.2L230.2 59.2Q229.9 59.3 229.6 59.4Q229.4 59.5 229.2 59.7Q229.1 59.8 229.1 60.1L229.1 60.1Q229.1 60.4 229.2 60.5Q229.4 60.7 229.6 60.8Q229.8 60.9 230.1 60.9ZM238.6 62L236.6 62L234.2 55.4L236.0 55.4L237.1 58.8Q237.3 59.5 237.5 60.1L237.5 60.1Q237.5 60.4 237.6 60.6L237.6 60.6Q237.7 60.4 237.7 60.1L237.7 60.1Q237.9 59.5 238.1 58.8L238.1 58.8L239.1 55.4L241.0 55.4L238.6 62ZM243.8 62.1L243.8 62.1Q243.1 62.1 242.6 61.9Q242.1 61.7 241.9 61.3Q241.6 60.8 241.6 60.2L241.6 60.2Q241.6 59.6 241.8 59.3Q242.0 58.9 242.3 58.7Q242.7 58.4 243.1 58.3Q243.6 58.2 244.0 58.2L244.0 58.2Q244.6 58.1 245.0 58.0Q245.3 58.0 245.5 57.9Q245.6 57.8 245.6 57.6L245.6 57.6L245.6 57.5Q245.6 57.3 245.5 57.1Q245.4 56.9 245.2 56.8Q244.9 56.7 244.6 56.7L244.6 56.7Q244.3 56.7 244.0 56.8Q243.8 56.9 243.6 57.0Q243.4 57.2 243.4 57.4L243.4 57.4L241.8 57.2Q241.9 56.6 242.3 56.2Q242.7 55.8 243.3 55.6Q243.9 55.4 244.6 55.4L244.6 55.4Q245.1 55.4 245.6 55.5Q246.1 55.6 246.5 55.9Q246.9 56.1 247.2 56.6Q247.4 57.0 247.4 57.6L247.4 57.6L247.4 62L245.7 62L245.7 61.1L245.7 61.1Q245.5 61.4 245.2 61.6Q245.0 61.9 244.6 62.0Q244.2 62.1 243.8 62.1ZM244.3 60.9L244.3 60.9Q244.7 60.9 245.0 60.7Q245.3 60.6 245.5 60.3Q245.6 60.0 245.6 59.7L245.6 59.7L245.6 58.9Q245.6 59.0 245.4 59.1Q245.3 59.1 245.1 59.1Q244.9 59.2 244.7 59.2Q244.5 59.2 244.3 59.2L244.3 59.2Q244.0 59.3 243.8 59.4Q243.5 59.5 243.4 59.7Q243.3 59.8 243.3 60.1L243.3 60.1Q243.3 60.4 243.4 60.5Q243.5 60.7 243.7 60.8Q244.0 60.9 244.3 60.9ZM252.1 62.1L252.1 62.1Q251.1 62.1 250.3 61.8Q249.5 61.5 249.1 60.9Q248.7 60.2 248.6 59.3L248.6 59.3L250.4 59.3Q250.4 59.7 250.6 60.0Q250.9 60.3 251.3 60.5Q251.6 60.6 252.1 60.6L252.1 60.6Q252.6 60.6 253.0 60.5Q253.3 60.3 253.5 60.1Q253.7 59.8 253.7 59.5L253.7 59.5Q253.7 59.2 253.5 59.0Q253.3 58.8 253.0 58.7Q252.7 58.5 252.2 58.4L252.2 58.4L251.2 58.2Q250.1 57.9 249.5 57.3Q248.9 56.7 248.9 55.8L248.9 55.8Q248.9 55.0 249.3 54.4Q249.7 53.8 250.5 53.5Q251.2 53.2 252.2 53.2L252.2 53.2Q253.1 53.2 253.8 53.5Q254.6 53.8 255.0 54.4Q255.4 55.0 255.4 55.8L255.4 55.8L253.7 55.8Q253.6 55.2 253.2 54.9Q252.8 54.7 252.1 54.7L252.1 54.7Q251.7 54.7 251.4 54.8Q251.0 54.9 250.9 55.1Q250.7 55.4 250.7 55.7L250.7 55.7Q250.7 56.0 250.9 56.2Q251.1 56.4 251.4 56.5Q251.7 56.7 252.1 56.8L252.1 56.8L252.9 57.0Q253.4 57.1 253.9 57.3Q254.4 57.5 254.8 57.8Q255.1 58.1 255.3 58.5Q255.5 59.0 255.5 59.5L255.5 59.5Q255.5 60.3 255.1 60.9Q254.7 61.5 253.9 61.8Q253.2 62.1 252.1 62.1ZM259.7 62.1L259.7 62.1Q258.7 62.1 258.0 61.7Q257.3 61.3 256.9 60.5Q256.5 59.8 256.5 58.8L256.5 58.8Q256.5 57.7 256.9 57.0Q257.3 56.2 258.0 55.8Q258.7 55.4 259.7 55.4L259.7 55.4Q260.3 55.4 260.8 55.5Q261.2 55.7 261.6 56.0Q262.0 56.2 262.3 56.6Q262.5 57.0 262.6 57.5L262.6 57.5L261.0 57.9Q260.9 57.6 260.8 57.4Q260.7 57.2 260.5 57.0Q260.4 56.9 260.2 56.8Q259.9 56.8 259.7 56.8L259.7 56.8Q259.2 56.8 258.9 57.0Q258.6 57.3 258.4 57.7Q258.3 58.2 258.3 58.7L258.3 58.7Q258.3 59.3 258.4 59.8Q258.6 60.2 258.9 60.5Q259.2 60.7 259.7 60.7L259.7 60.7Q259.9 60.7 260.2 60.7Q260.4 60.6 260.5 60.4Q260.7 60.3 260.8 60.1Q260.9 59.9 261.0 59.6L261.0 59.6L262.6 59.9Q262.5 60.4 262.3 60.8Q262.0 61.2 261.6 61.5Q261.3 61.8 260.8 62.0Q260.3 62.1 259.7 62.1ZM265.6 62L263.8 62L263.8 55.4L265.5 55.4L265.5 56.6L265.6 56.6Q265.8 56.0 266.2 55.7Q266.6 55.4 267.2 55.4L267.2 55.4Q267.3 55.4 267.5 55.4Q267.6 55.4 267.7 55.4L267.7 55.4L267.7 57.0Q267.6 56.9 267.4 56.9Q267.2 56.9 267.0 56.9L267.0 56.9Q266.6 56.9 266.2 57.1Q265.9 57.2 265.7 57.6Q265.6 57.9 265.6 58.3L265.6 58.3L265.6 62ZM270.5 62L268.7 62L268.7 55.4L270.5 55.4L270.5 62ZM269.6 54.6L269.6 54.6Q269.2 54.6 268.9 54.3Q268.6 54.1 268.6 53.7L268.6 53.7Q268.6 53.3 268.9 53.1Q269.2 52.8 269.6 52.8L269.6 52.8Q270.0 52.8 270.3 53.0Q270.5 53.3 270.5 53.7L270.5 53.7Q270.5 54.1 270.3 54.3Q270.0 54.6 269.6 54.6ZM273.7 64.4L271.9 64.4L271.9 55.4L273.7 55.4L273.7 56.6L273.8 56.6Q273.9 56.3 274.1 56.0Q274.3 55.7 274.7 55.6Q275.1 55.4 275.6 55.4L275.6 55.4Q276.4 55.4 277.0 55.7Q277.6 56.1 277.9 56.9Q278.3 57.6 278.3 58.7L278.3 58.7Q278.3 59.8 277.9 60.6Q277.6 61.3 277.0 61.7Q276.4 62.1 275.6 62.1L275.6 62.1Q275.1 62.1 274.7 61.9Q274.3 61.7 274.1 61.5Q273.9 61.2 273.8 61.0L273.8 61.0L273.7 61.0L273.7 64.4ZM275.1 60.7L275.1 60.7Q275.5 60.7 275.8 60.4Q276.2 60.2 276.3 59.8Q276.5 59.3 276.5 58.7L276.5 58.7Q276.5 58.2 276.3 57.7Q276.2 57.3 275.9 57.0Q275.5 56.8 275.1 56.8L275.1 56.8Q274.6 56.8 274.3 57.0Q274.0 57.3 273.8 57.7Q273.7 58.1 273.7 58.7L273.7 58.7Q273.7 59.3 273.8 59.8Q274 60.2 274.3 60.5Q274.6 60.7 275.1 60.7ZM281.5 55.4L282.8 55.4L282.8 56.8L281.5 56.8L281.5 60.1Q281.5 60.4 281.7 60.5Q281.8 60.7 282.1 60.7L282.1 60.7Q282.2 60.7 282.4 60.7Q282.6 60.6 282.7 60.6L282.7 60.6L282.9 61.9Q282.7 62.0 282.4 62.1Q282.1 62.1 281.8 62.1L281.8 62.1Q280.8 62.1 280.3 61.6Q279.8 61.1 279.8 60.2L279.8 60.2L279.8 56.8L278.9 56.8L278.9 55.4L279.8 55.4L279.8 53.9L281.5 53.9L281.5 55.4Z "/></g><mask id="satori_om-id-2-1"><rect x="33" y="84" width="794" height="57" fill="#fff" mask="url(#satori_om-id)"/></mask><mask id="satori_om-id-2-1-0"><rect x="33" y="107" width="0" height="12" fill="#fff" mask="url(#satori_om-id)"/></mask><g mask="url(#satori_om-id)" clip-path="url(#satori_cp-id)"><path fill="#60a5fa" d="M35.1 117L33.7 117L33.7 109.7L38.4 109.7L38.4 111.0L35.1 111.0L35.1 113.0L38.1 113.0L38.1 114.2L35.1 114.2L35.1 117ZM42.0 117L40.5 117L40.5 109.7L43.4 109.7Q44.2 109.7 44.8 110.0Q45.4 110.3 45.7 110.8Q46.0 111.4 46.0 112.1Q46.0 112.8 45.7 113.3Q45.3 113.9 44.8 114.1L44.8 114.1Q44.7 114.1 44.7 114.2L44.7 114.2L46.2 117L44.6 117L43.2 114.4L42.0 114.4L42.0 117ZM42.0 111.0L42.0 113.2L43.1 113.2Q43.6 113.2 43.8 113.1Q44.1 112.9 44.3 112.7Q44.4 112.5 44.4 112.1L44.4 112.1Q44.4 111.7 44.3 111.5Q44.1 111.2 43.8 111.1Q43.5 111.0 43.1 111.0L43.1 111.0L42.0 111.0ZM49.3 117L47.7 117L50.2 109.7L52.1 109.7L54.7 117L53.0 117L52.4 115.3L49.9 115.3L49.3 117ZM50.2 114.1L52.1 114.1L51.8 113.5Q51.6 112.8 51.4 112L51.4 112Q51.3 111.5 51.1 110.9L51.1 110.9Q51.0 111.5 50.8 112.0L50.8 112.0Q50.6 112.8 50.4 113.5L50.4 113.5L50.2 114.1ZM58.0 117L56.6 117L56.6 109.7L58.8 109.7L60.0 113.1Q60.1 113.3 60.2 113.7Q60.3 114.0 60.4 114.5L60.4 114.5Q60.5 114.9 60.6 115.3L60.6 115.3Q60.7 114.9 60.7 114.5L60.7 114.5Q60.8 114.1 60.9 113.7Q61.0 113.3 61.1 113.1L61.1 113.1L62.3 109.7L64.6 109.7L64.6 117L63.1 117L63.1 113.6Q63.1 113.3 63.1 113.0Q63.1 112.6 63.1 112.2Q63.1 111.8 63.1 111.4L63.1 111.4Q63.1 111.2 63.1 111.0L63.1 111.0Q63.1 111.2 63.0 111.4L63.0 111.4Q62.9 111.9 62.8 112.3Q62.7 112.7 62.6 113.0Q62.5 113.3 62.4 113.6L62.4 113.6L61.2 117L59.9 117L58.7 113.6Q58.6 113.3 58.5 113.0Q58.4 112.7 58.3 112.3Q58.2 111.9 58.1 111.4L58.1 111.4Q58.0 111.2 58.0 111.1L58.0 111.1Q58.0 111.2 58.0 111.4L58.0 111.4Q58.0 111.8 58.0 112.2Q58.0 112.6 58.0 113.0Q58.0 113.3 58.0 113.6L58.0 113.6L58.0 117ZM71.8 117L66.9 117L66.9 109.7L71.7 109.7L71.7 111.0L68.4 111.0L68.4 112.7L71.5 112.7L71.5 113.9L68.4 113.9L68.4 115.8L71.8 115.8L71.8 117ZM77.2 117L75.5 117L73.5 109.7L75.2 109.7L76.0 113.3Q76.1 113.8 76.2 114.3Q76.3 114.8 76.4 115.3L76.4 115.3Q76.4 115.4 76.4 115.5L76.4 115.5Q76.4 115.4 76.4 115.3L76.4 115.3Q76.5 114.8 76.6 114.3Q76.7 113.8 76.8 113.3L76.8 113.3L77.7 109.7L79.3 109.7L80.1 113.3Q80.3 113.8 80.3 114.3Q80.4 114.8 80.5 115.3L80.5 115.3Q80.5 115.4 80.6 115.5L80.6 115.5Q80.6 115.4 80.6 115.3L80.6 115.3Q80.7 114.8 80.8 114.3Q80.9 113.8 81.0 113.3L81.0 113.3L81.8 109.7L83.4 109.7L81.5 117L79.8 117L78.8 113.3Q78.6 112.7 78.5 111.9L78.5 111.9Q78.5 111.7 78.5 111.5L78.5 111.5Q78.4 111.7 78.4 111.9L78.4 111.9Q78.3 112.6 78.2 113.3L78.2 113.3L77.2 117ZM88.5 117.1L88.5 117.1Q87.6 117.1 86.8 116.7Q86.0 116.2 85.6 115.4Q85.1 114.5 85.1 113.4L85.1 113.4Q85.1 112.2 85.6 111.3Q86.0 110.5 86.8 110.1Q87.6 109.6 88.5 109.6L88.5 109.6Q89.5 109.6 90.3 110.1Q91.0 110.5 91.5 111.3Q91.9 112.2 91.9 113.4L91.9 113.4Q91.9 114.5 91.5 115.4Q91.0 116.2 90.3 116.7Q89.5 117.1 88.5 117.1ZM88.5 115.8L88.5 115.8Q89.1 115.8 89.5 115.5Q89.9 115.2 90.2 114.7Q90.4 114.1 90.4 113.4L90.4 113.4Q90.4 112.6 90.2 112.0Q89.9 111.5 89.5 111.2Q89.1 111.0 88.5 111.0L88.5 111.0Q88.0 111.0 87.5 111.2Q87.1 111.5 86.9 112.0Q86.6 112.6 86.6 113.4L86.6 113.4Q86.6 114.1 86.9 114.7Q87.1 115.2 87.5 115.5Q88.0 115.8 88.5 115.8ZM95.5 117L94.0 117L94.0 109.7L96.9 109.7Q97.7 109.7 98.3 110.0Q98.9 110.3 99.2 110.8Q99.5 111.4 99.5 112.1Q99.5 112.8 99.2 113.3Q98.9 113.9 98.3 114.1L98.3 114.1Q98.2 114.1 98.2 114.2L98.2 114.2L99.7 117L98.1 117L96.7 114.4L95.5 114.4L95.5 117ZM95.5 111.0L95.5 113.2L96.6 113.2Q97.1 113.2 97.3 113.1Q97.6 112.9 97.8 112.7Q97.9 112.5 97.9 112.1L97.9 112.1Q97.9 111.7 97.8 111.5Q97.6 111.2 97.3 111.1Q97.1 111.0 96.6 111.0L96.6 111.0L95.5 111.0ZM103.1 117L101.6 117L101.6 109.7L103.1 109.7L103.1 111.7L103.1 113.4Q103.1 113.3 103.1 113.3L103.1 113.3Q103.4 112.9 103.6 112.6Q103.9 112.2 104.2 111.8L104.2 111.8L106.0 109.7L107.8 109.7L105.1 112.9L107.9 117L106.1 117L104.1 113.9L103.1 114.9L103.1 117ZM112.5 117.1L112.5 117.1Q111.6 117.1 110.9 116.8Q110.3 116.6 109.9 116.0Q109.6 115.5 109.5 114.7L109.5 114.7L111.0 114.7Q111.0 115.1 111.2 115.4Q111.4 115.6 111.7 115.7Q112.0 115.8 112.4 115.8L112.4 115.8Q112.8 115.8 113.1 115.7Q113.4 115.6 113.6 115.4Q113.8 115.2 113.8 114.9L113.8 114.9Q113.8 114.7 113.6 114.5Q113.5 114.3 113.2 114.2Q112.9 114.1 112.5 114.0L112.5 114.0L111.7 113.8Q110.8 113.6 110.3 113.1Q109.7 112.6 109.7 111.8L109.7 111.8Q109.7 111.2 110.1 110.7Q110.5 110.2 111.1 109.9Q111.7 109.6 112.5 109.6L112.5 109.6Q113.3 109.6 113.9 109.9Q114.5 110.2 114.8 110.7Q115.2 111.2 115.2 111.8L115.2 111.8L113.7 111.8Q113.7 111.4 113.4 111.1Q113.0 110.9 112.5 110.9L112.5 110.9Q112.1 110.9 111.8 111.0Q111.6 111.1 111.4 111.3Q111.3 111.5 111.3 111.7L111.3 111.7Q111.3 112.0 111.4 112.2Q111.6 112.3 111.9 112.5Q112.1 112.6 112.4 112.6L112.4 112.6L113.1 112.8Q113.6 112.9 113.9 113.1Q114.3 113.3 114.6 113.5Q114.9 113.8 115.1 114.1Q115.3 114.5 115.3 114.9L115.3 114.9Q115.3 115.6 114.9 116.1Q114.6 116.6 114.0 116.8Q113.3 117.1 112.5 117.1Z "/></g><mask id="satori_om-id-2-1-1"><rect x="49" y="84" width="794" height="57" fill="#fff" mask="url(#satori_om-id)"/></mask><defs><clipPath id="satori_bc-id-2-1-1-0" clip-path="url(#satori_cp-id)"><path x="49" y="84" width="98" height="25" d="M55,84 h86 a6,6 0 0 1 6,6 v13 a6,6 0 0 1 -6,6 h-86 a6,6 0 0 1 -6,-6 v-13 a6,6 0 0 1 6,-6"/></clipPath></defs><mask id="satori_om-id-2-1-1-0"><rect x="50" y="85" width="96" height="23" fill="#fff" mask="url(#satori_om-id)"/><path width="98" height="25" fill="none" stroke="#000" stroke-width="2" d="M50.757,85.757 A6,6 0 0 1 55,84 h86 a6,6 0 0 1 6,6 v13 a6,6 0 0 1 -6,6 h-86 a6,6 0 0 1 -6,-6 v-13 A6,6 0 0 1 50.757,85.757"/></mask><path x="49" y="84" width="98" height="25" fill="#60a5fa15" d="M55,84 h86 a6,6 0 0 1 6,6 v13 a6,6 0 0 1 -6,6 h-86 a6,6 0 0 1 -6,-6 v-13 a6,6 0 0 1 6,-6" clip-path="url(#satori_cp-id)" mask="url(#satori_om-id)"/><path width="98" height="25" clip-path="url(#satori_bc-id-2-1-1-0)" fill="none" stroke="#60a5fa35" stroke-width="2" d="M50.757,85.757 A6,6 0 0 1 55,84 h86 a6,6 0 0 1 6,6 v13 a6,6 0 0 1 -6,6 h-86 a6,6 0 0 1 -6,-6 v-13 A6,6 0 0 1 50.757,85.757"/><g mask="url(#satori_om-id)" clip-path="url(#satori_cp-id)"><path fill="rgba(225,220,255,0.85)" d="M66.1 93.8L63.4 93.8L63.4 92.3L70.6 92.3L70.6 93.8L67.9 93.8L67.9 101L66.1 101L66.1 93.8ZM74.7 101.1L74.7 101.1Q73.7 101.1 73.0 100.7Q72.3 100.3 71.9 99.6Q71.5 98.8 71.5 97.8L71.5 97.8Q71.5 96.7 71.9 96.0Q72.3 95.2 73.0 94.8Q73.7 94.4 74.6 94.4L74.6 94.4Q75.3 94.4 75.8 94.6Q76.4 94.8 76.8 95.2Q77.2 95.6 77.5 96.2Q77.7 96.8 77.7 97.7L77.7 97.7L77.7 98.2L73.2 98.2Q73.2 98.7 73.4 99.0L73.4 99.0Q73.6 99.4 73.9 99.6Q74.3 99.8 74.7 99.8L74.7 99.8Q75.1 99.8 75.3 99.7Q75.6 99.6 75.7 99.5Q75.9 99.3 76.0 99.0L76.0 99.0L77.6 99.3Q77.4 99.9 77.1 100.3Q76.7 100.7 76.1 100.9Q75.5 101.1 74.7 101.1ZM73.2 97.1L73.2 97.1L76.0 97.1Q76.0 96.8 75.9 96.5L75.9 96.5Q75.7 96.1 75.4 95.9Q75.1 95.7 74.6 95.7L74.6 95.7Q74.2 95.7 73.9 95.9Q73.6 96.1 73.4 96.5L73.4 96.5Q73.3 96.7 73.2 97.1ZM80.7 97.2L80.7 97.2L80.7 101L78.9 101L78.9 94.4L80.6 94.4L80.6 95.8Q80.8 95.2 81.3 94.8L81.3 94.8Q81.8 94.4 82.6 94.4L82.6 94.4Q83.3 94.4 83.8 94.7Q84.3 95.0 84.6 95.5Q84.9 96.1 84.9 96.8L84.9 96.8L84.9 101L83.1 101L83.1 97.1Q83.1 96.5 82.8 96.2Q82.5 95.8 81.9 95.8L81.9 95.8Q81.6 95.8 81.3 96.0Q81.0 96.2 80.8 96.5Q80.7 96.8 80.7 97.2ZM89.0 101.1L89.0 101.1Q88.2 101.1 87.6 100.9Q87.0 100.7 86.6 100.2Q86.2 99.8 86.1 99.2L86.1 99.2L87.7 98.9Q87.8 99.4 88.2 99.6Q88.5 99.8 89.0 99.8L89.0 99.8Q89.5 99.8 89.8 99.6Q90.1 99.5 90.1 99.2L90.1 99.2Q90.1 98.9 89.9 98.7Q89.7 98.6 89.3 98.5L89.3 98.5L88.1 98.3Q87.2 98.1 86.7 97.6Q86.3 97.1 86.3 96.4L86.3 96.4Q86.3 95.8 86.6 95.3Q86.9 94.9 87.6 94.6Q88.2 94.4 89.0 94.4L89.0 94.4Q89.8 94.4 90.4 94.6Q90.9 94.8 91.3 95.2Q91.6 95.6 91.7 96.1L91.7 96.1L90.2 96.4Q90.1 96.1 89.8 95.8Q89.5 95.6 89.0 95.6L89.0 95.6Q88.6 95.6 88.3 95.8Q88.0 96.0 88.0 96.3L88.0 96.3Q88.0 96.5 88.2 96.7Q88.4 96.9 88.9 97.0L88.9 97.0L90.0 97.2Q91.0 97.4 91.4 97.8Q91.9 98.3 91.9 99.0L91.9 99.0Q91.9 99.6 91.5 100.1Q91.2 100.6 90.5 100.9Q89.8 101.1 89.0 101.1ZM96.0 101.1L96.0 101.1Q95.0 101.1 94.3 100.7Q93.6 100.3 93.2 99.5Q92.8 98.8 92.8 97.8L92.8 97.8Q92.8 96.7 93.2 96.0Q93.6 95.2 94.3 94.8Q95.0 94.4 96.0 94.4L96.0 94.4Q97.0 94.4 97.7 94.8Q98.5 95.2 98.8 96.0Q99.2 96.7 99.2 97.8L99.2 97.8Q99.2 98.8 98.8 99.5Q98.5 100.3 97.7 100.7Q97.0 101.1 96.0 101.1ZM96.0 99.7L96.0 99.7Q96.5 99.7 96.8 99.5Q97.1 99.2 97.3 98.8Q97.4 98.3 97.4 97.7L97.4 97.7Q97.4 97.2 97.3 96.7Q97.1 96.3 96.8 96.0Q96.5 95.8 96.0 95.8L96.0 95.8Q95.6 95.8 95.2 96.0Q94.9 96.3 94.8 96.7Q94.6 97.2 94.6 97.7L94.6 97.7Q94.6 98.3 94.8 98.8Q94.9 99.2 95.2 99.5Q95.6 99.7 96.0 99.7ZM102.2 101L100.5 101L100.5 94.4L102.2 94.4L102.2 95.6L102.2 95.6Q102.4 95.0 102.8 94.7Q103.3 94.4 103.8 94.4L103.8 94.4Q103.9 94.4 104.1 94.4Q104.3 94.4 104.4 94.4L104.4 94.4L104.4 96.0Q104.3 95.9 104.0 95.9Q103.8 95.9 103.6 95.9L103.6 95.9Q103.2 95.9 102.9 96.1Q102.6 96.2 102.4 96.6Q102.2 96.9 102.2 97.3L102.2 97.3L102.2 101ZM107.2 101L105.4 101L105.4 92.3L111.1 92.3L111.1 93.8L107.2 93.8L107.2 96.2L110.7 96.2L110.7 97.6L107.2 97.6L107.2 101ZM112.4 92.3L114.1 92.3L114.1 101L112.4 101L112.4 92.3ZM118.6 101.1L118.6 101.1Q117.6 101.1 116.9 100.7Q116.1 100.3 115.8 99.5Q115.4 98.8 115.4 97.8L115.4 97.8Q115.4 96.7 115.8 96.0Q116.1 95.2 116.9 94.8Q117.6 94.4 118.6 94.4L118.6 94.4Q119.6 94.4 120.3 94.8Q121.0 95.2 121.4 96.0Q121.8 96.7 121.8 97.8L121.8 97.8Q121.8 98.8 121.4 99.5Q121.0 100.3 120.3 100.7Q119.6 101.1 118.6 101.1ZM118.6 99.7L118.6 99.7Q119.0 99.7 119.4 99.5Q119.7 99.2 119.8 98.8Q120.0 98.3 120.0 97.7L120.0 97.7Q120.0 97.2 119.8 96.7Q119.7 96.3 119.4 96.0Q119.0 95.8 118.6 95.8L118.6 95.8Q118.1 95.8 117.8 96.0Q117.5 96.3 117.3 96.7Q117.2 97.2 117.2 97.7L117.2 97.7Q117.2 98.3 117.3 98.8Q117.5 99.2 117.8 99.5Q118.1 99.7 118.6 99.7ZM126.2 101L124.4 101L122.4 94.4L124.3 94.4L124.8 96.9Q125.0 97.5 125.2 98.3L125.2 98.3Q125.3 98.8 125.4 99.4L125.4 99.4Q125.5 98.8 125.6 98.3L125.6 98.3Q125.8 97.5 125.9 96.9L125.9 96.9L126.5 94.4L128.2 94.4L128.7 96.9Q128.9 97.5 129.1 98.3L129.1 98.3Q129.2 98.8 129.3 99.4L129.3 99.4Q129.4 98.8 129.5 98.3L129.5 98.3Q129.7 97.5 129.8 96.9L129.8 96.9L130.4 94.4L132.3 94.4L130.3 101L128.5 101L127.8 98.5Q127.7 98.1 127.6 97.6Q127.5 97.2 127.4 96.7L127.4 96.7Q127.4 96.6 127.3 96.5L127.3 96.5Q127.3 96.6 127.3 96.7L127.3 96.7Q127.2 97.2 127.1 97.6Q127.0 98.1 126.9 98.5L126.9 98.5L126.2 101Z "/></g><defs><clipPath id="satori_bc-id-2-1-1-1" clip-path="url(#satori_cp-id)"><path x="154" y="84" width="78" height="25" d="M160,84 h66 a6,6 0 0 1 6,6 v13 a6,6 0 0 1 -6,6 h-66 a6,6 0 0 1 -6,-6 v-13 a6,6 0 0 1 6,-6"/></clipPath></defs><mask id="satori_om-id-2-1-1-1"><rect x="155" y="85" width="76" height="23" fill="#fff" mask="url(#satori_om-id)"/><path width="78" height="25" fill="none" stroke="#000" stroke-width="2" d="M155.757,85.757 A6,6 0 0 1 160,84 h66 a6,6 0 0 1 6,6 v13 a6,6 0 0 1 -6,6 h-66 a6,6 0 0 1 -6,-6 v-13 A6,6 0 0 1 155.757,85.757"/></mask><path x="154" y="84" width="78" height="25" fill="#60a5fa15" d="M160,84 h66 a6,6 0 0 1 6,6 v13 a6,6 0 0 1 -6,6 h-66 a6,6 0 0 1 -6,-6 v-13 a6,6 0 0 1 6,-6" clip-path="url(#satori_cp-id)" mask="url(#satori_om-id)"/><path width="78" height="25" clip-path="url(#satori_bc-id-2-1-1-1)" fill="none" stroke="#60a5fa35" stroke-width="2" d="M155.757,85.757 A6,6 0 0 1 160,84 h66 a6,6 0 0 1 6,6 v13 a6,6 0 0 1 -6,6 h-66 a6,6 0 0 1 -6,-6 v-13 A6,6 0 0 1 155.757,85.757"/><g mask="url(#satori_om-id)" clip-path="url(#satori_cp-id)"><path fill="rgba(225,220,255,0.85)" d="M170.6 101L168.8 101L168.8 92.3L172.2 92.3Q173.2 92.3 173.9 92.6Q174.6 93.0 175.0 93.7Q175.3 94.4 175.3 95.2L175.3 95.2Q175.3 96.1 174.9 96.7Q174.6 97.4 173.9 97.8Q173.2 98.1 172.2 98.1L172.2 98.1L170.6 98.1L170.6 101ZM170.6 93.7L170.6 96.7L171.9 96.7Q172.4 96.7 172.8 96.5Q173.1 96.3 173.3 96.0Q173.5 95.7 173.5 95.2Q173.5 94.8 173.3 94.4Q173.1 94.1 172.8 93.9Q172.4 93.7 171.9 93.7L171.9 93.7L170.6 93.7ZM176.5 103.3L176.5 103.3L176.9 102.0L177.1 102.0Q177.5 102.1 177.7 102.1Q178.0 102.1 178.2 101.9Q178.3 101.7 178.4 101.4L178.4 101.4L178.4 101.0L176.0 94.4L177.8 94.4L178.9 97.8Q179.1 98.5 179.3 99.1L179.3 99.1Q179.3 99.4 179.3 99.6L179.3 99.6Q179.4 99.4 179.4 99.1L179.4 99.1Q179.6 98.5 179.8 97.8L179.8 97.8L181.0 94.4L182.8 94.4L180.0 101.8Q179.8 102.3 179.5 102.7Q179.2 103.1 178.7 103.3Q178.3 103.5 177.6 103.5L177.6 103.5Q177.3 103.5 177.0 103.4Q176.7 103.4 176.5 103.3ZM186.1 93.8L183.4 93.8L183.4 92.3L190.6 92.3L190.6 93.8L187.9 93.8L187.9 101L186.1 101L186.1 93.8ZM194.7 101.1L194.7 101.1Q193.7 101.1 193.0 100.7Q192.3 100.3 191.9 99.5Q191.5 98.8 191.5 97.8L191.5 97.8Q191.5 96.7 191.9 96.0Q192.3 95.2 193.0 94.8Q193.7 94.4 194.7 94.4L194.7 94.4Q195.7 94.4 196.4 94.8Q197.1 95.2 197.5 96.0Q197.9 96.7 197.9 97.8L197.9 97.8Q197.9 98.8 197.5 99.5Q197.1 100.3 196.4 100.7Q195.7 101.1 194.7 101.1ZM194.7 99.7L194.7 99.7Q195.2 99.7 195.5 99.5Q195.8 99.2 195.9 98.8Q196.1 98.3 196.1 97.7L196.1 97.7Q196.1 97.2 195.9 96.7Q195.8 96.3 195.5 96.0Q195.2 95.8 194.7 95.8L194.7 95.8Q194.2 95.8 193.9 96.0Q193.6 96.3 193.4 96.7Q193.3 97.2 193.3 97.7L193.3 97.7Q193.3 98.3 193.4 98.8Q193.6 99.2 193.9 99.5Q194.2 99.7 194.7 99.7ZM200.9 101L199.1 101L199.1 94.4L200.8 94.4L200.8 95.6L200.9 95.6Q201.1 95.0 201.5 94.7Q201.9 94.4 202.5 94.4L202.5 94.4Q202.6 94.4 202.8 94.4Q202.9 94.4 203.0 94.4L203.0 94.4L203.0 96.0Q202.9 95.9 202.7 95.9Q202.5 95.9 202.3 95.9L202.3 95.9Q201.9 95.9 201.6 96.1Q201.2 96.2 201.1 96.6Q200.9 96.9 200.9 97.3L200.9 97.3L200.9 101ZM206.9 101.1L206.9 101.1Q205.9 101.1 205.2 100.7Q204.5 100.3 204.1 99.5Q203.7 98.8 203.7 97.8L203.7 97.8Q203.7 96.7 204.1 96.0Q204.5 95.2 205.2 94.8Q205.9 94.4 206.9 94.4L206.9 94.4Q207.5 94.4 208.0 94.5Q208.5 94.7 208.9 95.0Q209.3 95.2 209.5 95.6Q209.8 96.0 209.8 96.5L209.8 96.5L208.2 96.9Q208.2 96.6 208.0 96.4Q207.9 96.2 207.8 96.0Q207.6 95.9 207.4 95.8Q207.2 95.8 207.0 95.8L207.0 95.8Q206.5 95.8 206.2 96.0Q205.8 96.3 205.7 96.7Q205.5 97.2 205.5 97.7L205.5 97.7Q205.5 98.3 205.7 98.8Q205.8 99.2 206.2 99.5Q206.5 99.7 207.0 99.7L207.0 99.7Q207.2 99.7 207.4 99.7Q207.6 99.6 207.8 99.4Q208.0 99.3 208.1 99.1Q208.2 98.9 208.2 98.6L208.2 98.6L209.9 98.9Q209.8 99.4 209.5 99.8Q209.3 100.2 208.9 100.5Q208.5 100.8 208.0 101.0Q207.5 101.1 206.9 101.1ZM212.8 97.2L212.8 97.2L212.8 101L211.1 101L211.1 92.3L212.8 92.3L212.8 95.7Q213.0 95.2 213.4 94.8L213.4 94.8Q214.0 94.4 214.8 94.4L214.8 94.4Q215.5 94.4 216.0 94.7Q216.5 95.0 216.8 95.5Q217.0 96.1 217.0 96.8L217.0 96.8L217.0 101L215.3 101L215.3 97.1Q215.3 96.5 215.0 96.2Q214.7 95.8 214.1 95.8L214.1 95.8Q213.7 95.8 213.4 96.0Q213.1 96.2 213.0 96.5Q212.8 96.8 212.8 97.2Z "/></g><defs><clipPath id="satori_bc-id-2-1-1-2" clip-path="url(#satori_cp-id)"><path x="239" y="84" width="97" height="25" d="M245,84 h85 a6,6 0 0 1 6,6 v13 a6,6 0 0 1 -6,6 h-85 a6,6 0 0 1 -6,-6 v-13 a6,6 0 0 1 6,-6"/></clipPath></defs><mask id="satori_om-id-2-1-1-2"><rect x="240" y="85" width="95" height="23" fill="#fff" mask="url(#satori_om-id)"/><path width="97" height="25" fill="none" stroke="#000" stroke-width="2" d="M240.757,85.757 A6,6 0 0 1 245,84 h85 a6,6 0 0 1 6,6 v13 a6,6 0 0 1 -6,6 h-85 a6,6 0 0 1 -6,-6 v-13 A6,6 0 0 1 240.757,85.757"/></mask><path x="239" y="84" width="97" height="25" fill="#60a5fa15" d="M245,84 h85 a6,6 0 0 1 6,6 v13 a6,6 0 0 1 -6,6 h-85 a6,6 0 0 1 -6,-6 v-13 a6,6 0 0 1 6,-6" clip-path="url(#satori_cp-id)" mask="url(#satori_om-id)"/><path width="97" height="25" clip-path="url(#satori_bc-id-2-1-1-2)" fill="none" stroke="#60a5fa35" stroke-width="2" d="M240.757,85.757 A6,6 0 0 1 245,84 h85 a6,6 0 0 1 6,6 v13 a6,6 0 0 1 -6,6 h-85 a6,6 0 0 1 -6,-6 v-13 A6,6 0 0 1 240.757,85.757"/><g mask="url(#satori_om-id)" clip-path="url(#satori_cp-id)"><path fill="rgba(225,220,255,0.85)" d="M257.0 101.1L257.0 101.1Q255.9 101.1 255.2 100.8Q254.4 100.5 254.0 99.9Q253.5 99.2 253.5 98.3L253.5 98.3L255.2 98.3Q255.3 98.7 255.5 99.0Q255.7 99.3 256.1 99.5Q256.5 99.6 257.0 99.6L257.0 99.6Q257.5 99.6 257.8 99.5Q258.2 99.3 258.4 99.1Q258.6 98.8 258.6 98.5L258.6 98.5Q258.6 98.2 258.4 98.0Q258.2 97.8 257.9 97.7Q257.5 97.5 257.1 97.4L257.1 97.4L256.1 97.2Q255.0 96.9 254.4 96.3Q253.7 95.7 253.7 94.8L253.7 94.8Q253.7 94.0 254.2 93.4Q254.6 92.8 255.3 92.5Q256.1 92.2 257.0 92.2L257.0 92.2Q258.0 92.2 258.7 92.5Q259.4 92.8 259.8 93.4Q260.2 94.0 260.2 94.8L260.2 94.8L258.5 94.8Q258.5 94.2 258.1 93.9Q257.7 93.7 257.0 93.7L257.0 93.7Q256.5 93.7 256.2 93.8Q255.9 93.9 255.7 94.1Q255.6 94.4 255.6 94.7L255.6 94.7Q255.6 95.0 255.8 95.2Q256.0 95.4 256.3 95.5Q256.6 95.7 257.0 95.8L257.0 95.8L257.8 96.0Q258.3 96.1 258.8 96.3Q259.3 96.5 259.6 96.8Q260.0 97.1 260.2 97.5Q260.4 98.0 260.4 98.5L260.4 98.5Q260.4 99.3 260.0 99.9Q259.6 100.5 258.8 100.8Q258.1 101.1 257.0 101.1ZM264.5 101.1L264.5 101.1Q263.5 101.1 262.8 100.7Q262.1 100.3 261.7 99.5Q261.3 98.8 261.3 97.8L261.3 97.8Q261.3 96.7 261.7 96.0Q262.1 95.2 262.8 94.8Q263.5 94.4 264.5 94.4L264.5 94.4Q265.1 94.4 265.6 94.5Q266.1 94.7 266.5 95.0Q266.9 95.2 267.1 95.6Q267.4 96.0 267.4 96.5L267.4 96.5L265.8 96.9Q265.8 96.6 265.7 96.4Q265.5 96.2 265.4 96.0Q265.2 95.9 265.0 95.8Q264.8 95.8 264.6 95.8L264.6 95.8Q264.1 95.8 263.8 96.0Q263.4 96.3 263.3 96.7Q263.1 97.2 263.1 97.7L263.1 97.7Q263.1 98.3 263.3 98.8Q263.4 99.2 263.8 99.5Q264.1 99.7 264.6 99.7L264.6 99.7Q264.8 99.7 265.0 99.7Q265.2 99.6 265.4 99.4Q265.6 99.3 265.7 99.1Q265.8 98.9 265.8 98.6L265.8 98.6L267.5 98.9Q267.4 99.4 267.1 99.8Q266.9 100.2 266.5 100.5Q266.1 100.8 265.6 101.0Q265.1 101.1 264.5 101.1ZM270.4 101L268.7 101L268.7 94.4L270.4 94.4L270.4 101ZM269.5 93.6L269.5 93.6Q269.1 93.6 268.9 93.3Q268.6 93.1 268.6 92.7L268.6 92.7Q268.6 92.3 268.9 92.1Q269.1 91.8 269.5 91.8L269.5 91.8Q269.9 91.8 270.2 92.0Q270.5 92.3 270.5 92.7L270.5 92.7Q270.5 93.1 270.2 93.3Q269.9 93.6 269.5 93.6ZM273.7 101L271.9 101L271.9 92.3L273.7 92.3L273.7 97.0L273.8 97.0L275.9 94.4L278.0 94.4L275.5 97.3L278.1 101L276.0 101L274.2 98.3L273.7 98.9L273.7 101ZM280.6 101L278.9 101L278.9 94.4L280.6 94.4L280.6 101ZM279.8 93.6L279.8 93.6Q279.4 93.6 279.1 93.3Q278.8 93.1 278.8 92.7L278.8 92.7Q278.8 92.3 279.1 92.1Q279.4 91.8 279.8 91.8L279.8 91.8Q280.2 91.8 280.4 92.0Q280.7 92.3 280.7 92.7L280.7 92.7Q280.7 93.1 280.4 93.3Q280.2 93.6 279.8 93.6ZM284.2 94.4L285.4 94.4L285.4 95.8L284.2 95.8L284.2 99.1Q284.2 99.4 284.3 99.5Q284.4 99.7 284.8 99.7L284.8 99.7Q284.9 99.7 285.0 99.7Q285.2 99.6 285.3 99.6L285.3 99.6L285.6 100.9Q285.3 101.0 285.0 101.1Q284.7 101.1 284.4 101.1L284.4 101.1Q283.4 101.1 282.9 100.6Q282.4 100.1 282.4 99.2L282.4 99.2L282.4 95.8L281.5 95.8L281.5 94.4L282.4 94.4L282.4 92.9L284.2 92.9L284.2 94.4ZM286.6 96.7L290.6 96.7L290.6 98.1L286.6 98.1L286.6 96.7ZM292.1 92.3L293.9 92.3L293.9 101L292.1 101L292.1 92.3ZM298.4 101.1L298.4 101.1Q297.3 101.1 296.6 100.7Q295.9 100.3 295.5 99.6Q295.1 98.8 295.1 97.8L295.1 97.8Q295.1 96.7 295.5 96.0Q295.9 95.2 296.6 94.8Q297.3 94.4 298.3 94.4L298.3 94.4Q298.9 94.4 299.5 94.6Q300.0 94.8 300.4 95.2Q300.9 95.6 301.1 96.2Q301.3 96.8 301.3 97.7L301.3 97.7L301.3 98.2L296.9 98.2Q296.9 98.7 297.1 99.0L297.1 99.0Q297.2 99.4 297.6 99.6Q297.9 99.8 298.4 99.8L298.4 99.8Q298.7 99.8 298.9 99.7Q299.2 99.6 299.4 99.5Q299.6 99.3 299.6 99.0L299.6 99.0L301.2 99.3Q301.1 99.9 300.7 100.3Q300.3 100.7 299.7 100.9Q299.1 101.1 298.4 101.1ZM296.9 97.1L296.9 97.1L299.6 97.1Q299.6 96.8 299.5 96.5L299.5 96.5Q299.3 96.1 299.0 95.9Q298.7 95.7 298.3 95.7L298.3 95.7Q297.8 95.7 297.5 95.9Q297.2 96.1 297.0 96.5L297.0 96.5Q296.9 96.7 296.9 97.1ZM304.4 101.1L304.4 101.1Q303.7 101.1 303.3 100.9Q302.8 100.7 302.5 100.3Q302.2 99.8 302.2 99.2L302.2 99.2Q302.2 98.6 302.4 98.3Q302.6 97.9 302.9 97.7Q303.3 97.4 303.7 97.3Q304.2 97.2 304.7 97.2L304.7 97.2Q305.2 97.1 305.6 97.0Q305.9 97.0 306.1 96.9Q306.3 96.8 306.3 96.6L306.3 96.6L306.3 96.5Q306.3 96.3 306.1 96.1Q306.0 95.9 305.8 95.8Q305.6 95.7 305.2 95.7L305.2 95.7Q304.9 95.7 304.6 95.8Q304.4 95.9 304.2 96.0Q304.1 96.2 304.0 96.4L304.0 96.4L302.4 96.2Q302.5 95.6 302.9 95.2Q303.3 94.8 303.9 94.6Q304.5 94.4 305.2 94.4L305.2 94.4Q305.8 94.4 306.3 94.5Q306.8 94.6 307.1 94.9Q307.5 95.1 307.8 95.6Q308.0 96.0 308.0 96.6L308.0 96.6L308.0 101L306.3 101L306.3 100.1L306.3 100.1Q306.1 100.4 305.9 100.6Q305.6 100.9 305.2 101.0Q304.9 101.1 304.4 101.1ZM304.9 99.9L304.9 99.9Q305.3 99.9 305.6 99.7Q305.9 99.6 306.1 99.3Q306.3 99.0 306.3 98.7L306.3 98.7L306.3 97.9Q306.2 98.0 306.0 98.1Q305.9 98.1 305.7 98.1Q305.5 98.2 305.3 98.2Q305.1 98.2 305.0 98.2L305.0 98.2Q304.6 98.3 304.4 98.4Q304.1 98.5 304.0 98.7Q303.9 98.8 303.9 99.1L303.9 99.1Q303.9 99.4 304.0 99.5Q304.1 99.7 304.4 99.8Q304.6 99.9 304.9 99.9ZM311.3 101L309.5 101L309.5 94.4L311.2 94.4L311.2 95.6L311.3 95.6Q311.5 95.0 311.9 94.7Q312.3 94.4 312.9 94.4L312.9 94.4Q313.0 94.4 313.2 94.4Q313.3 94.4 313.4 94.4L313.4 94.4L313.4 96.0Q313.3 95.9 313.1 95.9Q312.9 95.9 312.7 95.9L312.7 95.9Q312.3 95.9 311.9 96.1Q311.6 96.2 311.4 96.6Q311.3 96.9 311.3 97.3L311.3 97.3L311.3 101ZM316.2 97.2L316.2 97.2L316.2 101L314.4 101L314.4 94.4L316.1 94.4L316.1 95.8Q316.3 95.2 316.8 94.8L316.8 94.8Q317.3 94.4 318.1 94.4L318.1 94.4Q318.8 94.4 319.3 94.7Q319.8 95.0 320.1 95.5Q320.4 96.1 320.4 96.8L320.4 96.8L320.4 101L318.6 101L318.6 97.1Q318.6 96.5 318.3 96.2Q318.0 95.8 317.4 95.8L317.4 95.8Q317.1 95.8 316.8 96.0Q316.5 96.2 316.3 96.5Q316.2 96.8 316.2 97.2Z "/></g><defs><clipPath id="satori_bc-id-2-1-1-3" clip-path="url(#satori_cp-id)"><path x="343" y="84" width="91" height="25" d="M349,84 h79 a6,6 0 0 1 6,6 v13 a6,6 0 0 1 -6,6 h-79 a6,6 0 0 1 -6,-6 v-13 a6,6 0 0 1 6,-6"/></clipPath></defs><mask id="satori_om-id-2-1-1-3"><rect x="344" y="85" width="89" height="23" fill="#fff" mask="url(#satori_om-id)"/><path width="91" height="25" fill="none" stroke="#000" stroke-width="2" d="M344.757,85.757 A6,6 0 0 1 349,84 h79 a6,6 0 0 1 6,6 v13 a6,6 0 0 1 -6,6 h-79 a6,6 0 0 1 -6,-6 v-13 A6,6 0 0 1 344.757,85.757"/></mask><path x="343" y="84" width="91" height="25" fill="#60a5fa15" d="M349,84 h79 a6,6 0 0 1 6,6 v13 a6,6 0 0 1 -6,6 h-79 a6,6 0 0 1 -6,-6 v-13 a6,6 0 0 1 6,-6" clip-path="url(#satori_cp-id)" mask="url(#satori_om-id)"/><path width="91" height="25" clip-path="url(#satori_bc-id-2-1-1-3)" fill="none" stroke="#60a5fa35" stroke-width="2" d="M344.757,85.757 A6,6 0 0 1 349,84 h79 a6,6 0 0 1 6,6 v13 a6,6 0 0 1 -6,6 h-79 a6,6 0 0 1 -6,-6 v-13 A6,6 0 0 1 344.757,85.757"/><g mask="url(#satori_om-id)" clip-path="url(#satori_cp-id)"><path fill="rgba(225,220,255,0.85)" d="M363.3 101L357.8 101L357.8 92.3L359.6 92.3L359.6 99.5L363.3 99.5L363.3 101ZM366.4 101.1L366.4 101.1Q365.7 101.1 365.2 100.9Q364.8 100.7 364.5 100.3Q364.2 99.8 364.2 99.2L364.2 99.2Q364.2 98.6 364.4 98.3Q364.6 97.9 364.9 97.7Q365.3 97.4 365.7 97.3Q366.2 97.2 366.7 97.2L366.7 97.2Q367.2 97.1 367.6 97.0Q367.9 97.0 368.1 96.9Q368.2 96.8 368.2 96.6L368.2 96.6L368.2 96.5Q368.2 96.3 368.1 96.1Q368.0 95.9 367.8 95.8Q367.5 95.7 367.2 95.7L367.2 95.7Q366.9 95.7 366.6 95.8Q366.4 95.9 366.2 96.0Q366.1 96.2 366.0 96.4L366.0 96.4L364.4 96.2Q364.5 95.6 364.9 95.2Q365.3 94.8 365.9 94.6Q366.5 94.4 367.2 94.4L367.2 94.4Q367.8 94.4 368.3 94.5Q368.7 94.6 369.1 94.9Q369.5 95.1 369.8 95.6Q370.0 96.0 370.0 96.6L370.0 96.6L370.0 101L368.3 101L368.3 100.1L368.3 100.1Q368.1 100.4 367.9 100.6Q367.6 100.9 367.2 101.0Q366.8 101.1 366.4 101.1ZM366.9 99.9L366.9 99.9Q367.3 99.9 367.6 99.7Q367.9 99.6 368.1 99.3Q368.3 99.0 368.3 98.7L368.3 98.7L368.3 97.9Q368.2 98.0 368.0 98.1Q367.9 98.1 367.7 98.1Q367.5 98.2 367.3 98.2Q367.1 98.2 367.0 98.2L367.0 98.2Q366.6 98.3 366.4 98.4Q366.1 98.5 366.0 98.7Q365.9 98.8 365.9 99.1L365.9 99.1Q365.9 99.4 366 99.5Q366.1 99.7 366.4 99.8Q366.6 99.9 366.9 99.9ZM373.3 97.2L373.3 97.2L373.3 101L371.5 101L371.5 94.4L373.2 94.4L373.2 95.8Q373.4 95.2 373.9 94.8L373.9 94.8Q374.4 94.4 375.2 94.4L375.2 94.4Q375.9 94.4 376.4 94.7Q376.9 95.0 377.2 95.5Q377.5 96.1 377.5 96.8L377.5 96.8L377.5 101L375.7 101L375.7 97.1Q375.7 96.5 375.4 96.2Q375.1 95.8 374.5 95.8L374.5 95.8Q374.2 95.8 373.9 96.0Q373.6 96.2 373.4 96.5Q373.3 96.8 373.3 97.2ZM381.9 103.6L381.9 103.6Q381.1 103.6 380.5 103.4Q379.8 103.2 379.5 102.8Q379.1 102.4 378.9 102.0L378.9 102.0L380.4 101.6Q380.5 101.7 380.7 101.9Q380.9 102.1 381.2 102.2Q381.5 102.3 381.9 102.3L381.9 102.3Q382.5 102.3 382.9 102.0Q383.3 101.7 383.3 101.0L383.3 101.0L383.3 99.8L383.2 99.8Q383.1 100.1 382.8 100.3Q382.6 100.6 382.3 100.8Q381.9 100.9 381.4 100.9L381.4 100.9Q380.6 100.9 380.0 100.6Q379.4 100.2 379.1 99.5Q378.7 98.8 378.7 97.7L378.7 97.7Q378.7 96.6 379.1 95.9Q379.4 95.1 380.0 94.7Q380.6 94.4 381.4 94.4L381.4 94.4Q381.9 94.4 382.3 94.6Q382.7 94.7 382.9 95.0Q383.1 95.3 383.3 95.6L383.3 95.6L383.3 95.6L383.3 94.4L385.1 94.4L385.1 100.9Q385.1 101.8 384.6 102.4Q384.2 103.0 383.5 103.3Q382.8 103.6 381.9 103.6ZM381.9 99.6L381.9 99.6Q382.4 99.6 382.7 99.3Q383.0 99.1 383.2 98.7Q383.3 98.3 383.3 97.7L383.3 97.7Q383.3 97.1 383.2 96.7Q383.0 96.3 382.7 96.0Q382.4 95.8 381.9 95.8L381.9 95.8Q381.5 95.8 381.1 96.0Q380.8 96.3 380.7 96.7Q380.5 97.1 380.5 97.7L380.5 97.7Q380.5 98.3 380.7 98.7Q380.8 99.1 381.1 99.3Q381.5 99.6 381.9 99.6ZM390.4 101.1L390.4 101.1Q389.3 101.1 388.3 100.6Q387.4 100.1 386.9 99.1Q386.4 98.1 386.4 96.6L386.4 96.6Q386.4 95.2 386.9 94.2Q387.4 93.2 388.3 92.7Q389.3 92.2 390.4 92.2L390.4 92.2Q391.2 92.2 391.8 92.4Q392.4 92.6 392.9 93.0Q393.4 93.4 393.8 93.9Q394.1 94.5 394.2 95.3L394.2 95.3L392.4 95.3Q392.3 94.9 392.1 94.6Q392.0 94.3 391.7 94.1Q391.5 93.9 391.1 93.8Q390.8 93.7 390.4 93.7L390.4 93.7Q389.8 93.7 389.3 94.1Q388.7 94.4 388.5 95.1Q388.2 95.7 388.2 96.6L388.2 96.6Q388.2 97.6 388.5 98.2Q388.7 98.9 389.3 99.2Q389.8 99.5 390.4 99.5L390.4 99.5Q390.8 99.5 391.1 99.4Q391.5 99.3 391.7 99.1Q392.0 98.9 392.1 98.7Q392.3 98.4 392.4 98.0L392.4 98.0L394.2 98.0Q394.1 98.6 393.8 99.2Q393.5 99.7 393.0 100.2Q392.6 100.6 391.9 100.9Q391.2 101.1 390.4 101.1ZM397.2 97.2L397.2 97.2L397.2 101L395.4 101L395.4 92.3L397.2 92.3L397.2 95.7Q397.4 95.2 397.8 94.8L397.8 94.8Q398.3 94.4 399.2 94.4L399.2 94.4Q399.8 94.4 400.3 94.7Q400.8 95.0 401.1 95.5Q401.4 96.1 401.4 96.8L401.4 96.8L401.4 101L399.6 101L399.6 97.1Q399.6 96.5 399.3 96.2Q399.0 95.8 398.5 95.8L398.5 95.8Q398.1 95.8 397.8 96.0Q397.5 96.2 397.4 96.5Q397.2 96.8 397.2 97.2ZM404.7 101.1L404.7 101.1Q404.1 101.1 403.6 100.9Q403.1 100.7 402.8 100.3Q402.6 99.8 402.6 99.2L402.6 99.2Q402.6 98.6 402.8 98.3Q403.0 97.9 403.3 97.7Q403.7 97.4 404.1 97.3Q404.5 97.2 405.0 97.2L405.0 97.2Q405.6 97.1 405.9 97.0Q406.3 97.0 406.5 96.9Q406.6 96.8 406.6 96.6L406.6 96.6L406.6 96.5Q406.6 96.3 406.5 96.1Q406.4 95.9 406.1 95.8Q405.9 95.7 405.6 95.7L405.6 95.7Q405.2 95.7 405.0 95.8Q404.7 95.9 404.6 96.0Q404.4 96.2 404.3 96.4L404.3 96.4L402.7 96.2Q402.9 95.6 403.3 95.2Q403.7 94.8 404.3 94.6Q404.9 94.4 405.6 94.4L405.6 94.4Q406.1 94.4 406.6 94.5Q407.1 94.6 407.5 94.9Q407.9 95.1 408.1 95.6Q408.4 96.0 408.4 96.6L408.4 96.6L408.4 101L406.7 101L406.7 100.1L406.6 100.1Q406.5 100.4 406.2 100.6Q406.0 100.9 405.6 101.0Q405.2 101.1 404.7 101.1ZM405.2 99.9L405.2 99.9Q405.6 99.9 406.0 99.7Q406.3 99.6 406.4 99.3Q406.6 99.0 406.6 98.7L406.6 98.7L406.6 97.9Q406.5 98.0 406.4 98.1Q406.2 98.1 406.0 98.1Q405.8 98.2 405.7 98.2Q405.5 98.2 405.3 98.2L405.3 98.2Q405 98.3 404.8 98.4Q404.5 98.5 404.4 98.7Q404.2 98.8 404.2 99.1L404.2 99.1Q404.2 99.4 404.4 99.5Q404.5 99.7 404.7 99.8Q404.9 99.9 405.2 99.9ZM411.6 101L409.9 101L409.9 94.4L411.6 94.4L411.6 101ZM410.7 93.6L410.7 93.6Q410.3 93.6 410.1 93.3Q409.8 93.1 409.8 92.7L409.8 92.7Q409.8 92.3 410.1 92.1Q410.3 91.8 410.7 91.8L410.7 91.8Q411.1 91.8 411.4 92.0Q411.7 92.3 411.7 92.7L411.7 92.7Q411.7 93.1 411.4 93.3Q411.1 93.6 410.7 93.6ZM414.9 97.2L414.9 97.2L414.9 101L413.1 101L413.1 94.4L414.8 94.4L414.8 95.8Q415.1 95.2 415.5 94.8L415.5 94.8Q416.0 94.4 416.8 94.4L416.8 94.4Q417.5 94.4 418.0 94.7Q418.5 95.0 418.8 95.5Q419.1 96.1 419.1 96.8L419.1 96.8L419.1 101L417.3 101L417.3 97.1Q417.3 96.5 417.0 96.2Q416.7 95.8 416.2 95.8L416.2 95.8Q415.8 95.8 415.5 96.0Q415.2 96.2 415.0 96.5Q414.9 96.8 414.9 97.2Z "/></g><defs><clipPath id="satori_bc-id-2-1-1-4" clip-path="url(#satori_cp-id)"><path x="441" y="84" width="109" height="25" d="M447,84 h97 a6,6 0 0 1 6,6 v13 a6,6 0 0 1 -6,6 h-97 a6,6 0 0 1 -6,-6 v-13 a6,6 0 0 1 6,-6"/></clipPath></defs><mask id="satori_om-id-2-1-1-4"><rect x="442" y="85" width="107" height="23" fill="#fff" mask="url(#satori_om-id)"/><path width="109" height="25" fill="none" stroke="#000" stroke-width="2" d="M442.757,85.757 A6,6 0 0 1 447,84 h97 a6,6 0 0 1 6,6 v13 a6,6 0 0 1 -6,6 h-97 a6,6 0 0 1 -6,-6 v-13 A6,6 0 0 1 442.757,85.757"/></mask><path x="441" y="84" width="109" height="25" fill="#60a5fa15" d="M447,84 h97 a6,6 0 0 1 6,6 v13 a6,6 0 0 1 -6,6 h-97 a6,6 0 0 1 -6,-6 v-13 a6,6 0 0 1 6,-6" clip-path="url(#satori_cp-id)" mask="url(#satori_om-id)"/><path width="109" height="25" clip-path="url(#satori_bc-id-2-1-1-4)" fill="none" stroke="#60a5fa35" stroke-width="2" d="M442.757,85.757 A6,6 0 0 1 447,84 h97 a6,6 0 0 1 6,6 v13 a6,6 0 0 1 -6,6 h-97 a6,6 0 0 1 -6,-6 v-13 A6,6 0 0 1 442.757,85.757"/><g mask="url(#satori_om-id)" clip-path="url(#satori_cp-id)"><path fill="rgba(225,220,255,0.85)" d="M457.6 101L455.8 101L455.8 92.3L457.6 92.3L457.6 95.8L461.4 95.8L461.4 92.3L463.2 92.3L463.2 101L461.4 101L461.4 97.3L457.6 97.3L457.6 101ZM467.0 101.1L467.0 101.1Q466.3 101.1 465.8 100.8Q465.3 100.5 465.0 99.9Q464.7 99.4 464.7 98.6L464.7 98.6L464.7 94.4L466.5 94.4L466.5 98.3Q466.5 98.9 466.8 99.3Q467.1 99.6 467.7 99.6L467.7 99.6Q468.0 99.6 468.3 99.5Q468.6 99.3 468.8 99.0Q468.9 98.7 468.9 98.2L468.9 98.2L468.9 94.4L470.7 94.4L470.7 101L469.0 101L469.0 99.6Q468.8 100.3 468.3 100.6L468.3 100.6Q467.8 101.1 467.0 101.1ZM475.1 103.6L475.1 103.6Q474.3 103.6 473.7 103.4Q473.1 103.2 472.7 102.8Q472.3 102.4 472.2 102.0L472.2 102.0L473.7 101.6Q473.7 101.7 473.9 101.9Q474.1 102.1 474.4 102.2Q474.7 102.3 475.1 102.3L475.1 102.3Q475.8 102.3 476.1 102.0Q476.5 101.7 476.5 101.0L476.5 101.0L476.5 99.8L476.4 99.8Q476.3 100.1 476.1 100.3Q475.8 100.6 475.5 100.8Q475.1 100.9 474.6 100.9L474.6 100.9Q473.8 100.9 473.2 100.6Q472.6 100.2 472.3 99.5Q471.9 98.8 471.9 97.7L471.9 97.7Q471.9 96.6 472.3 95.9Q472.6 95.1 473.2 94.7Q473.9 94.4 474.6 94.4L474.6 94.4Q475.1 94.4 475.5 94.6Q475.9 94.7 476.1 95.0Q476.3 95.3 476.5 95.6L476.5 95.6L476.5 95.6L476.5 94.4L478.3 94.4L478.3 100.9Q478.3 101.8 477.9 102.4Q477.5 103.0 476.7 103.3Q476.0 103.6 475.1 103.6ZM475.1 99.6L475.1 99.6Q475.6 99.6 475.9 99.3Q476.2 99.1 476.4 98.7Q476.5 98.3 476.5 97.7L476.5 97.7Q476.5 97.1 476.4 96.7Q476.2 96.3 475.9 96.0Q475.6 95.8 475.1 95.8L475.1 95.8Q474.7 95.8 474.4 96.0Q474.0 96.3 473.9 96.7Q473.7 97.1 473.7 97.7L473.7 97.7Q473.7 98.3 473.9 98.7Q474.0 99.1 474.4 99.3Q474.7 99.6 475.1 99.6ZM482.7 103.6L482.7 103.6Q481.9 103.6 481.3 103.4Q480.6 103.2 480.3 102.8Q479.9 102.4 479.7 102.0L479.7 102.0L481.2 101.6Q481.3 101.7 481.5 101.9Q481.7 102.1 482.0 102.2Q482.2 102.3 482.7 102.3L482.7 102.3Q483.3 102.3 483.7 102.0Q484.1 101.7 484.1 101.0L484.1 101.0L484.1 99.8L484.0 99.8Q483.9 100.1 483.6 100.3Q483.4 100.6 483.1 100.8Q482.7 100.9 482.2 100.9L482.2 100.9Q481.4 100.9 480.8 100.6Q480.2 100.2 479.9 99.5Q479.5 98.8 479.5 97.7L479.5 97.7Q479.5 96.6 479.9 95.9Q480.2 95.1 480.8 94.7Q481.4 94.4 482.2 94.4L482.2 94.4Q482.7 94.4 483.1 94.6Q483.5 94.7 483.7 95.0Q483.9 95.3 484.0 95.6L484.0 95.6L484.1 95.6L484.1 94.4L485.8 94.4L485.8 100.9Q485.8 101.8 485.4 102.4Q485.0 103.0 484.3 103.3Q483.6 103.6 482.7 103.6ZM482.7 99.6L482.7 99.6Q483.2 99.6 483.5 99.3Q483.8 99.1 484.0 98.7Q484.1 98.3 484.1 97.7L484.1 97.7Q484.1 97.1 484.0 96.7Q483.8 96.3 483.5 96.0Q483.2 95.8 482.7 95.8L482.7 95.8Q482.2 95.8 481.9 96.0Q481.6 96.3 481.5 96.7Q481.3 97.1 481.3 97.7L481.3 97.7Q481.3 98.3 481.5 98.7Q481.6 99.1 481.9 99.3Q482.3 99.6 482.7 99.6ZM489.1 101L487.3 101L487.3 94.4L489.1 94.4L489.1 101ZM488.2 93.6L488.2 93.6Q487.8 93.6 487.5 93.3Q487.3 93.1 487.3 92.7L487.3 92.7Q487.3 92.3 487.5 92.1Q487.8 91.8 488.2 91.8L488.2 91.8Q488.6 91.8 488.9 92.0Q489.2 92.3 489.2 92.7L489.2 92.7Q489.2 93.1 488.9 93.3Q488.6 93.6 488.2 93.6ZM492.4 97.2L492.4 97.2L492.4 101L490.6 101L490.6 94.4L492.3 94.4L492.3 95.8Q492.5 95.2 493.0 94.8L493.0 94.8Q493.5 94.4 494.3 94.4L494.3 94.4Q495.0 94.4 495.5 94.7Q496.0 95.0 496.3 95.5Q496.6 96.1 496.6 96.8L496.6 96.8L496.6 101L494.8 101L494.8 97.1Q494.8 96.5 494.5 96.2Q494.2 95.8 493.6 95.8L493.6 95.8Q493.3 95.8 493.0 96.0Q492.7 96.2 492.5 96.5Q492.4 96.8 492.4 97.2ZM501.0 103.6L501.0 103.6Q500.2 103.6 499.6 103.4Q498.9 103.2 498.6 102.8Q498.2 102.4 498.0 102.0L498.0 102.0L499.5 101.6Q499.6 101.7 499.8 101.9Q500.0 102.1 500.3 102.2Q500.6 102.3 501.0 102.3L501.0 102.3Q501.6 102.3 502.0 102.0Q502.4 101.7 502.4 101.0L502.4 101.0L502.4 99.8L502.3 99.8Q502.2 100.1 501.9 100.3Q501.7 100.6 501.4 100.8Q501.0 100.9 500.5 100.9L500.5 100.9Q499.7 100.9 499.1 100.6Q498.5 100.2 498.2 99.5Q497.8 98.8 497.8 97.7L497.8 97.7Q497.8 96.6 498.2 95.9Q498.5 95.1 499.1 94.7Q499.7 94.4 500.5 94.4L500.5 94.4Q501.0 94.4 501.4 94.6Q501.8 94.7 502.0 95.0Q502.2 95.3 502.3 95.6L502.3 95.6L502.4 95.6L502.4 94.4L504.2 94.4L504.2 100.9Q504.2 101.8 503.7 102.4Q503.3 103.0 502.6 103.3Q501.9 103.6 501.0 103.6ZM501.0 99.6L501.0 99.6Q501.5 99.6 501.8 99.3Q502.1 99.1 502.3 98.7Q502.4 98.3 502.4 97.7L502.4 97.7Q502.4 97.1 502.3 96.7Q502.1 96.3 501.8 96.0Q501.5 95.8 501.0 95.8L501.0 95.8Q500.6 95.8 500.2 96.0Q499.9 96.3 499.8 96.7Q499.6 97.1 499.6 97.7L499.6 97.7Q499.6 98.3 499.8 98.7Q499.9 99.1 500.2 99.3Q500.6 99.6 501.0 99.6Z M510.3 101L508.5 101L508.5 92.3L514.3 92.3L514.3 93.8L510.3 93.8L510.3 96.2L513.9 96.2L513.9 97.6L510.3 97.6L510.3 101ZM517.4 101.1L517.4 101.1Q516.7 101.1 516.3 100.9Q515.8 100.7 515.5 100.3Q515.2 99.8 515.2 99.2L515.2 99.2Q515.2 98.6 515.4 98.3Q515.6 97.9 515.9 97.7Q516.3 97.4 516.7 97.3Q517.2 97.2 517.7 97.2L517.7 97.2Q518.2 97.1 518.6 97.0Q518.9 97.0 519.1 96.9Q519.2 96.8 519.2 96.6L519.2 96.6L519.2 96.5Q519.2 96.3 519.1 96.1Q519.0 95.9 518.8 95.8Q518.6 95.7 518.2 95.7L518.2 95.7Q517.9 95.7 517.6 95.8Q517.4 95.9 517.2 96.0Q517.1 96.2 517.0 96.4L517.0 96.4L515.4 96.2Q515.5 95.6 515.9 95.2Q516.3 94.8 516.9 94.6Q517.5 94.4 518.2 94.4L518.2 94.4Q518.8 94.4 519.3 94.5Q519.8 94.6 520.1 94.9Q520.5 95.1 520.8 95.6Q521.0 96.0 521.0 96.6L521.0 96.6L521.0 101L519.3 101L519.3 100.1L519.3 100.1Q519.1 100.4 518.9 100.6Q518.6 100.9 518.2 101.0Q517.9 101.1 517.4 101.1ZM517.9 99.9L517.9 99.9Q518.3 99.9 518.6 99.7Q518.9 99.6 519.1 99.3Q519.3 99.0 519.3 98.7L519.3 98.7L519.3 97.9Q519.2 98.0 519.0 98.1Q518.9 98.1 518.7 98.1Q518.5 98.2 518.3 98.2Q518.1 98.2 518.0 98.2L518.0 98.2Q517.6 98.3 517.4 98.4Q517.1 98.5 517.0 98.7Q516.9 98.8 516.9 99.1L516.9 99.1Q516.9 99.4 517.0 99.5Q517.1 99.7 517.4 99.8Q517.6 99.9 517.9 99.9ZM525.4 101.1L525.4 101.1Q524.4 101.1 523.7 100.7Q523.0 100.3 522.6 99.5Q522.2 98.8 522.2 97.8L522.2 97.8Q522.2 96.7 522.6 96.0Q523.0 95.2 523.7 94.8Q524.4 94.4 525.4 94.4L525.4 94.4Q526.0 94.4 526.5 94.5Q527 94.7 527.4 95.0Q527.8 95.2 528.0 95.6Q528.3 96.0 528.3 96.5L528.3 96.5L526.7 96.9Q526.7 96.6 526.5 96.4Q526.4 96.2 526.3 96.0Q526.1 95.9 525.9 95.8Q525.7 95.8 525.5 95.8L525.5 95.8Q525.0 95.8 524.7 96.0Q524.3 96.3 524.2 96.7Q524.0 97.2 524.0 97.7L524.0 97.7Q524.0 98.3 524.2 98.8Q524.3 99.2 524.7 99.5Q525.0 99.7 525.5 99.7L525.5 99.7Q525.7 99.7 525.9 99.7Q526.1 99.6 526.3 99.4Q526.5 99.3 526.6 99.1Q526.7 98.9 526.7 98.6L526.7 98.6L528.4 98.9Q528.3 99.4 528.0 99.8Q527.8 100.2 527.4 100.5Q527.0 100.8 526.5 101.0Q526.0 101.1 525.4 101.1ZM532.5 101.1L532.5 101.1Q531.5 101.1 530.8 100.7Q530.1 100.3 529.7 99.6Q529.3 98.8 529.3 97.8L529.3 97.8Q529.3 96.7 529.7 96.0Q530.1 95.2 530.8 94.8Q531.5 94.4 532.4 94.4L532.4 94.4Q533.1 94.4 533.6 94.6Q534.2 94.8 534.6 95.2Q535.0 95.6 535.3 96.2Q535.5 96.8 535.5 97.7L535.5 97.7L535.5 98.2L531.0 98.2Q531.0 98.7 531.2 99.0L531.2 99.0Q531.4 99.4 531.8 99.6Q532.1 99.8 532.6 99.8L532.6 99.8Q532.9 99.8 533.1 99.7Q533.4 99.6 533.5 99.5Q533.7 99.3 533.8 99.0L533.8 99.0L535.4 99.3Q535.3 99.9 534.9 100.3Q534.5 100.7 533.9 100.9Q533.3 101.1 532.5 101.1ZM531.0 97.1L531.0 97.1L533.8 97.1Q533.8 96.8 533.7 96.5L533.7 96.5Q533.5 96.1 533.2 95.9Q532.9 95.7 532.5 95.7L532.5 95.7Q532.0 95.7 531.7 95.9Q531.4 96.1 531.2 96.5L531.2 96.5Q531.1 96.7 531.0 97.1Z "/></g><defs><clipPath id="satori_bc-id-2-1-1-5" clip-path="url(#satori_cp-id)"><path x="557" y="84" width="78" height="25" d="M563,84 h66 a6,6 0 0 1 6,6 v13 a6,6 0 0 1 -6,6 h-66 a6,6 0 0 1 -6,-6 v-13 a6,6 0 0 1 6,-6"/></clipPath></defs><mask id="satori_om-id-2-1-1-5"><rect x="558" y="85" width="76" height="23" fill="#fff" mask="url(#satori_om-id)"/><path width="78" height="25" fill="none" stroke="#000" stroke-width="2" d="M558.757,85.757 A6,6 0 0 1 563,84 h66 a6,6 0 0 1 6,6 v13 a6,6 0 0 1 -6,6 h-66 a6,6 0 0 1 -6,-6 v-13 A6,6 0 0 1 558.757,85.757"/></mask><path x="557" y="84" width="78" height="25" fill="#60a5fa15" d="M563,84 h66 a6,6 0 0 1 6,6 v13 a6,6 0 0 1 -6,6 h-66 a6,6 0 0 1 -6,-6 v-13 a6,6 0 0 1 6,-6" clip-path="url(#satori_cp-id)" mask="url(#satori_om-id)"/><path width="78" height="25" clip-path="url(#satori_bc-id-2-1-1-5)" fill="none" stroke="#60a5fa35" stroke-width="2" d="M558.757,85.757 A6,6 0 0 1 563,84 h66 a6,6 0 0 1 6,6 v13 a6,6 0 0 1 -6,6 h-66 a6,6 0 0 1 -6,-6 v-13 A6,6 0 0 1 558.757,85.757"/><g mask="url(#satori_om-id)" clip-path="url(#satori_cp-id)"><path fill="rgba(225,220,255,0.85)" d="M575.6 101.1L575.6 101.1Q574.5 101.1 573.5 100.6Q572.6 100.1 572.1 99.1Q571.6 98.1 571.6 96.6L571.6 96.6Q571.6 95.2 572.1 94.2Q572.6 93.2 573.5 92.7Q574.5 92.2 575.6 92.2L575.6 92.2Q576.8 92.2 577.7 92.7Q578.6 93.2 579.2 94.2Q579.7 95.2 579.7 96.6L579.7 96.6Q579.7 98.1 579.2 99.1Q578.6 100.1 577.7 100.6Q576.8 101.1 575.6 101.1ZM575.6 99.5L575.6 99.5Q576.3 99.5 576.8 99.2Q577.3 98.9 577.6 98.2Q577.9 97.6 577.9 96.6L577.9 96.6Q577.9 95.7 577.6 95.0Q577.3 94.4 576.8 94.1Q576.3 93.7 575.6 93.7L575.6 93.7Q574.9 93.7 574.4 94.1Q573.9 94.4 573.6 95.1Q573.4 95.7 573.4 96.6L573.4 96.6Q573.4 97.6 573.6 98.2Q573.9 98.9 574.4 99.2Q574.9 99.5 575.6 99.5ZM582.8 103.4L581.0 103.4L581.0 94.4L582.7 94.4L582.7 95.6L582.8 95.6Q582.9 95.3 583.2 95.0Q583.4 94.7 583.8 94.6Q584.1 94.4 584.7 94.4L584.7 94.4Q585.4 94.4 586.0 94.7Q586.6 95.1 587.0 95.9Q587.3 96.6 587.3 97.7L587.3 97.7Q587.3 98.8 587.0 99.6Q586.6 100.3 586.0 100.7Q585.4 101.1 584.7 101.1L584.7 101.1Q584.1 101.1 583.8 100.9Q583.4 100.7 583.2 100.5Q582.9 100.2 582.8 100.0L582.8 100.0L582.8 100.0L582.8 103.4ZM584.1 99.7L584.1 99.7Q584.6 99.7 584.9 99.4Q585.2 99.2 585.4 98.8Q585.5 98.3 585.5 97.7L585.5 97.7Q585.5 97.2 585.4 96.7Q585.2 96.3 584.9 96.0Q584.6 95.8 584.1 95.8L584.1 95.8Q583.7 95.8 583.4 96.0Q583.0 96.3 582.9 96.7Q582.7 97.1 582.7 97.7L582.7 97.7Q582.7 98.3 582.9 98.8Q583.0 99.2 583.4 99.5Q583.7 99.7 584.1 99.7ZM591.5 101.1L591.5 101.1Q590.5 101.1 589.8 100.7Q589.1 100.3 588.7 99.6Q588.3 98.8 588.3 97.8L588.3 97.8Q588.3 96.7 588.7 96.0Q589.1 95.2 589.8 94.8Q590.5 94.4 591.4 94.4L591.4 94.4Q592.1 94.4 592.6 94.6Q593.2 94.8 593.6 95.2Q594.0 95.6 594.3 96.2Q594.5 96.8 594.5 97.7L594.5 97.7L594.5 98.2L590.0 98.2Q590.0 98.7 590.2 99.0L590.2 99.0Q590.4 99.4 590.7 99.6Q591.1 99.8 591.5 99.8L591.5 99.8Q591.9 99.8 592.1 99.7Q592.4 99.6 592.5 99.5Q592.7 99.3 592.8 99.0L592.8 99.0L594.4 99.3Q594.3 99.9 593.9 100.3Q593.5 100.7 592.9 100.9Q592.3 101.1 591.5 101.1ZM590.0 97.1L590.0 97.1L592.8 97.1Q592.8 96.8 592.7 96.5L592.7 96.5Q592.5 96.1 592.2 95.9Q591.9 95.7 591.4 95.7L591.4 95.7Q591.0 95.7 590.7 95.9Q590.4 96.1 590.2 96.5L590.2 96.5Q590.1 96.7 590.0 97.1ZM597.5 97.2L597.5 97.2L597.5 101L595.7 101L595.7 94.4L597.4 94.4L597.4 95.8Q597.6 95.2 598.1 94.8L598.1 94.8Q598.6 94.4 599.4 94.4L599.4 94.4Q600.1 94.4 600.6 94.7Q601.1 95.0 601.4 95.5Q601.7 96.1 601.7 96.8L601.7 96.8L601.7 101L599.9 101L599.9 97.1Q599.9 96.5 599.6 96.2Q599.3 95.8 598.7 95.8L598.7 95.8Q598.4 95.8 598.1 96.0Q597.8 96.2 597.6 96.5Q597.5 96.8 597.5 97.2ZM607.0 101.1L607.0 101.1Q605.9 101.1 605.0 100.6Q604.0 100.1 603.5 99.1Q603.0 98.1 603.0 96.6L603.0 96.6Q603.0 95.2 603.5 94.2Q604.0 93.2 605.0 92.7Q605.9 92.2 607.0 92.2L607.0 92.2Q607.8 92.2 608.4 92.4Q609.1 92.6 609.6 93.0Q610.1 93.4 610.4 93.9Q610.7 94.5 610.8 95.3L610.8 95.3L609.0 95.3Q608.9 94.9 608.8 94.6Q608.6 94.3 608.3 94.1Q608.1 93.9 607.8 93.8Q607.4 93.7 607.1 93.7L607.1 93.7Q606.4 93.7 605.9 94.1Q605.4 94.4 605.1 95.1Q604.8 95.7 604.8 96.6L604.8 96.6Q604.8 97.6 605.1 98.2Q605.4 98.9 605.9 99.2Q606.4 99.5 607.1 99.5L607.1 99.5Q607.4 99.5 607.8 99.4Q608.1 99.3 608.3 99.1Q608.6 98.9 608.8 98.7Q608.9 98.4 609.0 98.0L609.0 98.0L610.8 98.0Q610.7 98.6 610.4 99.2Q610.1 99.7 609.7 100.2Q609.2 100.6 608.5 100.9Q607.9 101.1 607.0 101.1ZM617.0 101L614.7 101L611.6 92.3L613.6 92.3L615.0 96.5Q615.2 97.3 615.5 98.2L615.5 98.2Q615.7 98.9 615.8 99.6L615.8 99.6Q616.0 98.9 616.2 98.2L616.2 98.2Q616.4 97.3 616.7 96.5L616.7 96.5L618.0 92.3L620.0 92.3L617.0 101Z "/></g><defs><clipPath id="satori_bc-id-2-1-1-6" clip-path="url(#satori_cp-id)"><path x="642" y="84" width="74" height="25" d="M648,84 h62 a6,6 0 0 1 6,6 v13 a6,6 0 0 1 -6,6 h-62 a6,6 0 0 1 -6,-6 v-13 a6,6 0 0 1 6,-6"/></clipPath></defs><mask id="satori_om-id-2-1-1-6"><rect x="643" y="85" width="72" height="23" fill="#fff" mask="url(#satori_om-id)"/><path width="74" height="25" fill="none" stroke="#000" stroke-width="2" d="M643.757,85.757 A6,6 0 0 1 648,84 h62 a6,6 0 0 1 6,6 v13 a6,6 0 0 1 -6,6 h-62 a6,6 0 0 1 -6,-6 v-13 A6,6 0 0 1 643.757,85.757"/></mask><path x="642" y="84" width="74" height="25" fill="#60a5fa15" d="M648,84 h62 a6,6 0 0 1 6,6 v13 a6,6 0 0 1 -6,6 h-62 a6,6 0 0 1 -6,-6 v-13 a6,6 0 0 1 6,-6" clip-path="url(#satori_cp-id)" mask="url(#satori_om-id)"/><path width="74" height="25" clip-path="url(#satori_bc-id-2-1-1-6)" fill="none" stroke="#60a5fa35" stroke-width="2" d="M643.757,85.757 A6,6 0 0 1 648,84 h62 a6,6 0 0 1 6,6 v13 a6,6 0 0 1 -6,6 h-62 a6,6 0 0 1 -6,-6 v-13 A6,6 0 0 1 643.757,85.757"/><g mask="url(#satori_om-id)" clip-path="url(#satori_cp-id)"><path fill="rgba(225,220,255,0.85)" d="M658.6 101L656.8 101L656.8 92.3L662.5 92.3L662.5 93.8L658.6 93.8L658.6 96.2L662.1 96.2L662.1 97.6L658.6 97.6L658.6 101ZM665.6 101.1L665.6 101.1Q665 101.1 664.5 100.9Q664.0 100.7 663.7 100.3Q663.4 99.8 663.4 99.2L663.4 99.2Q663.4 98.6 663.6 98.3Q663.8 97.9 664.2 97.7Q664.5 97.4 665.0 97.3Q665.4 97.2 665.9 97.2L665.9 97.2Q666.5 97.1 666.8 97.0Q667.2 97.0 667.3 96.9Q667.5 96.8 667.5 96.6L667.5 96.6L667.5 96.5Q667.5 96.3 667.4 96.1Q667.3 95.9 667.0 95.8Q666.8 95.7 666.5 95.7L666.5 95.7Q666.1 95.7 665.9 95.8Q665.6 95.9 665.5 96.0Q665.3 96.2 665.2 96.4L665.2 96.4L663.6 96.2Q663.8 95.6 664.2 95.2Q664.6 94.8 665.2 94.6Q665.8 94.4 666.5 94.4L666.5 94.4Q667.0 94.4 667.5 94.5Q668.0 94.6 668.4 94.9Q668.8 95.1 669.0 95.6Q669.3 96.0 669.3 96.6L669.3 96.6L669.3 101L667.6 101L667.6 100.1L667.5 100.1Q667.4 100.4 667.1 100.6Q666.9 100.9 666.5 101.0Q666.1 101.1 665.6 101.1ZM666.1 99.9L666.1 99.9Q666.5 99.9 666.8 99.7Q667.2 99.6 667.3 99.3Q667.5 99.0 667.5 98.7L667.5 98.7L667.5 97.9Q667.4 98.0 667.3 98.1Q667.1 98.1 666.9 98.1Q666.7 98.2 666.5 98.2Q666.4 98.2 666.2 98.2L666.2 98.2Q665.9 98.3 665.6 98.4Q665.4 98.5 665.3 98.7Q665.1 98.8 665.1 99.1L665.1 99.1Q665.1 99.4 665.3 99.5Q665.4 99.7 665.6 99.8Q665.8 99.9 666.1 99.9ZM673.4 101.1L673.4 101.1Q672.6 101.1 672.0 100.9Q671.4 100.7 671.0 100.2Q670.6 99.8 670.5 99.2L670.5 99.2L672.1 98.9Q672.2 99.4 672.6 99.6Q672.9 99.8 673.4 99.8L673.4 99.8Q673.9 99.8 674.2 99.6Q674.5 99.5 674.5 99.2L674.5 99.2Q674.5 98.9 674.3 98.7Q674.1 98.6 673.7 98.5L673.7 98.5L672.5 98.3Q671.6 98.1 671.1 97.6Q670.6 97.1 670.6 96.4L670.6 96.4Q670.6 95.8 671.0 95.3Q671.3 94.9 671.9 94.6Q672.6 94.4 673.4 94.4L673.4 94.4Q674.2 94.4 674.7 94.6Q675.3 94.8 675.7 95.2Q676.0 95.6 676.1 96.1L676.1 96.1L674.6 96.4Q674.5 96.1 674.2 95.8Q673.9 95.6 673.4 95.6L673.4 95.6Q673.0 95.6 672.7 95.8Q672.4 96.0 672.4 96.3L672.4 96.3Q672.4 96.5 672.6 96.7Q672.8 96.9 673.2 97.0L673.2 97.0L674.4 97.2Q675.4 97.4 675.8 97.8Q676.3 98.3 676.3 99.0L676.3 99.0Q676.3 99.6 675.9 100.1Q675.5 100.6 674.9 100.9Q674.2 101.1 673.4 101.1ZM679.5 94.4L680.7 94.4L680.7 95.8L679.5 95.8L679.5 99.1Q679.5 99.4 679.6 99.5Q679.8 99.7 680.1 99.7L680.1 99.7Q680.2 99.7 680.4 99.7Q680.6 99.6 680.7 99.6L680.7 99.6L680.9 100.9Q680.6 101.0 680.3 101.1Q680.0 101.1 679.8 101.1L679.8 101.1Q678.8 101.1 678.3 100.6Q677.8 100.1 677.8 99.2L677.8 99.2L677.8 95.8L676.8 95.8L676.8 94.4L677.8 94.4L677.8 92.9L679.5 92.9L679.5 94.4ZM683.4 101L681.4 101L684.4 92.3L686.7 92.3L689.8 101L687.8 101L687.1 99.0L684.0 99.0L683.4 101ZM684.5 97.6L686.7 97.6L686.4 96.8Q686.2 96.0 685.9 95L685.9 95Q685.7 94.4 685.5 93.7L685.5 93.7Q685.4 94.4 685.2 95.0L685.2 95.0Q685.0 96.0 684.7 96.8L684.7 96.8L684.5 97.6ZM692.7 101L690.9 101L690.9 92.3L694.3 92.3Q695.3 92.3 696.0 92.6Q696.7 93.0 697.0 93.7Q697.4 94.4 697.4 95.2L697.4 95.2Q697.4 96.1 697.0 96.7Q696.7 97.4 696.0 97.8Q695.2 98.1 694.2 98.1L694.2 98.1L692.7 98.1L692.7 101ZM692.7 93.7L692.7 96.7L694.0 96.7Q694.5 96.7 694.9 96.5Q695.2 96.3 695.4 96.0Q695.6 95.7 695.6 95.2Q695.6 94.8 695.4 94.4Q695.2 94.1 694.9 93.9Q694.5 93.7 693.9 93.7L693.9 93.7L692.7 93.7ZM698.7 92.3L700.4 92.3L700.4 101L698.7 101L698.7 92.3Z "/></g><defs><clipPath id="satori_bc-id-2-1-1-7" clip-path="url(#satori_cp-id)"><path x="723" y="84" width="59" height="25" d="M729,84 h47 a6,6 0 0 1 6,6 v13 a6,6 0 0 1 -6,6 h-47 a6,6 0 0 1 -6,-6 v-13 a6,6 0 0 1 6,-6"/></clipPath></defs><mask id="satori_om-id-2-1-1-7"><rect x="724" y="85" width="57" height="23" fill="#fff" mask="url(#satori_om-id)"/><path width="59" height="25" fill="none" stroke="#000" stroke-width="2" d="M724.757,85.757 A6,6 0 0 1 729,84 h47 a6,6 0 0 1 6,6 v13 a6,6 0 0 1 -6,6 h-47 a6,6 0 0 1 -6,-6 v-13 A6,6 0 0 1 724.757,85.757"/></mask><path x="723" y="84" width="59" height="25" fill="#60a5fa15" d="M729,84 h47 a6,6 0 0 1 6,6 v13 a6,6 0 0 1 -6,6 h-47 a6,6 0 0 1 -6,-6 v-13 a6,6 0 0 1 6,-6" clip-path="url(#satori_cp-id)" mask="url(#satori_om-id)"/><path width="59" height="25" clip-path="url(#satori_bc-id-2-1-1-7)" fill="none" stroke="#60a5fa35" stroke-width="2" d="M724.757,85.757 A6,6 0 0 1 729,84 h47 a6,6 0 0 1 6,6 v13 a6,6 0 0 1 -6,6 h-47 a6,6 0 0 1 -6,-6 v-13 A6,6 0 0 1 724.757,85.757"/><g mask="url(#satori_om-id)" clip-path="url(#satori_cp-id)"><path fill="rgba(225,220,255,0.85)" d="M739.6 101L737.8 101L737.8 92.3L743.5 92.3L743.5 93.8L739.6 93.8L739.6 96.2L743.1 96.2L743.1 97.6L739.6 97.6L739.6 101ZM744.8 92.3L746.6 92.3L746.6 101L744.8 101L744.8 92.3ZM749.9 101.1L749.9 101.1Q749.3 101.1 748.8 100.9Q748.3 100.7 748.0 100.3Q747.7 99.8 747.7 99.2L747.7 99.2Q747.7 98.6 747.9 98.3Q748.1 97.9 748.4 97.7Q748.8 97.4 749.2 97.3Q749.7 97.2 750.2 97.2L750.2 97.2Q750.7 97.1 751.1 97.0Q751.4 97.0 751.6 96.9Q751.8 96.8 751.8 96.6L751.8 96.6L751.8 96.5Q751.8 96.3 751.6 96.1Q751.5 95.9 751.3 95.8Q751.1 95.7 750.7 95.7L750.7 95.7Q750.4 95.7 750.1 95.8Q749.9 95.9 749.7 96.0Q749.6 96.2 749.5 96.4L749.5 96.4L747.9 96.2Q748.1 95.6 748.4 95.2Q748.8 94.8 749.4 94.6Q750.0 94.4 750.7 94.4L750.7 94.4Q751.3 94.4 751.8 94.5Q752.3 94.6 752.7 94.9Q753.0 95.1 753.3 95.6Q753.5 96.0 753.5 96.6L753.5 96.6L753.5 101L751.8 101L751.8 100.1L751.8 100.1Q751.6 100.4 751.4 100.6Q751.1 100.9 750.7 101.0Q750.4 101.1 749.9 101.1ZM750.4 99.9L750.4 99.9Q750.8 99.9 751.1 99.7Q751.4 99.6 751.6 99.3Q751.8 99.0 751.8 98.7L751.8 98.7L751.8 97.9Q751.7 98.0 751.5 98.1Q751.4 98.1 751.2 98.1Q751.0 98.2 750.8 98.2Q750.6 98.2 750.5 98.2L750.5 98.2Q750.1 98.3 749.9 98.4Q749.7 98.5 749.5 98.7Q749.4 98.8 749.4 99.1L749.4 99.1Q749.4 99.4 749.5 99.5Q749.6 99.7 749.9 99.8Q750.1 99.9 750.4 99.9ZM757.6 101.1L757.6 101.1Q756.8 101.1 756.2 100.9Q755.6 100.7 755.2 100.2Q754.8 99.8 754.7 99.2L754.7 99.2L756.4 98.9Q756.5 99.4 756.8 99.6Q757.1 99.8 757.7 99.8L757.7 99.8Q758.2 99.8 758.5 99.6Q758.8 99.5 758.8 99.2L758.8 99.2Q758.8 98.9 758.5 98.7Q758.3 98.6 757.9 98.5L757.9 98.5L756.8 98.3Q755.8 98.1 755.4 97.6Q754.9 97.1 754.9 96.4L754.9 96.4Q754.9 95.8 755.2 95.3Q755.6 94.9 756.2 94.6Q756.8 94.4 757.6 94.4L757.6 94.4Q758.4 94.4 759.0 94.6Q759.6 94.8 759.9 95.2Q760.3 95.6 760.4 96.1L760.4 96.1L758.8 96.4Q758.7 96.1 758.4 95.8Q758.1 95.6 757.7 95.6L757.7 95.6Q757.2 95.6 756.9 95.8Q756.6 96.0 756.6 96.3L756.6 96.3Q756.6 96.5 756.8 96.7Q757.0 96.9 757.5 97.0L757.5 97.0L758.7 97.2Q759.6 97.4 760.1 97.8Q760.5 98.3 760.5 99.0L760.5 99.0Q760.5 99.6 760.2 100.1Q759.8 100.6 759.1 100.9Q758.5 101.1 757.6 101.1ZM763.5 101L761.7 101L761.7 92.3L763.5 92.3L763.5 97.0L763.6 97.0L765.7 94.4L767.8 94.4L765.3 97.3L767.9 101L765.8 101L764.0 98.3L763.5 98.9L763.5 101Z "/></g><defs><clipPath id="satori_bc-id-2-1-1-8" clip-path="url(#satori_cp-id)"><path x="49" y="116" width="82" height="25" d="M55,116 h70 a6,6 0 0 1 6,6 v13 a6,6 0 0 1 -6,6 h-70 a6,6 0 0 1 -6,-6 v-13 a6,6 0 0 1 6,-6"/></clipPath></defs><mask id="satori_om-id-2-1-1-8"><rect x="50" y="117" width="80" height="23" fill="#fff" mask="url(#satori_om-id)"/><path width="82" height="25" fill="none" stroke="#000" stroke-width="2" d="M50.757,117.757 A6,6 0 0 1 55,116 h70 a6,6 0 0 1 6,6 v13 a6,6 0 0 1 -6,6 h-70 a6,6 0 0 1 -6,-6 v-13 A6,6 0 0 1 50.757,117.757"/></mask><path x="49" y="116" width="82" height="25" fill="#60a5fa15" d="M55,116 h70 a6,6 0 0 1 6,6 v13 a6,6 0 0 1 -6,6 h-70 a6,6 0 0 1 -6,-6 v-13 a6,6 0 0 1 6,-6" clip-path="url(#satori_cp-id)" mask="url(#satori_om-id)"/><path width="82" height="25" clip-path="url(#satori_bc-id-2-1-1-8)" fill="none" stroke="#60a5fa35" stroke-width="2" d="M50.757,117.757 A6,6 0 0 1 55,116 h70 a6,6 0 0 1 6,6 v13 a6,6 0 0 1 -6,6 h-70 a6,6 0 0 1 -6,-6 v-13 A6,6 0 0 1 50.757,117.757"/><g mask="url(#satori_om-id)" clip-path="url(#satori_cp-id)"><path fill="rgba(225,220,255,0.85)" d="M67.0 133.1L67.0 133.1Q65.9 133.1 65.2 132.8Q64.4 132.5 64.0 131.9Q63.5 131.2 63.5 130.3L63.5 130.3L65.2 130.3Q65.3 130.7 65.5 131.0Q65.7 131.3 66.1 131.5Q66.5 131.6 67.0 131.6L67.0 131.6Q67.5 131.6 67.8 131.5Q68.2 131.3 68.4 131.1Q68.6 130.8 68.6 130.5L68.6 130.5Q68.6 130.2 68.4 130.0Q68.2 129.8 67.9 129.7Q67.5 129.5 67.1 129.4L67.1 129.4L66.1 129.2Q65.0 128.9 64.4 128.3Q63.7 127.7 63.7 126.8L63.7 126.8Q63.7 126.0 64.2 125.4Q64.6 124.8 65.3 124.5Q66.1 124.2 67.0 124.2L67.0 124.2Q68.0 124.2 68.7 124.5Q69.4 124.8 69.8 125.4Q70.2 126.0 70.2 126.8L70.2 126.8L68.5 126.8Q68.5 126.2 68.1 125.9Q67.7 125.7 67.0 125.7L67.0 125.7Q66.5 125.7 66.2 125.8Q65.9 125.9 65.7 126.1Q65.6 126.4 65.6 126.7L65.6 126.7Q65.6 127.0 65.8 127.2Q66.0 127.4 66.3 127.5Q66.6 127.7 67.0 127.8L67.0 127.8L67.8 128.0Q68.3 128.1 68.8 128.3Q69.3 128.5 69.6 128.8Q70.0 129.1 70.2 129.5Q70.4 130.0 70.4 130.5L70.4 130.5Q70.4 131.3 70.0 131.9Q69.6 132.5 68.8 132.8Q68.1 133.1 67.0 133.1ZM73.6 126.4L74.9 126.4L74.9 127.8L73.6 127.8L73.6 131.1Q73.6 131.4 73.8 131.5Q73.9 131.7 74.2 131.7L74.2 131.7Q74.3 131.7 74.5 131.7Q74.7 131.6 74.8 131.6L74.8 131.6L75.0 132.9Q74.7 133.0 74.5 133.1Q74.2 133.1 73.9 133.1L73.9 133.1Q72.9 133.1 72.4 132.6Q71.9 132.1 71.9 131.2L71.9 131.2L71.9 127.8L71.0 127.8L71.0 126.4L71.9 126.4L71.9 124.9L73.6 124.9L73.6 126.4ZM77.8 133L76.0 133L76.0 126.4L77.7 126.4L77.7 127.6L77.8 127.6Q78.0 127.0 78.4 126.7Q78.8 126.4 79.4 126.4L79.4 126.4Q79.5 126.4 79.6 126.4Q79.8 126.4 79.9 126.4L79.9 126.4L79.9 128.0Q79.8 127.9 79.6 127.9Q79.4 127.9 79.2 127.9L79.2 127.9Q78.8 127.9 78.4 128.1Q78.1 128.2 77.9 128.6Q77.8 128.9 77.8 129.3L77.8 129.3L77.8 133ZM83.8 133.1L83.8 133.1Q82.8 133.1 82.1 132.7Q81.4 132.3 81.0 131.6Q80.6 130.8 80.6 129.8L80.6 129.8Q80.6 128.7 81 128.0Q81.4 127.2 82.1 126.8Q82.8 126.4 83.8 126.4L83.8 126.4Q84.4 126.4 85.0 126.6Q85.5 126.8 85.9 127.2Q86.4 127.6 86.6 128.2Q86.8 128.8 86.8 129.7L86.8 129.7L86.8 130.2L82.4 130.2Q82.4 130.7 82.5 131.0L82.5 131.0Q82.7 131.4 83.1 131.6Q83.4 131.8 83.9 131.8L83.9 131.8Q84.2 131.8 84.4 131.7Q84.7 131.6 84.9 131.5Q85.0 131.3 85.1 131.0L85.1 131.0L86.7 131.3Q86.6 131.9 86.2 132.3Q85.8 132.7 85.2 132.9Q84.6 133.1 83.8 133.1ZM82.4 129.1L82.4 129.1L85.1 129.1Q85.1 128.8 85.0 128.5L85.0 128.5Q84.8 128.1 84.5 127.9Q84.2 127.7 83.8 127.7L83.8 127.7Q83.3 127.7 83.0 127.9Q82.7 128.1 82.5 128.5L82.5 128.5Q82.4 128.7 82.4 129.1ZM89.9 133.1L89.9 133.1Q89.2 133.1 88.7 132.9Q88.3 132.7 88.0 132.3Q87.7 131.8 87.7 131.2L87.7 131.2Q87.7 130.6 87.9 130.3Q88.1 129.9 88.4 129.7Q88.8 129.4 89.2 129.3Q89.7 129.2 90.2 129.2L90.2 129.2Q90.7 129.1 91.1 129.0Q91.4 129.0 91.6 128.9Q91.7 128.8 91.7 128.6L91.7 128.6L91.7 128.5Q91.7 128.3 91.6 128.1Q91.5 127.9 91.3 127.8Q91.0 127.7 90.7 127.7L90.7 127.7Q90.4 127.7 90.1 127.8Q89.9 127.9 89.7 128.0Q89.6 128.2 89.5 128.4L89.5 128.4L87.9 128.2Q88.0 127.6 88.4 127.2Q88.8 126.8 89.4 126.6Q90.0 126.4 90.7 126.4L90.7 126.4Q91.3 126.4 91.8 126.5Q92.3 126.6 92.6 126.9Q93.0 127.1 93.3 127.6Q93.5 128.0 93.5 128.6L93.5 128.6L93.5 133L91.8 133L91.8 132.1L91.8 132.1Q91.6 132.4 91.4 132.6Q91.1 132.9 90.7 133.0Q90.4 133.1 89.9 133.1ZM90.4 131.9L90.4 131.9Q90.8 131.9 91.1 131.7Q91.4 131.6 91.6 131.3Q91.8 131.0 91.8 130.7L91.8 130.7L91.8 129.9Q91.7 130.0 91.5 130.1Q91.4 130.1 91.2 130.1Q91.0 130.2 90.8 130.2Q90.6 130.2 90.5 130.2L90.5 130.2Q90.1 130.3 89.9 130.4Q89.6 130.5 89.5 130.7Q89.4 130.8 89.4 131.1L89.4 131.1Q89.4 131.4 89.5 131.5Q89.6 131.7 89.9 131.8Q90.1 131.9 90.4 131.9ZM96.8 133L95.0 133L95.0 126.4L96.6 126.4L96.7 127.7Q96.8 127.4 97.0 127.1L97.0 127.1Q97.3 126.7 97.7 126.5Q98.1 126.3 98.6 126.3L98.6 126.3Q99.3 126.3 99.7 126.8L99.7 126.8Q100.1 127.2 100.3 127.8L100.3 127.8Q100.4 127.4 100.6 127.1L100.6 127.1Q101.0 126.7 101.4 126.5Q101.9 126.3 102.4 126.3L102.4 126.3Q103.0 126.3 103.4 126.6Q103.9 126.9 104.2 127.4Q104.5 127.9 104.5 128.6L104.5 128.6L104.5 133L102.7 133L102.7 128.9Q102.7 128.4 102.4 128.1Q102.1 127.8 101.7 127.8L101.7 127.8Q101.3 127.8 101.1 128.0Q100.8 128.1 100.7 128.4Q100.6 128.6 100.6 129.0L100.6 129.0L100.6 133L98.9 133L98.9 128.9Q98.9 128.4 98.6 128.1Q98.3 127.8 97.9 127.8L97.9 127.8Q97.5 127.8 97.3 128.0Q97.0 128.1 96.9 128.4Q96.8 128.6 96.8 129.0L96.8 129.0L96.8 133ZM106.0 124.3L107.7 124.3L107.7 133L106.0 133L106.0 124.3ZM111.0 133L109.2 133L109.2 126.4L111.0 126.4L111.0 133ZM110.1 125.6L110.1 125.6Q109.7 125.6 109.4 125.3Q109.1 125.1 109.1 124.7L109.1 124.7Q109.1 124.3 109.4 124.1Q109.7 123.8 110.1 123.8L110.1 123.8Q110.5 123.8 110.8 124.0Q111.1 124.3 111.1 124.7L111.1 124.7Q111.1 125.1 110.8 125.3Q110.5 125.6 110.1 125.6ZM114.5 126.4L115.7 126.4L115.7 127.8L114.5 127.8L114.5 131.1Q114.5 131.4 114.6 131.5Q114.8 131.7 115.1 131.7L115.1 131.7Q115.2 131.7 115.4 131.7Q115.5 131.6 115.6 131.6L115.6 131.6L115.9 132.9Q115.6 133.0 115.3 133.1Q115.0 133.1 114.8 133.1L114.8 133.1Q113.8 133.1 113.3 132.6Q112.7 132.1 112.7 131.2L112.7 131.2L112.7 127.8L111.8 127.8L111.8 126.4L112.7 126.4L112.7 124.9L114.5 124.9L114.5 126.4Z "/></g><defs><clipPath id="satori_bc-id-2-1-1-9" clip-path="url(#satori_cp-id)"><path x="138" y="116" width="72" height="25" d="M144,116 h60 a6,6 0 0 1 6,6 v13 a6,6 0 0 1 -6,6 h-60 a6,6 0 0 1 -6,-6 v-13 a6,6 0 0 1 6,-6"/></clipPath></defs><mask id="satori_om-id-2-1-1-9"><rect x="139" y="117" width="70" height="23" fill="#fff" mask="url(#satori_om-id)"/><path width="72" height="25" fill="none" stroke="#000" stroke-width="2" d="M139.757,117.757 A6,6 0 0 1 144,116 h60 a6,6 0 0 1 6,6 v13 a6,6 0 0 1 -6,6 h-60 a6,6 0 0 1 -6,-6 v-13 A6,6 0 0 1 139.757,117.757"/></mask><path x="138" y="116" width="72" height="25" fill="#60a5fa15" d="M144,116 h60 a6,6 0 0 1 6,6 v13 a6,6 0 0 1 -6,6 h-60 a6,6 0 0 1 -6,-6 v-13 a6,6 0 0 1 6,-6" clip-path="url(#satori_cp-id)" mask="url(#satori_om-id)"/><path width="72" height="25" clip-path="url(#satori_bc-id-2-1-1-9)" fill="none" stroke="#60a5fa35" stroke-width="2" d="M139.757,117.757 A6,6 0 0 1 144,116 h60 a6,6 0 0 1 6,6 v13 a6,6 0 0 1 -6,6 h-60 a6,6 0 0 1 -6,-6 v-13 A6,6 0 0 1 139.757,117.757"/><g mask="url(#satori_om-id)" clip-path="url(#satori_cp-id)"><path fill="rgba(225,220,255,0.85)" d="M154.6 133L152.8 133L152.8 124.3L156.2 124.3Q157.2 124.3 157.9 124.6Q158.6 125.0 159.0 125.7Q159.3 126.4 159.3 127.2L159.3 127.2Q159.3 128.1 158.9 128.7Q158.6 129.4 157.9 129.8Q157.2 130.1 156.2 130.1L156.2 130.1L154.6 130.1L154.6 133ZM154.6 125.7L154.6 128.7L155.9 128.7Q156.4 128.7 156.8 128.5Q157.1 128.3 157.3 128.0Q157.5 127.7 157.5 127.2Q157.5 126.8 157.3 126.4Q157.1 126.1 156.8 125.9Q156.4 125.7 155.9 125.7L155.9 125.7L154.6 125.7ZM162.4 133.1L162.4 133.1Q161.7 133.1 161.2 132.9Q160.7 132.7 160.5 132.3Q160.2 131.8 160.2 131.2L160.2 131.2Q160.2 130.6 160.4 130.3Q160.6 129.9 160.9 129.7Q161.3 129.4 161.7 129.3Q162.2 129.2 162.6 129.2L162.6 129.2Q163.2 129.1 163.6 129.0Q163.9 129.0 164.1 128.9Q164.2 128.8 164.2 128.6L164.2 128.6L164.2 128.5Q164.2 128.3 164.1 128.1Q164 127.9 163.8 127.8Q163.5 127.7 163.2 127.7L163.2 127.7Q162.9 127.7 162.6 127.8Q162.4 127.9 162.2 128.0Q162.0 128.2 162.0 128.4L162.0 128.4L160.4 128.2Q160.5 127.6 160.9 127.2Q161.3 126.8 161.9 126.6Q162.5 126.4 163.2 126.4L163.2 126.4Q163.7 126.4 164.2 126.5Q164.7 126.6 165.1 126.9Q165.5 127.1 165.8 127.6Q166.0 128.0 166.0 128.6L166.0 128.6L166.0 133L164.3 133L164.3 132.1L164.3 132.1Q164.1 132.4 163.8 132.6Q163.6 132.9 163.2 133.0Q162.8 133.1 162.4 133.1ZM162.9 131.9L162.9 131.9Q163.3 131.9 163.6 131.7Q163.9 131.6 164.1 131.3Q164.2 131.0 164.2 130.7L164.2 130.7L164.2 129.9Q164.2 130.0 164.0 130.1Q163.9 130.1 163.7 130.1Q163.5 130.2 163.3 130.2Q163.1 130.2 162.9 130.2L162.9 130.2Q162.6 130.3 162.4 130.4Q162.1 130.5 162.0 130.7Q161.9 130.8 161.9 131.1L161.9 131.1Q161.9 131.4 162.0 131.5Q162.1 131.7 162.3 131.8Q162.6 131.9 162.9 131.9ZM169.3 129.2L169.3 129.2L169.3 133L167.5 133L167.5 126.4L169.2 126.4L169.2 127.8Q169.4 127.2 169.9 126.8L169.9 126.8Q170.4 126.4 171.2 126.4L171.2 126.4Q171.9 126.4 172.4 126.7Q172.9 127.0 173.2 127.5Q173.5 128.1 173.5 128.8L173.5 128.8L173.5 133L171.7 133L171.7 129.1Q171.7 128.5 171.4 128.2Q171.1 127.8 170.5 127.8L170.5 127.8Q170.2 127.8 169.9 128.0Q169.6 128.2 169.4 128.5Q169.3 128.8 169.3 129.2ZM177.4 133.1L177.4 133.1Q176.6 133.1 176.0 132.7Q175.4 132.3 175.0 131.6Q174.7 130.8 174.7 129.7L174.7 129.7Q174.7 128.6 175.1 127.9Q175.4 127.1 176.0 126.7Q176.6 126.4 177.3 126.4L177.3 126.4Q177.9 126.4 178.3 126.6Q178.6 126.7 178.9 127.0Q179.1 127.3 179.2 127.6L179.2 127.6L179.3 127.6L179.3 124.3L181.0 124.3L181.0 133L179.3 133L179.3 132.0L179.2 132.0Q179.1 132.2 178.9 132.5Q178.6 132.7 178.3 132.9Q177.9 133.1 177.4 133.1ZM177.9 131.7L177.9 131.7Q178.3 131.7 178.7 131.5Q179.0 131.2 179.1 130.8Q179.3 130.3 179.3 129.7L179.3 129.7Q179.3 129.1 179.1 128.7Q179.0 128.3 178.7 128.0Q178.3 127.8 177.9 127.8L177.9 127.8Q177.4 127.8 177.1 128.0Q176.8 128.3 176.7 128.7Q176.5 129.2 176.5 129.7L176.5 129.7Q176.5 130.3 176.7 130.8Q176.8 131.2 177.1 131.4Q177.4 131.7 177.9 131.7ZM184.4 133.1L184.4 133.1Q183.7 133.1 183.2 132.9Q182.7 132.7 182.5 132.3Q182.2 131.8 182.2 131.2L182.2 131.2Q182.2 130.6 182.4 130.3Q182.6 129.9 182.9 129.7Q183.3 129.4 183.7 129.3Q184.2 129.2 184.6 129.2L184.6 129.2Q185.2 129.1 185.6 129.0Q185.9 129.0 186.1 128.9Q186.2 128.8 186.2 128.6L186.2 128.6L186.2 128.5Q186.2 128.3 186.1 128.1Q186.0 127.9 185.8 127.8Q185.5 127.7 185.2 127.7L185.2 127.7Q184.9 127.7 184.6 127.8Q184.4 127.9 184.2 128.0Q184.1 128.2 184.0 128.4L184.0 128.4L182.4 128.2Q182.5 127.6 182.9 127.2Q183.3 126.8 183.9 126.6Q184.5 126.4 185.2 126.4L185.2 126.4Q185.7 126.4 186.2 126.5Q186.7 126.6 187.1 126.9Q187.5 127.1 187.8 127.6Q188.0 128.0 188.0 128.6L188.0 128.6L188.0 133L186.3 133L186.3 132.1L186.3 132.1Q186.1 132.4 185.8 132.6Q185.6 132.9 185.2 133.0Q184.8 133.1 184.4 133.1ZM184.9 131.9L184.9 131.9Q185.3 131.9 185.6 131.7Q185.9 131.6 186.1 131.3Q186.2 131.0 186.2 130.7L186.2 130.7L186.2 129.9Q186.2 130.0 186.0 130.1Q185.9 130.1 185.7 130.1Q185.5 130.2 185.3 130.2Q185.1 130.2 184.9 130.2L184.9 130.2Q184.6 130.3 184.4 130.4Q184.1 130.5 184.0 130.7Q183.9 130.8 183.9 131.1L183.9 131.1Q183.9 131.4 184.0 131.5Q184.1 131.7 184.3 131.8Q184.6 131.9 184.9 131.9ZM192.1 133.1L192.1 133.1Q191.3 133.1 190.7 132.9Q190.1 132.7 189.7 132.2Q189.3 131.8 189.2 131.2L189.2 131.2L190.8 130.9Q191.0 131.4 191.3 131.6Q191.6 131.8 192.1 131.8L192.1 131.8Q192.7 131.8 192.9 131.6Q193.2 131.5 193.2 131.2L193.2 131.2Q193.2 130.9 193.0 130.7Q192.8 130.6 192.4 130.5L192.4 130.5L191.3 130.3Q190.3 130.1 189.8 129.6Q189.4 129.1 189.4 128.4L189.4 128.4Q189.4 127.8 189.7 127.3Q190.1 126.9 190.7 126.6Q191.3 126.4 192.1 126.4L192.1 126.4Q192.9 126.4 193.5 126.6Q194.0 126.8 194.4 127.2Q194.7 127.6 194.9 128.1L194.9 128.1L193.3 128.4Q193.2 128.1 192.9 127.8Q192.6 127.6 192.1 127.6L192.1 127.6Q191.7 127.6 191.4 127.8Q191.1 128.0 191.1 128.3L191.1 128.3Q191.1 128.5 191.3 128.7Q191.5 128.9 192.0 129.0L192.0 129.0L193.2 129.2Q194.1 129.4 194.6 129.8Q195.0 130.3 195.0 131.0L195.0 131.0Q195.0 131.6 194.7 132.1Q194.3 132.6 193.6 132.9Q193.0 133.1 192.1 133.1Z "/></g><defs><clipPath id="satori_bc-id-2-1-1-10" clip-path="url(#satori_cp-id)"><path x="217" y="116" width="71" height="25" d="M223,116 h59 a6,6 0 0 1 6,6 v13 a6,6 0 0 1 -6,6 h-59 a6,6 0 0 1 -6,-6 v-13 a6,6 0 0 1 6,-6"/></clipPath></defs><mask id="satori_om-id-2-1-1-10"><rect x="218" y="117" width="69" height="23" fill="#fff" mask="url(#satori_om-id)"/><path width="71" height="25" fill="none" stroke="#000" stroke-width="2" d="M218.757,117.757 A6,6 0 0 1 223,116 h59 a6,6 0 0 1 6,6 v13 a6,6 0 0 1 -6,6 h-59 a6,6 0 0 1 -6,-6 v-13 A6,6 0 0 1 218.757,117.757"/></mask><path x="217" y="116" width="71" height="25" fill="#60a5fa15" d="M223,116 h59 a6,6 0 0 1 6,6 v13 a6,6 0 0 1 -6,6 h-59 a6,6 0 0 1 -6,-6 v-13 a6,6 0 0 1 6,-6" clip-path="url(#satori_cp-id)" mask="url(#satori_om-id)"/><path width="71" height="25" clip-path="url(#satori_bc-id-2-1-1-10)" fill="none" stroke="#60a5fa35" stroke-width="2" d="M218.757,117.757 A6,6 0 0 1 223,116 h59 a6,6 0 0 1 6,6 v13 a6,6 0 0 1 -6,6 h-59 a6,6 0 0 1 -6,-6 v-13 A6,6 0 0 1 218.757,117.757"/><g mask="url(#satori_om-id)" clip-path="url(#satori_cp-id)"><path fill="rgba(225,220,255,0.85)" d="M233.6 133L231.8 133L231.8 124.3L233.8 124.3L236.5 128.7Q236.8 129.0 237.0 129.4Q237.2 129.8 237.4 130.3L237.4 130.3Q237.5 130.6 237.6 130.8L237.6 130.8Q237.6 130.6 237.6 130.4L237.6 130.4Q237.6 129.8 237.6 129.3Q237.5 128.8 237.5 128.5L237.5 128.5L237.5 124.3L239.4 124.3L239.4 133L237.4 133L234.8 129.0Q234.6 128.5 234.3 128.1Q234.1 127.7 233.9 127.2L233.9 127.2Q233.7 126.9 233.5 126.5L233.5 126.5Q233.5 126.8 233.5 127.2L233.5 127.2Q233.6 127.7 233.6 128.2Q233.6 128.7 233.6 129.0L233.6 129.0L233.6 133ZM243.2 133.1L243.2 133.1Q242.5 133.1 242.0 132.8Q241.5 132.5 241.2 131.9Q240.9 131.4 240.9 130.6L240.9 130.6L240.9 126.4L242.7 126.4L242.7 130.3Q242.7 130.9 243.0 131.3Q243.3 131.6 243.8 131.6L243.8 131.6Q244.2 131.6 244.5 131.5Q244.8 131.3 244.9 131.0Q245.1 130.7 245.1 130.2L245.1 130.2L245.1 126.4L246.9 126.4L246.9 133L245.2 133L245.2 131.6Q244.9 132.3 244.5 132.6L244.5 132.6Q244.0 133.1 243.2 133.1ZM250.1 133L248.4 133L248.4 126.4L250.0 126.4L250.1 127.7Q250.2 127.4 250.4 127.1L250.4 127.1Q250.7 126.7 251.1 126.5Q251.5 126.3 251.9 126.3L251.9 126.3Q252.6 126.3 253.1 126.8L253.1 126.8Q253.4 127.2 253.6 127.8L253.6 127.8Q253.8 127.4 254.0 127.1L254.0 127.1Q254.3 126.7 254.8 126.5Q255.2 126.3 255.7 126.3L255.7 126.3Q256.3 126.3 256.8 126.6Q257.3 126.9 257.5 127.4Q257.8 127.9 257.8 128.6L257.8 128.6L257.8 133L256.1 133L256.1 128.9Q256.1 128.4 255.8 128.1Q255.5 127.8 255.0 127.8L255.0 127.8Q254.7 127.8 254.4 128.0Q254.2 128.1 254.1 128.4Q253.9 128.6 253.9 129.0L253.9 129.0L253.9 133L252.2 133L252.2 128.9Q252.2 128.4 252.0 128.1Q251.7 127.8 251.2 127.8L251.2 127.8Q250.9 127.8 250.7 128.0Q250.4 128.1 250.3 128.4Q250.1 128.6 250.1 129.0L250.1 129.0L250.1 133ZM261.1 133L259.4 133L259.4 124.3L262.8 124.3Q263.8 124.3 264.5 124.6Q265.2 125.0 265.5 125.7Q265.9 126.4 265.9 127.2L265.9 127.2Q265.9 128.1 265.5 128.7Q265.1 129.4 264.4 129.8Q263.7 130.1 262.7 130.1L262.7 130.1L261.1 130.1L261.1 133ZM261.1 125.7L261.1 128.7L262.4 128.7Q263.0 128.7 263.3 128.5Q263.7 128.3 263.9 128.0Q264.0 127.7 264.0 127.2Q264.0 126.8 263.9 126.4Q263.7 126.1 263.3 125.9Q263.0 125.7 262.4 125.7L262.4 125.7L261.1 125.7ZM267.0 135.3L267.0 135.3L267.5 134.0L267.7 134.0Q268.0 134.1 268.3 134.1Q268.6 134.1 268.7 133.9Q268.9 133.7 268.9 133.4L268.9 133.4L269.0 133.0L266.5 126.4L268.4 126.4L269.5 129.8Q269.7 130.5 269.8 131.1L269.8 131.1Q269.9 131.4 269.9 131.6L269.9 131.6Q270.0 131.4 270.0 131.1L270.0 131.1Q270.2 130.5 270.4 129.8L270.4 129.8L271.5 126.4L273.4 126.4L270.6 133.8Q270.4 134.3 270.1 134.7Q269.8 135.1 269.3 135.3Q268.9 135.5 268.2 135.5L268.2 135.5Q267.8 135.5 267.5 135.4Q267.2 135.4 267.0 135.3Z "/></g></svg>